<svg width="100" height="100" viewBox="0 0 100 100" fill="none" xmlns="http://www.w3.org/2000/svg">
<path d="M49.5997 19.3165C45.3764 19.3165 41.9414 15.8815 41.9414 11.6582C41.9414 7.43495 45.3764 4 49.5997 4C53.823 4 57.2579 7.43495 57.2579 11.6582C57.2579 15.8815 53.823 19.3165 49.5997 19.3165ZM49.5997 6.77799C46.9155 6.77799 44.7382 8.95534 44.7382 11.6395C44.7382 14.3236 46.9155 16.501 49.5997 16.501C52.2838 16.501 54.4611 14.3236 54.4611 11.6395C54.4611 8.95534 52.2838 6.77799 49.5997 6.77799Z" fill="#C32226"/>
<path d="M52.7038 43.4387C52.3284 43.4387 51.953 43.2885 51.6715 42.9882C51.1459 42.4251 51.1647 41.5429 51.7465 40.9985L54.7122 38.2393V27.8218C54.7122 27.0522 55.3316 26.4141 56.12 26.4141C56.9083 26.4141 57.5278 27.0335 57.5278 27.8218V38.8587C57.5278 39.2529 57.3588 39.6095 57.0773 39.8911L53.6799 43.0632C53.4171 43.3073 53.0605 43.4387 52.7226 43.4387H52.7038Z" fill="#C32226"/>
<path d="M52.4959 52.4117C52.1205 52.4117 51.7451 52.2615 51.4636 51.9612C50.938 51.3981 50.9755 50.4971 51.5574 49.9716L59.7975 42.4635C60.6422 41.6751 61.1115 40.624 61.1115 39.4978V24.9133C61.1115 23.2991 60.0416 21.8538 58.3898 21.2719L52.1581 19.0195C51.426 18.7567 51.0506 17.9496 51.3134 17.2175C51.5762 16.4855 52.3833 16.1101 53.1154 16.3729L59.3471 18.6253C62.0687 19.6201 63.9082 22.1353 63.9082 24.9133V39.4978C63.9082 41.3748 63.1011 43.2143 61.6933 44.5282L53.4532 52.0363C53.1904 52.2803 52.8526 52.4117 52.5147 52.4117H52.4959Z" fill="#C32226"/>
<path d="M49.584 53.8007C48.3639 53.8007 47.1438 53.369 46.2241 52.5055L37.6836 44.5282C36.2759 43.2143 35.4688 41.3748 35.4688 39.4978V24.9133C35.4688 22.1353 37.3082 19.6201 40.0299 18.6253L46.2616 16.3729C46.9937 16.1101 47.8008 16.4855 48.0636 17.2175C48.3263 17.9496 47.951 18.7567 47.2189 19.0195L40.9872 21.2719C39.3354 21.8725 38.2655 23.2991 38.2655 24.9133V39.4978C38.2655 40.624 38.7348 41.6751 39.5982 42.4822L48.1386 50.4596C48.927 51.1916 50.2409 51.1916 51.0293 50.4596C51.3859 50.1217 51.5736 49.69 51.5736 49.2395C51.5736 48.789 51.3859 48.3573 51.0293 48.0195L42.3199 39.8919C42.0383 39.6292 41.8694 39.2538 41.8694 38.8596V27.8227C41.8694 27.0531 42.4888 26.4149 43.2772 26.4149C44.0655 26.4149 44.6849 27.0343 44.6849 27.8227V38.2402L52.9438 45.9547C53.8636 46.8182 54.3891 47.9819 54.3891 49.2208C54.3891 50.4596 53.8823 51.6233 52.9438 52.4868C52.0241 53.3502 50.804 53.7819 49.584 53.7819V53.8007Z" fill="#C32226"/>
<path d="M49.5093 23.9878C48.7398 23.9878 48.1016 23.3684 48.1016 22.58V22.2046C48.1016 21.4351 48.721 20.7969 49.5093 20.7969C50.2977 20.7969 50.9171 21.4163 50.9171 22.2046V22.58C50.9171 23.3496 50.2977 23.9878 49.5093 23.9878Z" fill="#C32226"/>
<path d="M49.5093 37.0729C48.7398 37.0729 48.1016 36.4534 48.1016 35.6651V26.6929C48.1016 25.9233 48.721 25.2852 49.5093 25.2852C50.2977 25.2852 50.9171 25.9046 50.9171 26.6929V35.6651C50.9171 36.4347 50.2977 37.0729 49.5093 37.0729Z" fill="#C32226"/>
<path d="M60.734 73.9225H38.266C36.4641 73.9225 35 72.4584 35 70.6565V57.7426C35 55.9406 36.4641 54.4766 38.266 54.4766H60.734C62.5359 54.4766 64 55.9406 64 57.7426V70.6565C64 72.4584 62.5359 73.9225 60.734 73.9225ZM38.266 57.2733C38.022 57.2733 37.8155 57.4798 37.8155 57.7238V70.6377C37.8155 70.8817 38.022 71.0882 38.266 71.0882H60.734C60.978 71.0882 61.1845 70.8817 61.1845 70.6377V57.7238C61.1845 57.4798 60.978 57.2733 60.734 57.2733H38.266Z" fill="#C32226"/>
<path d="M44.9325 57.268C44.8387 57.268 44.7448 57.268 44.651 57.2305C43.9002 57.0803 43.4121 56.3295 43.5623 55.5787L44.6885 50.1353C44.8387 49.3845 45.5895 48.8965 46.3403 49.0467C47.0911 49.1968 47.5791 49.9476 47.429 50.6985L46.3028 56.1418C46.1714 56.7988 45.5895 57.268 44.9325 57.268Z" fill="#C32226"/>
<path d="M54.4845 57.268C53.8276 57.268 53.2457 56.8175 53.1143 56.1418L51.9881 50.6985C51.8379 49.9476 52.3259 49.1968 53.0768 49.0467C53.8276 48.8965 54.5784 49.3845 54.7285 50.1353L55.8547 55.5787C56.0049 56.3295 55.5169 57.0803 54.7661 57.2305C54.6722 57.2493 54.5784 57.268 54.4845 57.268Z" fill="#C32226"/>
<path d="M40.3296 56.7242C39.5601 56.7242 38.9219 56.1048 38.9219 55.3165V45.0679C38.9219 44.2983 39.5413 43.6602 40.3296 43.6602C41.118 43.6602 41.7374 44.2796 41.7374 45.0679V55.3165C41.7374 56.086 41.118 56.7242 40.3296 56.7242Z" fill="#C32226"/>
<path d="M59.2125 56.7242C58.4429 56.7242 57.8047 56.1048 57.8047 55.3165V45.0679C57.8047 44.2983 58.4241 43.6602 59.2125 43.6602C60.0008 43.6602 60.6202 44.2796 60.6202 45.0679V55.3165C60.6202 56.086 60.0008 56.7242 59.2125 56.7242Z" fill="#C32226"/>
<path d="M42.6155 96.2723C41.8835 96.2723 41.2641 95.7092 41.2265 94.9584L39.6874 72.603C39.631 71.8335 40.2129 71.1577 40.9825 71.1014C41.7521 71.0451 42.4278 71.627 42.4841 72.3966L44.0233 94.7519C44.0796 95.5215 43.4977 96.1972 42.7281 96.2535C42.6906 96.2535 42.6718 96.2535 42.6343 96.2535L42.6155 96.2723Z" fill="#C32226"/>
<path d="M56.6059 96.2799C56.6059 96.2799 56.512 96.2799 56.4557 96.2799C55.6861 96.2048 55.123 95.5103 55.1981 94.7407L57.5444 72.3854C57.6195 71.6158 58.314 71.0527 59.0836 71.1278C59.8531 71.2029 60.4162 71.8974 60.3412 72.667L57.9949 95.0223C57.9198 95.7356 57.3192 96.2799 56.6059 96.2799Z" fill="#C32226"/>
<path d="M49.8101 96.2763C49.0405 96.2763 48.4023 95.6569 48.4023 94.8686V72.5132C48.4023 71.7437 49.0218 71.1055 49.8101 71.1055C50.5985 71.1055 51.2179 71.7249 51.2179 72.5132V94.8686C51.2179 95.6381 50.5985 96.2763 49.8101 96.2763Z" fill="#C32226"/>
</svg>
