<svg width="100" height="100" viewBox="0 0 100 100" fill="none" xmlns="http://www.w3.org/2000/svg">
<path d="M45.4146 55.7838V57.2578C46.3386 57.2578 47.2185 57.2578 48.0985 57.2578C53.2904 57.2138 57.8883 58.8857 61.8042 62.2956C62.6181 62.9996 63.3881 63.4176 64.5981 63.0656C64.5981 61.8336 64.5981 60.5357 64.5981 59.2157C64.5981 57.6758 65.0381 57.2578 66.578 57.2578C71.1979 57.2578 75.8178 57.2578 80.4377 57.2578C81.8896 57.2578 82.3516 57.7198 82.3516 59.1937C82.3516 60.4917 82.3516 61.7677 82.3516 63.1316C82.7036 63.1316 83.0116 63.1756 83.2976 63.1756C85.9375 63.1756 88.5994 63.1756 91.2394 63.1756C93.7033 63.1756 95.6392 65.1116 95.6392 67.5535C95.6392 75.4733 95.6392 83.3931 95.6392 91.2909C95.6392 93.7328 93.7033 95.6687 91.2394 95.6687C79.3817 95.6687 67.524 95.6687 55.6663 95.6687C53.2464 95.6687 51.3104 93.7328 51.3104 91.3349C51.3104 83.3931 51.3104 75.4513 51.3104 67.4875C51.3104 65.0896 53.2464 63.1536 55.6443 63.1316C56.3483 63.1316 57.0523 63.1316 57.7563 63.0436C55.7103 61.5917 53.4004 60.7777 50.8265 60.4037C50.1665 62.3396 49.5285 64.2756 48.8685 66.2115C48.2085 68.1915 47.5485 70.1714 46.8886 72.1514C46.4266 73.4713 45.6566 73.8013 44.4026 73.1633C41.9827 71.9754 39.5628 70.7214 37.1428 69.5774C36.7908 69.4234 36.2408 69.4234 35.9109 69.5774C33.4909 70.7214 31.115 71.9534 28.7171 73.1413C27.3531 73.8233 26.5831 73.5153 26.0991 72.0854C24.8892 68.4995 23.7012 64.9356 22.5132 61.3497C22.4252 61.0637 22.3152 60.7777 22.2052 60.4257C18.3993 60.9537 15.1434 62.5596 12.4155 65.1996C9.07158 68.4115 7.17964 72.3714 7.02564 76.9912C6.84965 82.1831 6.98165 87.397 6.98165 92.6548H14.3074V79.4772H17.2774V92.6768H48.2745V95.6687H47.3065C33.5349 95.6687 19.7853 95.6687 6.01367 95.6687C4.40772 95.6687 4.01172 95.2508 4.01172 93.6448C4.01172 88.3209 4.01172 82.9971 4.01172 77.6512C4.01172 67.4435 11.8875 58.5997 22.0292 57.4118C23.8552 57.1918 25.7031 57.2138 27.5951 57.1258V55.7398C26.3191 55.7398 25.0651 55.7398 23.8112 55.7398C17.3434 55.7398 11.5575 53.6939 6.40966 49.822C5.77168 49.338 5.30969 48.788 5.52968 47.974C5.74968 47.138 6.38767 46.9181 7.22365 46.8521C9.73158 46.6321 11.4035 44.7621 11.4035 42.2102C11.4035 37.8763 11.4035 33.5204 11.4035 29.1865C11.4035 16.8449 20.1593 6.48315 32.347 4.37121C45.9646 1.99527 59.0322 11.279 61.2982 24.9407C61.5182 26.3046 61.6282 27.6906 61.6502 29.0765C61.6942 33.3664 61.6502 37.6343 61.6502 41.9242C61.6502 44.9381 63.1461 46.5881 66.16 46.9181C66.864 46.9841 67.326 47.336 67.502 47.996C67.7 48.722 67.392 49.294 66.798 49.756C63.4981 52.3079 59.8242 54.1779 55.7323 55.0138C53.5104 55.4758 51.2444 55.5858 48.9785 55.7838C47.8125 55.8718 46.6466 55.7838 45.4146 55.7838ZM27.7711 52.5719C27.4851 52.3079 27.2651 51.9559 26.9351 51.7579C21.5673 48.502 18.2453 43.8161 17.4974 37.5463C17.1894 34.8624 17.3434 32.1345 17.2994 29.4285C17.2994 28.1966 17.8053 27.6906 19.0373 27.6906C21.1273 27.6906 23.2172 27.7346 25.3071 27.6686C26.4071 27.6246 27.5291 27.4926 28.5851 27.1846C31.621 26.3046 33.7329 24.3027 35.0309 21.4207C35.4929 20.4088 36.2849 19.9688 37.0548 20.4088C37.4728 20.6288 37.8248 21.1128 38.0228 21.5527C39.6948 24.9627 42.3127 27.1186 46.0966 27.4926C48.7145 27.7566 51.3764 27.6246 54.0164 27.6686C55.1823 27.6686 55.6883 28.1966 55.7103 29.3625C55.7103 31.3865 55.7103 33.4324 55.7103 35.4564C55.7103 37.6563 55.2703 39.7903 54.4784 41.8362C52.8284 46.1261 49.9905 49.426 46.0086 51.7359C45.6346 51.9559 45.1286 52.1319 45.4586 52.7479C51.4864 53.1219 57.2283 52.3079 62.4861 49.008C62.3761 48.898 62.2881 48.81 62.1781 48.744C59.7362 47.1381 58.6142 44.8721 58.6582 41.9462C58.7242 37.8543 58.7022 33.7624 58.6582 29.6705C58.6582 28.2846 58.5262 26.8986 58.3282 25.5346C56.2383 12.269 42.5987 3.90922 29.817 8.02311C20.5333 11.015 14.3954 19.4188 14.3294 29.2745C14.3074 33.6744 14.3294 38.0743 14.3294 42.4742C14.3294 45.0041 13.2295 46.9621 11.2495 48.458C11.0295 48.634 10.7875 48.788 10.5236 48.986C15.8254 52.2859 21.5672 53.0999 27.7711 52.5059V52.5719ZM20.2473 30.6605C20.2473 32.3545 20.2033 33.9604 20.2473 35.5444C20.2693 36.4683 20.4233 37.3923 20.5773 38.2943C22.1172 46.6981 30.719 52.7039 39.0788 51.1199C48.8025 49.272 53.9284 41.1102 52.6084 30.6605C50.8705 30.6605 49.1105 30.6605 47.3726 30.6605C43.5007 30.6605 40.2667 29.1865 37.6268 26.3706C37.2308 25.9526 36.8788 25.5126 36.4608 25.0286C36.2848 25.2266 36.1748 25.3806 36.0648 25.5126C33.3589 28.8785 29.861 30.6385 25.5051 30.6605C23.7892 30.6605 22.0512 30.6605 20.2033 30.6605H20.2473ZM54.2364 78.0252C54.2364 78.3332 54.2364 78.5752 54.2364 78.8172C54.2364 82.7991 54.2364 86.759 54.2364 90.7409C54.2364 92.2808 54.7423 92.7868 56.3043 92.7868C67.766 92.7868 79.2057 92.7868 90.6674 92.7868C92.1413 92.7868 92.6693 92.2588 92.6913 90.8069C92.6913 86.803 92.6913 82.7991 92.6913 78.7952C92.6913 78.5532 92.6693 78.3112 92.6473 78.0692H89.7214C89.7214 79.5212 89.7214 80.8851 89.7214 82.2711C89.7214 83.3711 89.1934 83.8991 88.0714 83.9211C86.2235 83.9211 84.3755 83.9211 82.5276 83.9211C81.3616 83.9211 80.8556 83.3931 80.8556 82.2271C80.8556 80.8411 80.8556 79.4772 80.8556 78.0692H66.072C66.072 79.4992 66.072 80.8851 66.072 82.2711C66.072 83.3931 65.544 83.9211 64.4441 83.9211C62.5961 83.9211 60.7482 83.9211 58.9002 83.9211C57.7343 83.9211 57.2283 83.3931 57.2063 82.2271C57.2063 80.8411 57.2063 79.4772 57.2063 78.0472H54.2584L54.2364 78.0252ZM92.6693 74.9893C92.6693 72.6794 92.6693 70.4794 92.6693 68.2575C92.6693 66.6515 92.1853 66.1455 90.5794 66.1455C84.1336 66.1455 77.7097 66.1455 71.2639 66.1455C66.27 66.1455 61.2762 66.1455 56.3043 66.1455C54.7203 66.1455 54.2364 66.6515 54.2364 68.2575C54.2364 70.2374 54.2364 72.1954 54.2364 74.1753C54.2364 74.4393 54.2804 74.7033 54.2804 74.9453H57.1843C57.1843 74.4393 57.1843 74.0213 57.1843 73.5813C57.2283 72.6354 57.7343 72.0634 58.6582 72.0634C60.6382 72.0414 62.5961 72.0414 64.5761 72.0634C65.4561 72.0634 66.006 72.6354 66.028 73.5153C66.05 73.9993 66.028 74.4833 66.028 74.9453H80.8116C80.8116 74.4393 80.8116 74.0213 80.8116 73.5813C80.8336 72.6354 81.3616 72.0634 82.2856 72.0634C84.2655 72.0414 86.2235 72.0414 88.2034 72.0634C89.1274 72.0634 89.6554 72.6354 89.6774 73.5813C89.6774 74.0213 89.6774 74.4833 89.6774 74.9673H92.6473L92.6693 74.9893ZM36.5048 65.2876C38.4188 62.9776 40.2667 60.7997 42.0927 58.5777C42.2467 58.3797 42.4007 58.0938 42.4007 57.8518C42.4227 56.3998 42.4007 54.9698 42.4007 53.4299C38.4408 54.6398 34.5469 54.6618 30.565 53.4299C30.565 54.9698 30.565 56.4438 30.565 57.9178C30.565 58.1157 30.675 58.3357 30.807 58.4897C32.6769 60.7337 34.5469 62.9776 36.4828 65.2876H36.5048ZM25.2631 60.2497C26.3631 63.5496 27.4191 66.7175 28.5191 69.9514C30.455 68.9835 32.259 68.0815 34.1289 67.1355C32.237 64.8696 30.411 62.6696 28.5631 60.4917C28.4311 60.3377 28.1451 60.2497 27.9251 60.2497C27.0891 60.2277 26.2751 60.2497 25.2631 60.2497ZM44.4906 69.9514C45.5906 66.6515 46.6466 63.5056 47.6805 60.3377C47.5265 60.2937 47.4605 60.2497 47.4165 60.2497C45.6273 60.147 44.1606 60.7777 43.0167 62.1416C41.6527 63.7916 40.2887 65.4416 38.8588 67.1355C40.7507 68.0815 42.5547 68.9835 44.4686 69.9514H44.4906ZM67.59 63.1316H79.2937V60.2937H67.59V63.1316ZM63.0581 80.9071V75.0773H60.2202V80.9071H63.0581ZM83.8256 80.8631H86.7075V75.0773H83.8256V80.8631Z" fill="#C22226"/>
<path d="M69.0454 45.3788V42.5409H71.9713C71.9713 42.1229 71.9713 41.7929 71.9713 41.4629C71.9713 37.481 71.9713 33.5211 71.9713 29.5392C71.9713 28.1753 72.4554 27.6913 73.7753 27.6913C75.5353 27.6913 77.2952 27.6913 79.0332 27.6913C80.3311 27.6913 80.8151 28.1753 80.8151 29.4732C80.8151 33.4551 80.8151 37.415 80.8151 41.3969V42.4309H83.763V41.4629C83.763 35.5451 83.763 29.6492 83.763 23.7314C83.763 22.1914 84.203 21.7734 85.743 21.7734C87.3709 21.7734 88.9989 21.7734 90.6489 21.7734C92.2328 21.7734 92.6508 22.1914 92.6508 23.8194C92.6508 29.6712 92.6508 35.5231 92.6508 41.3749C92.6508 41.7049 92.6508 42.0349 92.6508 42.4749H95.5547V45.3788H69.0234H69.0454ZM89.6809 24.8094H86.799V42.4309H89.6809V24.8094ZM74.9853 30.6832V42.3869H77.8232V30.6832H74.9853Z" fill="#C22226"/>
<path d="M87.5472 9.95573H85.3472V7.00781C86.2492 7.00781 87.1512 7.00781 88.0532 7.00781C89.1091 7.00781 90.1431 7.00781 91.1991 7.00781C92.1011 7.00781 92.673 7.5578 92.673 8.43778C92.695 10.3737 92.673 12.3097 92.673 14.3116H89.7471V12.0457C89.1531 12.6397 88.6691 13.0137 88.3171 13.4756C86.8652 15.4996 84.9293 16.2696 82.4873 15.8736C81.8933 15.7856 81.2553 15.8076 80.6394 15.8736C80.2434 15.9176 79.8034 16.0716 79.5394 16.3356C77.8674 17.9415 76.2615 19.5695 74.6115 21.1974C74.6115 21.1974 74.5675 21.2194 74.5455 21.2414C73.9076 20.5594 73.2696 19.8555 72.4336 18.9315C72.6536 18.7775 73.0936 18.5135 73.4676 18.1615C75.0075 16.6656 76.5035 15.0816 78.0654 13.6076C78.4614 13.2336 79.1214 13.0576 79.6714 12.9257C80.1774 12.8157 80.7054 12.9037 81.2334 12.9037C83.668 12.9037 85.7652 11.921 87.5252 9.95573H87.5472Z" fill="#C22226"/>
<path d="M29.0689 41.0415H32.0168C32.1928 42.4495 32.6548 43.7915 33.9087 44.5394C34.7007 45.0014 35.6687 45.3754 36.5707 45.3974C38.8366 45.4634 40.2666 43.9895 41.0145 41.0415H43.8745C43.8525 43.4615 42.9065 45.3974 41.0365 46.8274C38.5946 48.6973 35.8887 48.9613 33.1388 47.5754C30.5428 46.2554 29.2449 44.0334 29.0469 41.0195L29.0689 41.0415Z" fill="#C22226"/>
</svg>
