<svg width="100" height="100" viewBox="0 0 100 100" fill="none" xmlns="http://www.w3.org/2000/svg">
<path d="M49.5903 22.4228C44.7858 22.4228 40.8789 18.5159 40.8789 13.7114C40.8789 8.90694 44.7858 5 49.5903 5C54.3948 5 58.3017 8.90694 58.3017 13.7114C58.3017 18.5159 54.3948 22.4228 49.5903 22.4228ZM49.5903 8.45817C46.6865 8.45817 44.3371 10.8076 44.3371 13.7114C44.3371 16.6152 46.6865 18.9647 49.5903 18.9647C52.4941 18.9647 54.8436 16.6152 54.8436 13.7114C54.8436 10.8076 52.4941 8.45817 49.5903 8.45817Z" fill="#C32226"/>
<path d="M49.5938 95.1266C48.6435 95.1266 47.8516 94.3611 47.8516 93.3844V63.1056C47.8516 62.1552 48.6171 61.3633 49.5938 61.3633C50.5706 61.3633 51.3361 62.1288 51.3361 63.1056V93.3844C51.3361 94.3347 50.5706 95.1266 49.5938 95.1266Z" fill="#C32226"/>
<path d="M49.5927 95.1196H40.195C39.2446 95.1196 38.4527 94.354 38.4527 93.3773V48.6059C37.8983 48.817 37.2648 48.9226 36.6312 48.9226H21.4258C18.654 48.9226 16.4102 46.6788 16.4102 43.907C16.4102 41.1352 18.654 38.8913 21.4258 38.8913H31.8795V33.1629C31.8795 29.5991 34.7833 26.6953 38.3471 26.6953H42.1748C43.1252 26.6953 43.9171 27.4609 43.9171 28.4376C43.9171 29.4143 43.1516 30.1799 42.1748 30.1799H38.3471C36.684 30.1799 35.3377 31.5262 35.3377 33.1893V39.4721C35.3377 41.0824 34.0442 42.3759 32.4339 42.3759H21.4258C20.5811 42.3759 19.8683 43.0622 19.8683 43.9334C19.8683 44.8045 20.5547 45.4909 21.4258 45.4909H36.6312C37.6344 45.4909 38.4527 44.6725 38.4527 43.6694V38.9177C38.4527 37.9674 39.2182 37.1754 40.195 37.1754C41.1717 37.1754 41.9373 37.941 41.9373 38.9177V91.6614H49.6191C50.5695 91.6614 51.3614 92.427 51.3614 93.4037C51.3614 94.3804 50.5959 95.146 49.6191 95.146L49.5927 95.1196Z" fill="#C32226"/>
<path d="M58.9916 95.1264H49.5938C48.6435 95.1264 47.8516 94.3609 47.8516 93.3841C47.8516 92.4074 48.6171 91.6418 49.5938 91.6418H57.2757V38.8982C57.2757 37.9478 58.0413 37.1559 59.018 37.1559C59.9947 37.1559 60.7603 37.9214 60.7603 38.8982V43.6499C60.7603 44.653 61.5787 45.4713 62.5818 45.4713H77.7872C78.6319 45.4713 79.3447 44.785 79.3447 43.9138C79.3447 43.0427 78.6583 42.3563 77.7872 42.3563H66.7791C65.1688 42.3563 63.8753 41.0364 63.8753 39.4525V33.1697C63.8753 31.5067 62.529 30.1603 60.8659 30.1603H57.0381C56.0878 30.1603 55.2959 29.3948 55.2959 28.4181C55.2959 27.4413 56.0614 26.6758 57.0381 26.6758H60.8659C64.4297 26.6758 67.3335 29.5796 67.3335 33.1434V38.8718H77.7872C80.559 38.8718 82.8028 41.1156 82.8028 43.8874C82.8028 46.6593 80.559 48.9031 77.7872 48.9031H62.5818C61.9482 48.9031 61.3411 48.7975 60.7603 48.5863V93.3577C60.7603 94.3081 59.9947 95.1 59.018 95.1L58.9916 95.1264Z" fill="#C32226"/>
<path d="M86.2554 95.1252H12.8946C11.9443 95.1252 11.1523 94.3597 11.1523 93.3829C11.1523 92.4062 11.9179 91.6406 12.8946 91.6406H86.2554C87.2057 91.6406 87.9976 92.4062 87.9976 93.3829C87.9976 94.3597 87.2321 95.1252 86.2554 95.1252Z" fill="#C32226"/>
<path d="M30.1587 42.3791H4.92196C3.97162 42.3791 3.17969 41.6135 3.17969 40.6368C3.17969 39.6601 3.94523 38.8945 4.92196 38.8945H30.1587C31.109 38.8945 31.901 39.6601 31.901 40.6368C31.901 41.6135 31.1354 42.3791 30.1587 42.3791Z" fill="#C32226"/>
<path d="M27.3087 42.3785C26.3584 42.3785 25.5664 41.613 25.5664 40.6362V23.7149C25.5664 22.7646 26.332 21.9727 27.3087 21.9727C28.2854 21.9727 29.051 22.7382 29.051 23.7149V40.6362C29.051 41.5866 28.2854 42.3785 27.3087 42.3785Z" fill="#C32226"/>
<path d="M20.9962 42.3814C20.0459 42.3814 19.2539 41.6159 19.2539 40.6392V26.1993C19.2539 25.249 20.0195 24.457 20.9962 24.457C21.9729 24.457 22.7385 25.2226 22.7385 26.1993V40.6392C22.7385 41.5895 21.9729 42.3814 20.9962 42.3814Z" fill="#C32226"/>
<path d="M14.6876 42.3805C13.7373 42.3805 12.9453 41.615 12.9453 40.6383V21.1563C12.9453 20.206 13.7109 19.4141 14.6876 19.4141C15.6643 19.4141 16.4299 20.1796 16.4299 21.1563V40.6383C16.4299 41.5886 15.6643 42.3805 14.6876 42.3805Z" fill="#C32226"/>
<path d="M8.37511 42.3817C7.42477 42.3817 6.63281 41.6162 6.63281 40.6394V16.8282C6.63281 15.8779 7.39837 15.0859 8.37511 15.0859C9.35184 15.0859 10.1174 15.8515 10.1174 16.8282V40.6394C10.1174 41.5898 9.35184 42.3817 8.37511 42.3817Z" fill="#C32226"/>
<path d="M30.1587 42.3791H4.92196C3.97162 42.3791 3.17969 41.6135 3.17969 40.6368C3.17969 39.6601 3.94523 38.8945 4.92196 38.8945H30.1587C31.109 38.8945 31.901 39.6601 31.901 40.6368C31.901 41.6135 31.1354 42.3791 30.1587 42.3791Z" fill="#C32226"/>
<path d="M27.3087 42.3785C26.3584 42.3785 25.5664 41.613 25.5664 40.6362V23.7149C25.5664 22.7646 26.332 21.9727 27.3087 21.9727C28.2854 21.9727 29.051 22.7382 29.051 23.7149V40.6362C29.051 41.5866 28.2854 42.3785 27.3087 42.3785Z" fill="#C32226"/>
<path d="M20.9962 42.3814C20.0459 42.3814 19.2539 41.6159 19.2539 40.6392V26.1993C19.2539 25.249 20.0195 24.457 20.9962 24.457C21.9729 24.457 22.7385 25.2226 22.7385 26.1993V40.6392C22.7385 41.5895 21.9729 42.3814 20.9962 42.3814Z" fill="#C32226"/>
<path d="M14.6876 42.3805C13.7373 42.3805 12.9453 41.615 12.9453 40.6383V21.1563C12.9453 20.206 13.7109 19.4141 14.6876 19.4141C15.6643 19.4141 16.4299 20.1796 16.4299 21.1563V40.6383C16.4299 41.5886 15.6643 42.3805 14.6876 42.3805Z" fill="#C32226"/>
<path d="M8.37511 42.3817C7.42477 42.3817 6.63281 41.6162 6.63281 40.6394V16.8282C6.63281 15.8779 7.39837 15.0859 8.37511 15.0859C9.35184 15.0859 10.1174 15.8515 10.1174 16.8282V40.6394C10.1174 41.5898 9.35184 42.3817 8.37511 42.3817Z" fill="#C32226"/>
<path d="M94.2251 42.3791H68.9884C68.0381 42.3791 67.2461 41.6135 67.2461 40.6368C67.2461 39.6601 68.0117 38.8945 68.9884 38.8945H94.2251C95.1754 38.8945 95.9674 39.6601 95.9674 40.6368C95.9674 41.6135 95.2018 42.3791 94.2251 42.3791Z" fill="#C32226"/>
<path d="M71.8673 42.3814C70.9169 42.3814 70.125 41.6159 70.125 40.6392V26.1993C70.125 25.249 70.8905 24.457 71.8673 24.457C72.844 24.457 73.6096 25.2226 73.6096 26.1993V40.6392C73.6096 41.5895 72.844 42.3814 71.8673 42.3814Z" fill="#C32226"/>
<path d="M78.1759 42.3759C77.2255 42.3759 76.4336 41.6103 76.4336 40.6336V28.4376C76.4336 27.4873 77.1991 26.6953 78.1759 26.6953C79.1526 26.6953 79.9182 27.4609 79.9182 28.4376V40.6336C79.9182 41.5839 79.1526 42.3759 78.1759 42.3759Z" fill="#C32226"/>
<path d="M84.4884 42.3828C83.538 42.3828 82.7461 41.6173 82.7461 40.6405V22.5313C82.7461 21.581 83.5116 20.7891 84.4884 20.7891C85.4651 20.7891 86.2307 21.5546 86.2307 22.5313V40.6405C86.2307 41.5909 85.4651 42.3828 84.4884 42.3828Z" fill="#C32226"/>
<path d="M90.797 42.3785C89.8466 42.3785 89.0547 41.6129 89.0547 40.6362V19.5704C89.0547 18.6201 89.8202 17.8281 90.797 17.8281C91.7737 17.8281 92.5393 18.5937 92.5393 19.5704V40.6362C92.5393 41.5866 91.7737 42.3785 90.797 42.3785Z" fill="#C32226"/>
<path d="M87.782 59.9924H69.8048C68.8545 59.9924 68.0625 59.2268 68.0625 58.2501C68.0625 57.2734 68.8281 56.5078 69.8048 56.5078H87.782C88.7323 56.5078 89.5243 57.2734 89.5243 58.2501C89.5243 59.2268 88.7587 59.9924 87.782 59.9924Z" fill="#C32226"/>
<path d="M87.782 68.1174H69.8048C68.8545 68.1174 68.0625 67.3518 68.0625 66.3751C68.0625 65.3984 68.8281 64.6328 69.8048 64.6328H87.782C88.7323 64.6328 89.5243 65.3984 89.5243 66.3751C89.5243 67.3518 88.7587 68.1174 87.782 68.1174Z" fill="#C32226"/>
<path d="M87.782 76.2541H69.8048C68.8545 76.2541 68.0625 75.4885 68.0625 74.5118C68.0625 73.5351 68.8281 72.7695 69.8048 72.7695H87.782C88.7323 72.7695 89.5243 73.5351 89.5243 74.5118C89.5243 75.4885 88.7587 76.2541 87.782 76.2541Z" fill="#C32226"/>
<path d="M29.364 59.9924H11.3868C10.4365 59.9924 9.64453 59.2268 9.64453 58.2501C9.64453 57.2734 10.4101 56.5078 11.3868 56.5078H29.364C30.3144 56.5078 31.1063 57.2734 31.1063 58.2501C31.1063 59.2268 30.3408 59.9924 29.364 59.9924Z" fill="#C32226"/>
<path d="M29.364 68.1174H11.3868C10.4365 68.1174 9.64453 67.3518 9.64453 66.3751C9.64453 65.3984 10.4101 64.6328 11.3868 64.6328H29.364C30.3144 64.6328 31.1063 65.3984 31.1063 66.3751C31.1063 67.3518 30.3408 68.1174 29.364 68.1174Z" fill="#C32226"/>
<path d="M29.364 76.2541H11.3868C10.4365 76.2541 9.64453 75.4885 9.64453 74.5118C9.64453 73.5351 10.4101 72.7695 11.3868 72.7695H29.364C30.3144 72.7695 31.1063 73.5351 31.1063 74.5118C31.1063 75.4885 30.3408 76.2541 29.364 76.2541Z" fill="#C32226"/>
</svg>
