<svg width="100" height="100" viewBox="0 0 100 100" fill="none" xmlns="http://www.w3.org/2000/svg">
<path d="M50.1758 4C36.1512 4 22.8599 10.4394 14.1518 21.3474V18.4142C14.1518 17.6121 13.5102 16.9705 12.7081 16.9705C11.906 16.9705 11.2644 17.6121 11.2644 18.4142V25.6098C11.2644 26.0452 11.4477 26.4577 11.7915 26.7327C12.0435 26.939 12.3644 27.0535 12.7081 27.0535C12.7998 27.0535 12.8914 27.0535 12.9831 27.0306L20.1787 25.5869C20.9579 25.4265 21.462 24.6703 21.3016 23.8911C21.1412 23.112 20.385 22.6078 19.6058 22.7682L16.1226 23.4557C24.3036 13.0518 36.8616 6.88742 50.1529 6.88742C73.9856 6.88742 93.3955 26.2744 93.3955 50.13C93.3955 73.9856 74.0085 93.3726 50.1529 93.3726C26.2973 93.3726 6.91035 73.9856 6.91035 50.13C6.91035 46.3489 7.39158 42.5906 8.35405 38.9699C8.5603 38.1907 8.10198 37.4116 7.32284 37.2054C6.56661 36.9991 5.76454 37.4574 5.55829 38.2366C4.52707 42.1094 4 46.0968 4 50.13C4 75.5668 24.6932 96.26 50.13 96.26C75.5668 96.26 96.26 75.5668 96.26 50.13C96.26 24.6932 75.5668 4 50.13 4H50.1758Z" fill="#C32226"/>
<path d="M50.1737 77.4959C65.2754 77.4959 77.5584 65.2129 77.5584 50.1112C77.5584 35.0096 65.2754 22.7266 50.1737 22.7266C35.0721 22.7266 22.7891 35.0096 22.7891 50.1112C22.7891 65.2129 35.0721 77.4959 50.1737 77.4959ZM50.1737 25.614C63.6942 25.614 74.671 36.6137 74.671 50.1112C74.671 63.6088 63.6713 74.6085 50.1737 74.6085C36.6762 74.6085 25.6765 63.6088 25.6765 50.1112C25.6765 36.6137 36.6762 25.614 50.1737 25.614Z" fill="#C32226"/>
<path d="M42.9789 60.2071C42.1768 60.2071 41.5352 60.8488 41.5352 61.6508C41.5352 62.4529 42.1768 63.0945 42.9789 63.0945H48.7537V64.5382C48.7537 65.3403 49.3954 65.9819 50.1974 65.9819C50.9995 65.9819 51.6411 65.3403 51.6411 64.5382V63.0945C55.6056 63.0945 58.8368 59.8634 58.8368 55.8989C58.8368 51.9344 55.6056 48.7032 51.6411 48.7032V40.0639H57.416C58.218 40.0639 58.8597 39.4223 58.8597 38.6202C58.8597 37.8181 58.218 37.1765 57.416 37.1765H51.6411V35.7328C51.6411 34.9307 50.9995 34.2891 50.1974 34.2891C49.3954 34.2891 48.7537 34.9307 48.7537 35.7328V37.1765C44.7892 37.1765 41.5581 40.4076 41.5581 44.3721C41.5581 48.3366 44.7892 51.5678 48.7537 51.5678V60.2071H42.9789ZM44.4226 44.3492C44.4226 41.9659 46.3704 40.0181 48.7537 40.0181V48.6574C46.3704 48.6574 44.4226 46.7096 44.4226 44.3263V44.3492ZM51.6182 51.5448C54.0015 51.5448 55.9494 53.4927 55.9494 55.876C55.9494 58.2592 54.0015 60.2071 51.6182 60.2071V51.5678V51.5448Z" fill="#C32226"/>
<path d="M50.1725 86.1535C69.949 86.1535 86.1965 70.0665 86.1965 50.1295C86.1965 30.1925 70.0178 14.1055 50.1725 14.1055C30.3272 14.1055 14.1484 30.2842 14.1484 50.1295C14.1484 69.9748 30.3272 86.1535 50.1725 86.1535ZM32.3667 22.1719L33.0542 23.3865C33.3292 23.8448 33.8104 24.0969 34.3146 24.0969C34.5666 24.0969 34.7958 24.0281 35.025 23.9135C35.7124 23.524 35.9416 22.6302 35.552 21.9428L34.8645 20.7282C39.0353 18.5512 43.7331 17.2221 48.7288 17.0158V18.4137C48.7288 19.2157 49.3704 19.8574 50.1725 19.8574C50.9745 19.8574 51.6162 19.2157 51.6162 18.4137V17.0158C56.589 17.2221 61.3097 18.5512 65.4804 20.7282L64.7929 21.9428C64.4033 22.6302 64.6325 23.524 65.32 23.9135C65.5491 24.051 65.8012 24.0969 66.0304 24.0969C66.5345 24.0969 67.0158 23.8448 67.2908 23.3865L67.9782 22.1719C72.0573 24.7843 75.5176 28.2447 78.13 32.3237L76.9155 33.0112C76.228 33.4008 75.9989 34.2945 76.3884 34.982C76.6634 35.4403 77.1446 35.6924 77.6488 35.6924C77.9009 35.6924 78.13 35.6236 78.3592 35.5091L79.5738 34.8216C81.7508 38.9923 83.0799 43.713 83.2862 48.6858H81.8883C81.0862 48.6858 80.4446 49.3274 80.4446 50.1295C80.4446 50.9316 81.0862 51.5732 81.8883 51.5732H83.2862C83.0799 56.546 81.7508 61.2667 79.5738 65.4374L78.3592 64.7499C77.6717 64.3604 76.778 64.5895 76.3884 65.277C75.9989 65.9645 76.228 66.8582 76.9155 67.2478L78.13 67.9353C75.5176 72.0143 72.0573 75.4746 67.9782 78.0871L67.2908 76.8725C66.9012 76.185 66.0075 75.9559 65.32 76.3454C64.6325 76.735 64.4033 77.6287 64.7929 78.3162L65.4804 79.5308C61.3097 81.7078 56.6119 83.0369 51.6162 83.2432V81.8453C51.6162 81.0432 50.9745 80.4016 50.1725 80.4016C49.3704 80.4016 48.7288 81.0432 48.7288 81.8453V83.2432C43.756 83.0369 39.0353 81.7078 34.8645 79.5308L35.552 78.3162C35.9416 77.6287 35.7124 76.735 35.025 76.3454C34.3375 75.9559 33.4437 76.185 33.0542 76.8725L32.3667 78.0871C28.2876 75.4746 24.8273 72.0143 22.2149 67.9353L23.4294 67.2478C24.1169 66.8582 24.3461 65.9645 23.9565 65.277C23.5669 64.5895 22.6732 64.3604 21.9857 64.7499L20.7712 65.4374C18.5941 61.2667 17.265 56.546 17.0588 51.5732H18.4567C19.2587 51.5732 19.9004 50.9316 19.9004 50.1295C19.9004 49.3274 19.2587 48.6858 18.4567 48.6858H17.0588C17.265 43.713 18.5941 38.9923 20.7712 34.8216L21.9857 35.5091C22.2149 35.6466 22.467 35.6924 22.6961 35.6924C23.2003 35.6924 23.6815 35.4403 23.9565 34.982C24.3461 34.2945 24.1169 33.4008 23.4294 33.0112L22.2149 32.3237C24.8273 28.2447 28.2876 24.7843 32.3667 22.1719Z" fill="#C32226"/>
</svg>
