<svg width="100" height="100" viewBox="0 0 100 100" fill="none" xmlns="http://www.w3.org/2000/svg">
<path d="M46.939 24.4925V6.67513H41.9493L37.9475 20.0256C37.8208 20.4798 37.4662 20.8079 37.061 20.9341C35.44 21.565 33.8696 22.2969 32.3499 23.1802C30.8302 24.0635 29.3612 25.0477 28.0441 26.1834C27.7148 26.461 27.2589 26.5367 26.8537 26.461L13.2777 23.3316L7.07225 34.1079L16.6717 44.2027C16.9756 44.5308 17.0769 44.9851 17.0009 45.4141C16.7223 47.1302 16.5704 48.8968 16.5957 50.6129C16.5957 52.3543 16.773 54.0957 17.0516 55.8622C17.1529 56.3165 16.9756 56.7455 16.6717 57.0736L7.17354 67.1685L13.455 77.9195L27.031 74.6891C27.4615 74.5882 27.9175 74.6891 28.2467 74.9667C28.9559 75.522 29.6398 76.0519 30.349 76.5314C31.0582 77.0109 31.7927 77.4652 32.5779 77.9195C33.363 78.3738 34.1482 78.7775 34.9081 79.1309C35.6932 79.4842 36.4784 79.8375 37.3396 80.1403C37.8208 80.317 38.1248 80.6956 38.2007 81.1246L42.228 94.2984H46.9644V76.4557C45.166 76.3548 43.3677 76.1024 41.6201 75.6229C39.4672 75.0425 37.3649 74.1844 35.3386 73.0487C29.0825 69.4651 24.8527 63.711 23.1051 57.2503C21.3827 50.8401 22.0666 43.7484 25.6632 37.5149C28.0441 33.4012 31.3621 30.1456 35.1867 27.95C38.758 25.8806 42.8105 24.6944 46.939 24.4673V24.4925ZM46.939 68.2789V32.6694C44.2542 32.8712 41.6454 33.6788 39.3152 35.0416C36.681 36.5559 34.4015 38.7767 32.7805 41.6033C30.3236 45.8936 29.8171 50.7391 31.0328 55.1556C32.2233 59.5721 35.1107 63.5091 39.3912 65.9823C40.7842 66.7647 42.228 67.3451 43.697 67.7489C44.7608 68.0265 45.8499 68.2284 46.939 68.3041V68.2789ZM62.6932 13.4639C62.212 12.9844 61.5281 12.6816 60.743 12.6816C59.9578 12.6816 59.2993 12.9844 58.818 13.4639C58.3368 13.9687 58.0075 14.6501 58.0075 15.4072C58.0075 16.1643 58.3368 16.8457 58.818 17.3504C59.2993 17.8299 59.9831 18.1328 60.743 18.1328C61.5028 18.1328 62.1867 17.8299 62.6932 17.3504C63.1745 16.8709 63.5038 16.1643 63.5038 15.4072C63.5038 14.6501 63.1745 13.9687 62.6932 13.4639ZM62.6932 83.5978C62.212 83.1183 61.5281 82.8155 60.743 82.8155C59.9578 82.8155 59.2993 83.1183 58.818 83.5978C58.3368 84.1026 58.0075 84.784 58.0075 85.5411C58.0075 86.2982 58.3368 86.9796 58.818 87.4843C59.2993 87.9638 59.9831 88.2667 60.743 88.2667C61.5028 88.2667 62.1867 87.9638 62.6932 87.4843C63.1745 86.9796 63.5038 86.2982 63.5038 85.5411C63.5038 84.784 63.1745 84.1026 62.6932 83.5978ZM79.6126 23.5335C79.1313 23.054 78.4221 22.7512 77.6623 22.7512C76.9024 22.7512 76.2186 23.054 75.7373 23.5335C75.2308 24.0383 74.9268 24.7197 74.9268 25.4768C74.9268 26.2339 75.2308 26.9153 75.7373 27.42C76.2186 27.8995 76.9024 28.2024 77.6623 28.2024C78.4221 28.2024 79.106 27.8995 79.6126 27.42C80.0938 26.9405 80.3977 26.2339 80.3977 25.4768C80.3977 24.7197 80.0938 24.0383 79.6126 23.5335ZM77.6623 78.1718C78.4221 78.1718 79.106 77.869 79.6126 77.3895C80.0938 76.8848 80.3977 76.2034 80.3977 75.4462C80.3977 74.6891 80.0938 74.0077 79.6126 73.503C79.1313 73.0235 78.4221 72.7206 77.6623 72.7206C76.9024 72.7206 76.2186 73.0235 75.7373 73.503C75.2308 73.9825 74.9268 74.6891 74.9268 75.4462C74.9268 76.2034 75.2308 76.8848 75.7373 77.3895C76.2186 77.869 76.9024 78.1718 77.6623 78.1718ZM92.4793 48.2911C91.9981 47.7864 91.2889 47.4835 90.5291 47.4835C89.7692 47.4835 89.0853 47.7864 88.6041 48.2911C88.0975 48.7706 87.7936 49.452 87.7936 50.2091C87.7936 50.9662 88.0975 51.6476 88.6041 52.1524C89.0853 52.6319 89.7692 52.9347 90.5291 52.9347C91.2889 52.9347 91.9728 52.6319 92.4793 52.1524C92.9606 51.6729 93.2898 50.9662 93.2898 50.2091C93.2898 49.452 92.9606 48.7706 92.4793 48.2911ZM90.5291 44.7579C92.0488 44.7579 93.4165 45.3636 94.4043 46.3479C95.3921 47.3321 96 48.6949 96 50.2091C96 51.7234 95.3668 53.0862 94.4043 54.0704C93.4165 55.0547 92.0488 55.6604 90.5291 55.6604C89.0094 55.6604 87.667 55.0294 86.6538 54.0704C86.0206 53.4395 85.5647 52.6571 85.2861 51.8243H49.6238V55.5089H77.637C78.3968 55.5089 79.0047 56.1146 79.0047 56.8717V70.1717C79.9672 70.4241 80.8283 70.9036 81.5122 71.585C82.5 72.5692 83.1079 73.9572 83.1079 75.4462C83.1079 76.9352 82.4747 78.3233 81.5122 79.3075C80.5244 80.2918 79.1313 80.8975 77.637 80.8975C76.1426 80.8975 74.7495 80.2918 73.7617 79.3075C72.7739 78.3233 72.166 76.9605 72.166 75.4462C72.166 73.932 72.7739 72.5692 73.7617 71.585C74.4456 70.9036 75.3068 70.4241 76.2692 70.1717V58.2345H49.6238V61.9192H69.152C69.9118 61.9192 70.5197 62.5248 70.5197 63.282C70.5197 64.0391 69.8865 64.6448 69.152 64.6448H49.6238V68.3294H60.6923C61.4775 68.3294 62.06 68.9351 62.06 69.6922V80.2918C63.0225 80.5441 63.8837 81.0236 64.5675 81.7303C65.5553 82.7145 66.1632 84.0773 66.1632 85.5916C66.1632 87.1058 65.53 88.4686 64.5675 89.4528C63.6051 90.4371 62.212 91.0428 60.6923 91.0428C59.1726 91.0428 57.8302 90.4371 56.8171 89.4528C55.8293 88.4686 55.2214 87.1058 55.2214 85.5916C55.2214 84.0773 55.8546 82.7145 56.8171 81.7303C57.5009 81.0236 58.3621 80.5441 59.3246 80.2918V71.0802H48.1041C46.3565 71.0802 44.6088 70.8279 42.9118 70.3736C41.2148 69.9193 39.5685 69.2379 37.9475 68.3546C33.0084 65.5281 29.6651 60.9601 28.2974 55.8622C26.9043 50.7896 27.4615 45.187 30.3236 40.2657C32.1979 37.0101 34.8321 34.4612 37.8715 32.6946C40.9869 30.9028 44.5328 29.9437 48.1041 29.9185H59.3246V20.707C58.3621 20.4546 57.5009 19.9498 56.8171 19.2684C55.8293 18.2842 55.2214 16.9214 55.2214 15.4072C55.2214 13.8929 55.8546 12.5301 56.8171 11.5459C57.8049 10.5616 59.1726 9.95595 60.6923 9.95595C62.212 9.95595 63.5797 10.5616 64.5675 11.5459C65.5553 12.5301 66.1632 13.8929 66.1632 15.4072C66.1632 16.9214 65.53 18.2842 64.5675 19.2684C63.8837 19.9498 63.0225 20.4546 62.06 20.707V31.3065C62.06 32.0637 61.4522 32.6694 60.6923 32.6694H49.6238V36.354H69.152C69.9118 36.354 70.5197 36.9849 70.5197 37.7168C70.5197 38.4486 69.8865 39.0796 69.152 39.0796H49.6238V42.7642H76.2692V30.827C75.3068 30.5747 74.4456 30.0952 73.7617 29.4138C72.7739 28.4295 72.166 27.0415 72.166 25.5525C72.166 24.0635 72.7739 22.6755 73.7617 21.6912C74.7495 20.707 76.1173 20.1013 77.637 20.1013C79.1567 20.1013 80.5244 20.707 81.5122 21.6912C82.5 22.6755 83.1079 24.0383 83.1079 25.5525C83.1079 27.0667 82.4747 28.4295 81.5122 29.4138C80.8283 30.0952 79.9672 30.5747 79.0047 30.827V44.127C79.0047 44.8841 78.3715 45.4898 77.637 45.4898H49.6238V49.1997H85.1341C85.3621 48.1397 85.894 47.1807 86.6285 46.4488C87.6163 45.4646 88.984 44.8589 90.5037 44.8589L90.5291 44.7579ZM49.6492 25.7796C49.6492 26.5367 49.0159 27.1424 48.2814 27.1424C48.2561 27.1424 48.2054 27.1424 48.1801 27.1424C44.1022 27.1677 40.0751 28.2781 36.5544 30.3223C33.1351 32.2908 30.1717 35.1678 28.0441 38.8272C28.0441 38.8524 28.0188 38.8777 27.9934 38.9282C24.8021 44.5056 24.1942 50.8401 25.7392 56.5689C27.3096 62.2977 31.0582 67.4713 36.6304 70.6512C36.6557 70.6512 36.7064 70.6764 36.7317 70.7017C38.53 71.7364 40.379 72.4935 42.2786 72.9982C44.2289 73.503 46.2045 73.7806 48.1801 73.7806H48.2814C49.0413 73.7806 49.6492 74.4115 49.6492 75.1434V95.6359C49.6492 96.393 49.0159 96.9987 48.2814 96.9987H41.1895C40.6069 97.024 40.0497 96.6706 39.8724 96.065L35.6932 82.4622C35.06 82.2098 34.3762 81.9069 33.6923 81.6041C32.8058 81.2003 31.97 80.7713 31.1595 80.2918C30.349 79.8123 29.5385 79.3075 28.728 78.7775C28.1201 78.3485 27.5375 77.9195 26.9803 77.4904L13.075 80.7965C12.5178 80.9227 11.8846 80.6956 11.5554 80.1656L4.31145 67.6984C3.98218 67.1937 4.05816 66.5123 4.46341 66.058L14.2401 55.6351C13.9869 53.9947 13.8349 52.3038 13.8349 50.6129C13.8349 48.922 13.9362 47.2816 14.1895 45.5907L4.4381 35.294C3.98219 34.8902 3.85555 34.1836 4.18482 33.6284L11.4034 21.1108C11.7073 20.606 12.2899 20.3284 12.8977 20.4546L26.8537 23.6849C28.1707 22.625 29.5638 21.666 31.0075 20.8584C32.4765 20.0256 33.9962 19.2937 35.5413 18.6628L39.6191 4.98425C39.7964 4.42903 40.3283 4.02524 40.9109 4.02524H48.1801C48.1801 4.02524 48.2561 4 48.2814 4C49.0413 4 49.6492 4.63093 49.6492 5.3628V25.8553V25.7796Z" fill="#C32226"/>
</svg>
