<svg width="100" height="100" viewBox="0 0 100 100" fill="none" xmlns="http://www.w3.org/2000/svg">
<path d="M96.3419 40.9466C96.3419 34.1753 91.6396 28.2639 85.1907 26.6248C84.5727 20.7133 79.9241 15.9841 74.0664 15.2049C73.2066 8.89039 67.8057 4 61.2493 4C56.547 4 52.4359 6.52581 50.1788 10.3145C47.9217 6.55268 43.8105 4 39.1082 4C32.5787 4 27.1509 8.89039 26.2911 15.2049C20.4602 15.9841 15.8654 20.6596 15.1937 26.6248C8.7448 28.237 4.01562 34.1484 4.01562 40.9466C4.01562 44.3591 5.17104 47.5567 7.26693 50.19C5.17104 52.7964 4.01562 56.0208 4.01562 59.4334C4.01562 66.2047 8.71793 72.1161 15.1668 73.7552C15.7848 79.6667 20.4334 84.3959 26.2911 85.1751C27.1509 91.4896 32.5519 96.38 39.1082 96.38C43.8105 96.38 47.9217 93.8542 50.1788 90.0655C52.4359 93.8273 56.547 96.38 61.2493 96.38C67.7788 96.38 73.2066 91.4896 74.0664 85.1751C79.8973 84.3959 84.4921 79.7204 85.1639 73.7552C91.6127 72.143 96.3419 66.2316 96.3419 59.4334C96.3419 56.0208 95.1865 52.8233 93.0906 50.19C95.1865 47.5836 96.3419 44.3591 96.3419 40.9466ZM39.1082 92.645C34.0297 92.645 29.8648 88.507 29.8648 83.4017C29.8648 82.3806 29.0319 81.5476 28.0108 81.5476C22.9323 81.5476 18.7674 77.4096 18.7674 72.1699C18.7674 71.2563 18.0957 70.4771 17.1821 70.3427C11.7811 69.5903 7.69686 64.8612 7.69686 59.4065C7.69686 56.397 8.87915 53.6025 11.0288 51.5066C11.3781 51.1573 11.593 50.6737 11.593 50.19C11.593 49.7063 11.405 49.2227 11.0288 48.8734C8.87915 46.7775 7.69686 43.9561 7.69686 40.9735C7.69686 35.492 11.7811 30.7897 17.1821 30.0373C18.0957 29.9029 18.7674 28.9894 18.7674 28.0489C18.7674 22.9704 22.9054 18.8055 28.0108 18.8055C29.0319 18.8055 29.8648 17.9725 29.8648 16.9515C29.8648 11.873 34.0029 7.7081 39.1082 7.7081C44.2136 7.7081 48.3516 11.8461 48.3516 16.9515V26.2755C38.5171 27.2159 30.8053 35.492 30.8053 45.5683C30.8053 51.6679 33.5998 57.2838 38.4633 60.9919C38.8664 61.3143 39.1082 61.8248 39.1082 62.3891V63.1146C39.1082 64.9955 40.2636 66.6346 41.8759 67.3332V69.5635C41.8759 72.1161 43.9449 74.1852 46.4975 74.1852H48.3516V83.4285C48.3516 88.507 44.2136 92.6719 39.1082 92.6719V92.645ZM49.6682 64.0282L48.2441 53.8712H52.1672L50.743 64.0282H49.6682ZM54.8273 67.7094V69.5635C54.8273 70.074 54.4243 70.4771 53.9137 70.4771H46.5244C46.0139 70.4771 45.6108 70.074 45.6108 69.5635V67.7094H54.8542H54.8273ZM89.3287 51.4798C91.4784 53.5757 92.6607 56.397 92.6607 59.3796C92.6607 64.8612 88.5764 69.5635 83.1755 70.3158C82.2619 70.4502 81.5901 71.3638 81.5901 72.3042C81.5901 77.3827 77.4521 81.5476 72.3467 81.5476C71.3257 81.5476 70.4927 82.3806 70.4927 83.4017C70.4927 88.4801 66.3547 92.645 61.2493 92.645C56.144 92.645 52.0059 88.507 52.0059 83.4017V74.1583H53.86C56.4127 74.1583 58.4817 72.0893 58.4817 69.5366V67.3064C60.1208 66.5809 61.2493 64.9687 61.2493 63.0877V62.3622C61.2493 61.7711 61.4912 61.2606 61.9211 60.9381C64.5006 58.9766 66.5428 56.397 67.8325 53.495C68.2625 52.5546 67.8325 51.4798 66.8921 51.0499C65.9516 50.6468 64.8768 51.0498 64.4469 51.9903C63.3989 54.328 61.733 56.397 59.664 57.9824C58.3204 59.0034 57.5412 60.5888 57.5412 62.3354V63.0609C57.5412 63.5714 57.1382 63.9744 56.6276 63.9744H54.4243L55.8484 53.8175H57.5412C58.5623 53.8175 59.3953 52.9845 59.3953 51.9634C59.3953 50.9424 58.5623 50.1094 57.5412 50.1094H56.3858L56.6008 48.524C56.7351 47.503 56.0365 46.5894 55.0423 46.4282C54.0212 46.2669 53.1076 46.9924 52.9464 47.9866L52.6508 50.0825H47.6798L47.3842 47.9866C47.2499 46.9656 46.3094 46.2669 45.2884 46.4282C44.2673 46.5625 43.5687 47.503 43.7299 48.524L43.9449 50.1094H42.7894C41.7684 50.1094 40.9354 50.9424 40.9354 51.9634C40.9354 52.9845 41.7684 53.8175 42.7894 53.8175H44.4823L45.9064 63.9744H43.703C43.1925 63.9744 42.7894 63.5714 42.7894 63.0609V62.3354C42.7894 60.5888 42.0102 59.0034 40.6667 57.9824C36.7167 54.9729 34.4597 50.4318 34.4597 45.5146C34.4597 36.8623 41.4997 29.8223 50.1519 29.8223C56.3052 29.8223 61.9211 33.4498 64.4737 39.0657C64.9037 39.9793 65.9785 40.4092 66.9189 39.9793C67.8594 39.5494 68.2625 38.4746 67.8325 37.5341C64.9574 31.1658 58.8579 26.8935 52.0059 26.2217V16.8977C52.0059 11.8192 56.144 7.65435 61.2493 7.65435C66.3547 7.65435 70.4927 11.7924 70.4927 16.8977C70.4927 17.9188 71.3257 18.7518 72.3467 18.7518C77.4252 18.7518 81.5901 22.8898 81.5901 28.1295C81.5901 29.0431 82.2619 29.8223 83.1755 29.9567C88.5764 30.7359 92.6607 35.4382 92.6607 40.8929C92.6607 43.9024 91.4784 46.6969 89.3287 48.7927C88.9794 49.1421 88.7645 49.6257 88.7645 50.1094C88.7645 50.5931 88.9526 51.0767 89.3287 51.426V51.4798Z" fill="#C32226"/>
<path d="M18.7956 52.0195C14.7113 52.0195 11.4062 55.3246 11.4062 59.4089C11.4062 60.4299 12.2392 61.2629 13.2603 61.2629C14.2814 61.2629 15.1144 60.4299 15.1144 59.4089C15.1144 57.3667 16.7803 55.7276 18.7956 55.7276C19.8166 55.7276 20.6496 54.8946 20.6496 53.8736C20.6496 52.8525 19.8166 52.0195 18.7956 52.0195Z" fill="#C32226"/>
<path d="M42.7887 81.5781C41.7676 81.5781 40.9347 82.4111 40.9347 83.4322C40.9347 84.4532 40.1017 85.2862 39.0806 85.2862C38.0595 85.2862 37.2266 86.1192 37.2266 87.1403C37.2266 88.1613 38.0595 88.9943 39.0806 88.9943C42.1438 88.9943 44.6159 86.5222 44.6159 83.459C44.6159 82.438 43.7829 81.605 42.7618 81.605L42.7887 81.5781Z" fill="#C32226"/>
<path d="M26.1783 64.9414C25.1572 64.9414 24.3242 65.7744 24.3242 66.7955C24.3242 67.8165 25.1572 68.6495 26.1783 68.6495C28.2204 68.6495 29.8595 70.3155 29.8595 72.3307C29.8595 73.3518 30.6925 74.1848 31.7135 74.1848C32.7346 74.1848 33.5676 73.3518 33.5676 72.3307C33.5676 68.2465 30.2625 64.9414 26.1783 64.9414Z" fill="#C32226"/>
<path d="M18.7956 33.5586C14.7113 33.5586 11.4062 36.8636 11.4062 40.9479C11.4062 41.969 12.2392 42.802 13.2603 42.802C14.2814 42.802 15.1144 41.969 15.1144 40.9479C15.1144 38.9058 16.7803 37.2667 18.7956 37.2667C19.8166 37.2667 20.6496 36.4337 20.6496 35.4126C20.6496 34.3916 19.8166 33.5586 18.7956 33.5586Z" fill="#C32226"/>
<path d="M29.8658 26.1652C33.9501 26.1652 37.2551 22.8602 37.2551 18.7759C37.2551 17.7548 36.4221 16.9219 35.401 16.9219C34.38 16.9219 33.547 17.7548 33.547 18.7759C33.547 20.8181 31.881 22.4572 29.8658 22.4572C28.8447 22.4572 28.0117 23.2901 28.0117 24.3112C28.0117 25.3323 28.8447 26.1652 29.8658 26.1652Z" fill="#C32226"/>
<path d="M81.5689 52.0195C80.5478 52.0195 79.7148 52.8525 79.7148 53.8736C79.7148 54.8946 80.5478 55.7276 81.5689 55.7276C83.611 55.7276 85.2501 57.3936 85.2501 59.4089C85.2501 60.4299 86.0831 61.2629 87.1042 61.2629C88.1252 61.2629 88.9582 60.4299 88.9582 59.4089C88.9582 55.3246 85.6532 52.0195 81.5689 52.0195Z" fill="#C32226"/>
<path d="M61.2496 85.255C60.2286 85.255 59.3956 84.422 59.3956 83.4009C59.3956 82.3798 58.5626 81.5469 57.5415 81.5469C56.5205 81.5469 55.6875 82.3798 55.6875 83.4009C55.6875 86.4641 58.1596 88.9362 61.2228 88.9362C62.2438 88.9362 63.0768 88.1032 63.0768 87.0822C63.0768 86.0611 62.2438 85.2281 61.2228 85.2281L61.2496 85.255Z" fill="#C32226"/>
<path d="M74.1706 64.9414C70.0863 64.9414 66.7812 68.2465 66.7812 72.3307C66.7812 73.3518 67.6142 74.1848 68.6353 74.1848C69.6564 74.1848 70.4894 73.3518 70.4894 72.3307C70.4894 70.2886 72.1553 68.6495 74.1706 68.6495C75.1916 68.6495 76.0246 67.8165 76.0246 66.7955C76.0246 65.7744 75.1916 64.9414 74.1706 64.9414Z" fill="#C32226"/>
<path d="M81.5689 33.5586C80.5478 33.5586 79.7148 34.3916 79.7148 35.4126C79.7148 36.4337 80.5478 37.2667 81.5689 37.2667C83.611 37.2667 85.2501 38.9326 85.2501 40.9479C85.2501 41.969 86.0831 42.802 87.1042 42.802C88.1252 42.802 88.9582 41.969 88.9582 40.9479C88.9582 36.8636 85.6532 33.5586 81.5689 33.5586Z" fill="#C32226"/>
<path d="M72.341 24.3112C72.341 23.2901 71.5081 22.4572 70.487 22.4572C68.4448 22.4572 66.8057 20.7912 66.8057 18.7759C66.8057 17.7548 65.9728 16.9219 64.9517 16.9219C63.9306 16.9219 63.0977 17.7548 63.0977 18.7759C63.0977 22.8602 66.4027 26.1652 70.487 26.1652C71.5081 26.1652 72.341 25.3323 72.341 24.3112Z" fill="#C32226"/>
<path d="M67.7251 47.4268C68.7491 47.4268 69.5792 46.5968 69.5792 45.5728C69.5792 44.5488 68.7491 43.7188 67.7251 43.7188C66.7012 43.7188 65.8711 44.5488 65.8711 45.5728C65.8711 46.5968 66.7012 47.4268 67.7251 47.4268Z" fill="#C32226"/>
</svg>
