<svg width="100" height="100" viewBox="0 0 100 100" fill="none" xmlns="http://www.w3.org/2000/svg">
<path d="M49.4037 21.9793C44.4497 21.9793 40.4141 17.9436 40.4141 12.9896C40.4141 8.03567 44.4497 4 49.4037 4C54.3577 4 58.3934 8.03567 58.3934 12.9896C58.3934 17.9436 54.3577 21.9793 49.4037 21.9793ZM49.4037 6.87572C46.0447 6.87572 43.2898 9.60645 43.2898 12.9896C43.2898 16.3728 46.0205 19.1036 49.4037 19.1036C52.7869 19.1036 55.5176 16.3728 55.5176 12.9896C55.5176 9.60645 52.7869 6.87572 49.4037 6.87572Z" fill="#C32226"/>
<path d="M50.0498 66.533C36.0337 66.533 22.9358 64.648 13.1729 61.2165C12.4237 60.9507 12.0371 60.1291 12.2788 59.3799C12.5446 58.6308 13.3662 58.2441 14.1154 58.4858C23.5883 61.7965 36.3478 63.6331 50.0498 63.6331C63.7517 63.6331 76.2212 61.8448 85.67 58.5824C86.4192 58.3166 87.2408 58.7274 87.5066 59.4766C87.7725 60.2257 87.3617 61.0473 86.6125 61.3132C76.8737 64.6722 63.8967 66.5088 50.0498 66.5088V66.533Z" fill="#C32226"/>
<path d="M6.34017 96.1206C5.66353 96.1206 5.05938 95.6614 4.93856 94.9606C4.31025 91.9157 3.99609 88.7983 3.99609 85.681C3.99609 73.3806 8.78091 61.8052 17.4806 53.1056C26.1802 44.4059 37.7556 39.6211 50.056 39.6211C62.3563 39.6211 73.9317 44.4059 82.6314 53.1056C91.331 61.8052 96.1158 73.3806 96.1158 85.681C96.1158 88.2425 95.8983 90.8041 95.4875 93.2932C95.3667 94.0906 94.6175 94.6223 93.8201 94.4773C93.0226 94.3565 92.5151 93.6073 92.636 92.8098C93.0226 90.4658 93.2159 88.0492 93.2159 85.6568C93.2159 74.1297 88.7211 63.2793 80.5773 55.1355C72.4334 46.9916 61.583 42.4968 50.056 42.4968C38.5289 42.4968 27.6785 46.9916 19.5347 55.1355C11.3908 63.2793 6.89597 74.1297 6.89597 85.6568C6.89597 88.5808 7.18596 91.5049 7.76594 94.3564C7.9351 95.1297 7.42762 95.9031 6.63015 96.0481C6.53349 96.0481 6.43683 96.0722 6.34017 96.0722V96.1206Z" fill="#C32226"/>
<path d="M25.9606 96.1206C25.2356 96.1206 24.6073 95.5647 24.5348 94.8398C24.1965 91.8432 24.0273 88.7742 24.0273 85.681C24.0273 73.5256 26.6372 62.0711 31.422 53.4439C36.3277 44.5267 42.9491 39.6211 50.078 39.6211C57.2069 39.6211 63.8283 44.5267 68.7339 53.4439C73.4946 62.0711 76.1286 73.5256 76.1286 85.681C76.1286 88.1942 76.0078 90.7316 75.7903 93.1965C75.7178 93.994 75.017 94.574 74.2195 94.5015C73.4221 94.429 72.8421 93.7281 72.9146 92.9307C73.1321 90.5624 73.2529 88.1217 73.2529 85.681C73.2529 74.0089 70.7638 63.0377 66.2207 54.8213C61.8467 46.8708 56.1194 42.4968 50.1022 42.4968C44.0849 42.4968 38.3576 46.8708 33.9836 54.8213C29.4646 63.0377 26.9514 74.0089 26.9514 85.681C26.9514 88.6533 27.1205 91.6257 27.4347 94.5015C27.5314 95.2989 26.9514 95.9997 26.1539 96.0964C26.1056 96.0964 26.0331 96.0964 25.9848 96.0964L25.9606 96.1206Z" fill="#C32226"/>
<path d="M50.0593 96.0207C49.2618 96.0207 48.6094 95.3682 48.6094 94.5708V41.0437C48.6094 40.2462 49.2618 39.5938 50.0593 39.5938C50.8568 39.5938 51.5093 40.2462 51.5093 41.0437V94.5708C51.5093 95.3682 50.8568 96.0207 50.0593 96.0207Z" fill="#C32226"/>
<path d="M94.69 87.1069H5.44603C4.64856 87.1069 3.99609 86.4544 3.99609 85.657C3.99609 84.8595 4.64856 84.207 5.44603 84.207H94.69C95.4875 84.207 96.14 84.8595 96.14 85.657C96.14 86.4544 95.4875 87.1069 94.69 87.1069Z" fill="#C32226"/>
<path d="M39.1542 39.4747C39.1542 39.4747 39.0818 39.4747 39.0334 39.4747C38.236 39.4022 37.656 38.7014 37.7285 37.9039L38.1635 32.9258L31.2279 33.7474C29.2946 33.9649 27.3614 33.8441 25.4765 33.3849L11.7986 29.9534C9.47874 29.3493 8.02881 27.126 8.39129 24.7578C8.58462 23.5011 9.28543 22.3895 10.3246 21.6646C11.3637 20.9396 12.6686 20.6979 13.9011 20.9396L26.1048 23.2837C27.9655 23.6461 29.9471 23.5978 31.7837 23.1145L41.5467 20.6496C42.32 20.4563 43.0933 20.9154 43.3108 21.6887C43.5041 22.462 43.0449 23.2353 42.2716 23.4528L32.5087 25.9177C30.2613 26.4977 27.8689 26.5702 25.5731 26.111L13.3694 23.767C13.3694 23.767 13.3694 23.767 13.3453 23.767C12.862 23.6703 12.4028 23.767 11.992 24.0328C11.6053 24.2986 11.3395 24.7094 11.267 25.1927C11.122 26.0869 11.6778 26.9085 12.5478 27.1502L26.2014 30.5817C27.748 30.9684 29.343 31.065 30.9137 30.8717L39.6134 29.8326C40.0484 29.7842 40.4834 29.9292 40.7975 30.2192C41.1117 30.5092 41.2567 30.9442 41.2325 31.3792L40.6525 38.1214C40.58 38.8706 39.9517 39.4505 39.2268 39.4505L39.1542 39.4747Z" fill="#C32226"/>
<path d="M60.1516 39.4779C59.4024 39.4779 58.7741 38.9221 58.7258 38.1488L58.1458 31.4065C58.0975 30.9715 58.2667 30.5366 58.5808 30.2466C58.895 29.9566 59.33 29.8116 59.7649 29.8599L68.4646 30.899C70.0354 31.0924 71.6303 30.9957 73.1769 30.6091L86.8547 27.1775C87.7005 26.96 88.2563 26.1142 88.1113 25.2201C88.0388 24.7368 87.773 24.326 87.3864 24.0601C86.9997 23.7943 86.5164 23.6977 86.0331 23.7943C86.0331 23.7943 86.0331 23.7943 86.0089 23.7943L73.8052 26.1384C71.5336 26.5734 69.1171 26.5009 66.8696 25.9451L57.1067 23.4802C56.3334 23.2868 55.8742 22.4894 56.0676 21.7161C56.2609 20.9428 57.0584 20.4836 57.8317 20.6769L67.5946 23.1418C69.4312 23.601 71.4128 23.6735 73.2736 23.311L85.4531 20.9669C86.6855 20.7011 87.9905 20.9669 89.0296 21.6919C90.0688 22.4169 90.7695 23.5285 90.9629 24.7851C91.3254 27.1292 89.8754 29.3766 87.5555 29.9807L73.8777 33.4123C71.9928 33.8956 70.0595 34.0164 68.1263 33.7748L61.1907 32.9531L61.6257 37.9313C61.6982 38.7287 61.094 39.4295 60.3207 39.502C60.2724 39.502 60.2483 39.502 60.1999 39.502L60.1516 39.4779Z" fill="#C32226"/>
</svg>
