<svg width="100" height="100" viewBox="0 0 100 100" fill="none" xmlns="http://www.w3.org/2000/svg">
<path d="M71.4308 4.0221C72.0717 4.48626 72.3591 5.10513 72.1159 5.87872C71.8507 6.69652 71.1655 6.71863 70.4361 6.71863C64.4463 6.71863 58.4344 6.71863 52.4446 6.71863C48.6208 6.71863 45.7033 9.10572 44.9739 12.7969C44.8855 13.261 44.8855 13.7473 44.8634 14.2114C44.8634 19.0519 44.8634 23.8924 44.8634 28.7329C44.8634 29.3076 45.0623 29.6391 45.4822 29.9927C47.4494 31.6283 48.444 33.7281 48.4661 36.292C48.4661 41.022 48.4661 45.7298 48.4661 50.4598C48.4661 51.145 48.665 51.5428 49.306 51.6755C50.4111 51.8965 51.4942 52.2501 52.5993 52.2722C57.6387 52.3385 62.7002 52.2943 67.7396 52.2943C69.5078 52.2943 69.8394 52.648 69.8615 54.4383C69.8615 55.7644 69.8615 57.1127 69.8615 58.4389C69.8615 58.4831 69.9278 58.5273 69.9941 58.6599C71.6518 57.4 73.3979 56.2728 74.9009 54.8582C77.1111 52.8027 79.5424 51.9186 82.5484 52.2501C84.6482 52.4933 86.5932 51.8302 88.1846 50.3493C89.7539 48.8684 90.5496 47.056 90.5496 44.8899C90.5496 34.6343 90.5496 24.4008 90.5496 14.1451C90.5496 9.98982 87.4331 6.82914 83.2557 6.71863C82.1064 6.69652 80.9349 6.69652 79.7856 6.71863C79.0783 6.71863 78.371 6.71863 78.1058 5.90083C77.8405 5.12723 78.1279 4.50836 78.7688 4.0442H84.6482C86.3059 4.48626 87.9415 4.99462 89.3118 6.09975C91.6768 7.97848 93.0251 10.3877 93.2019 13.3936C93.2903 14.6977 93.2461 16.0017 93.2461 17.3058C93.2461 26.39 93.2461 35.4963 93.2461 44.5805C93.2461 49.421 90.4391 53.4437 86.0627 54.5488C84.2061 55.013 82.1948 54.9245 80.2276 54.9909C79.4982 55.013 78.9457 55.1898 78.371 55.6318C75.4976 57.8642 72.5801 60.0745 69.6846 62.3068C69.1542 62.7268 68.6237 63.0804 67.8943 62.7268C67.1428 62.3731 67.0765 61.7322 67.0765 61.0028C67.0765 59.0356 67.0765 57.0906 67.0765 55.1014C60.8436 54.6593 54.6327 55.5876 48.4661 54.4825V61.0912C48.8197 61.0912 49.1292 61.1354 49.4386 61.1354C52.8645 61.1354 56.2683 61.1354 59.6942 61.1354C63.9822 61.1354 66.5682 63.7214 66.5903 68.0093C66.5903 69.8439 66.5903 71.7005 66.5903 73.535C66.5903 74.6622 66.104 75.2148 65.1978 75.2148C64.2916 75.2148 63.8274 74.6622 63.8274 73.535C63.8274 71.5458 63.8274 69.5565 63.8274 67.5673C63.8274 65.2907 62.435 63.9203 60.1584 63.9203C54.478 63.9203 48.7976 63.9203 43.1393 63.9203C40.907 63.9203 39.5145 65.3128 39.5145 67.5452C39.5145 73.2256 39.5145 78.9059 39.5145 84.5642C39.5145 86.7303 40.9954 88.1891 43.1614 88.1891C46.1011 88.1891 49.0408 88.1891 51.9804 88.1891C53.4834 88.1891 53.8812 88.5869 53.9033 90.0678C53.9033 90.3772 53.9033 90.6867 53.9033 91.2171C55.0748 90.333 56.0252 89.5152 57.0419 88.83C57.5503 88.4985 58.1913 88.3217 58.8101 88.2112C59.6279 88.0786 60.4899 88.2112 61.2856 88.0123C62.7886 87.6807 63.7832 86.3987 63.8274 84.8737C63.8495 84.1001 63.8274 83.3265 63.8274 82.5529C63.8495 81.5362 64.3137 81.0499 65.1757 81.0278C66.0598 81.0278 66.5682 81.5141 66.5682 82.5087C66.5682 83.7464 66.5903 85.0284 66.325 86.2219C65.7062 88.9848 63.2749 90.8635 60.4236 90.8414C59.208 90.8414 58.2797 91.1508 57.3735 91.9244C56.1799 92.9632 54.898 93.8473 53.6602 94.8199C53.1297 95.2398 52.5993 95.483 51.9583 95.1735C51.2731 94.842 51.1184 94.2452 51.1405 93.5379C51.1626 92.6759 51.1405 91.836 51.1405 90.8635C50.1238 90.8635 49.1734 90.8635 48.2451 90.8635C46.6095 90.8635 44.9739 90.7751 43.3383 90.8635C40.0892 91.0624 36.6633 88.5648 36.7075 84.1885C36.7517 79.768 36.7075 75.3253 36.7075 70.9048C36.7075 70.5732 36.7075 70.2638 36.7075 69.7112C36.3538 69.9765 36.0886 70.1312 35.8676 70.3301C34.033 71.7447 32.1985 73.1593 30.364 74.5738C29.8556 74.9717 29.3473 75.3032 28.6621 74.9717C27.9769 74.6401 27.8001 74.0434 27.8222 73.3582C27.8222 71.8994 27.8222 70.4627 27.8222 68.8713C27.4465 68.8713 27.1149 68.8713 26.8055 68.8713C23.2027 68.8713 19.6221 68.8713 16.0194 68.8713C11.842 68.8492 8.59286 66.2853 7.73086 62.3068C7.59824 61.7101 7.57615 61.0691 7.55405 60.4502C7.55405 56.1402 7.55405 51.8302 7.55405 47.5202C7.55405 46.415 7.90768 45.9509 8.76969 45.8846C9.7201 45.8183 10.2727 46.3487 10.2727 47.4096C10.2727 50.1725 10.2727 52.9353 10.2727 55.6981C10.2727 57.3337 10.2727 58.9693 10.2727 60.6049C10.2727 63.6772 12.5492 66.0422 15.6436 66.0864C19.9315 66.1306 24.1973 66.0864 28.4853 66.0864C30.1872 66.0864 30.585 66.4842 30.585 68.1862C30.585 69.0482 30.585 69.8881 30.585 70.9048C30.9387 70.6617 31.1597 70.529 31.3807 70.3522C32.5301 69.4681 33.6794 68.5619 34.8287 67.6778C35.9339 66.8379 36.8622 65.9759 37.4369 64.5834C38.4536 62.1742 40.5754 61.1354 43.1614 61.0912C43.9571 61.0912 44.7528 61.0912 45.659 61.0912C45.659 60.7155 45.7032 60.406 45.7032 60.0966C45.7032 52.2722 45.7032 44.47 45.7032 36.6456C45.7032 33.065 43.3604 30.7442 39.7797 30.7221C31.867 30.7221 23.9763 30.7221 16.0636 30.7221C12.5271 30.7221 10.2285 33.065 10.2285 36.6014C10.2285 37.3971 10.2285 38.2149 10.2285 39.0106C10.2064 39.9168 9.67589 40.4031 8.83599 40.4031C8.01819 40.4031 7.50984 39.9389 7.53194 39.0548C7.55405 37.4192 7.46562 35.7615 7.79716 34.1922C8.54865 30.6779 11.9083 28.0919 15.511 28.0698C23.8216 28.0698 32.1543 28.0698 40.4649 28.0698C40.9512 28.0698 41.4595 28.1361 42.0563 28.2024C42.0563 27.8267 42.0563 27.4951 42.0563 27.1415C42.0563 22.4999 41.99 17.8584 42.1447 13.2389C42.2994 8.81838 45.7475 5.01672 50.1238 4.17682C50.3227 4.13262 50.5216 4.06631 50.6985 4C57.5945 4 64.4905 4 71.3866 4L71.4308 4.0221Z" fill="#C22226"/>
<path d="M24.3317 44.5107C24.5748 43.0077 24.84 41.5489 25.0611 40.0902C25.2379 39.0071 25.8125 38.4104 26.6303 38.5209C27.5145 38.6314 27.9123 39.3387 27.7576 40.4659C27.5587 41.77 27.3597 43.0961 27.1387 44.4665H30.2994C30.5204 43.1182 30.7414 41.77 30.9846 40.4438C31.0288 40.1786 31.073 39.9133 31.1393 39.6702C31.3603 38.8524 31.9571 38.4103 32.6865 38.5651C33.4601 38.7198 33.9242 39.3829 33.7916 40.2449C33.5706 41.6373 33.3274 43.0519 33.0622 44.5328C34.2779 44.5328 35.383 44.5328 36.5102 44.5328C37.7038 44.5328 38.3006 44.997 38.3006 45.9032C38.3006 46.8094 37.748 47.2514 36.5102 47.2514C35.2283 47.2514 33.9684 47.2514 32.6202 47.2514C32.4433 48.3123 32.2886 49.3291 32.0897 50.4563C33.659 50.4563 35.1399 50.4563 36.6207 50.4563C37.6154 50.4563 38.1679 50.8542 38.2784 51.6056C38.4111 52.5561 37.8364 53.197 36.7313 53.2191C35.2725 53.2412 33.8137 53.2412 32.3549 53.2191C31.7582 53.2191 31.5371 53.396 31.4487 53.9927C31.2719 55.3189 31.0509 56.623 30.7856 57.927C30.6088 58.8774 29.99 59.2974 29.1501 59.1427C28.3765 58.9879 27.9786 58.2807 28.1333 57.3523C28.3544 56.0041 28.5975 54.6779 28.8185 53.2633H25.6357C25.3705 54.8105 25.1274 56.3356 24.8621 57.8386C24.6853 58.789 24.1327 59.2532 23.2928 59.1427C22.5192 59.0321 22.0772 58.4575 22.2098 57.5071C22.3866 56.0925 22.6519 54.7 22.8729 53.197C21.6352 53.197 20.4637 53.197 19.2702 53.197C18.4745 53.197 17.8777 52.9097 17.6567 52.0919C17.4356 51.2299 18.0987 50.4784 19.1375 50.4342C20.2869 50.39 21.4583 50.4121 22.6077 50.4342C23.1381 50.4342 23.4034 50.3237 23.4476 49.7048C23.5139 48.9091 23.6907 48.1355 23.8454 47.2293C22.3866 47.2293 21.0163 47.2293 19.668 47.2293C18.2755 47.2293 17.5682 46.7652 17.5903 45.859C17.5903 44.9527 18.2976 44.5107 19.7122 44.5107C21.2152 44.5107 22.7403 44.5107 24.3096 44.5107H24.3317ZM29.3048 50.39C29.4595 49.3512 29.6142 48.3345 29.791 47.2735H26.6525C26.4756 48.3124 26.2988 49.307 26.122 50.39H29.3048Z" fill="#C22226"/>
<path d="M51.6023 70.6827C54.6745 68.5829 58.5646 70.329 59.2056 73.6886C59.6034 75.7221 59.095 77.5787 57.7247 79.148C56.2217 80.8941 54.2767 82.0213 52.2653 83.0602C51.9338 83.237 51.3812 83.2591 51.0718 83.0823C48.9278 81.9771 46.8281 80.8057 45.303 78.8607C44.1094 77.3356 43.6895 75.5673 44.0431 73.6665C44.7062 70.2406 48.5742 68.4503 51.5801 70.6606L51.6023 70.6827ZM56.6195 75.1916C56.6195 73.777 56.067 72.915 55.0945 72.5835C54.144 72.252 53.5915 72.473 52.7958 73.5339C52.1106 74.4622 51.2044 74.3959 50.4308 73.5118C50.0329 73.0697 49.4583 72.5614 48.9057 72.4951C47.4248 72.2741 46.3197 73.7991 46.6955 75.4789C47.248 78.065 49.4804 79.0154 51.4254 80.231C52.42 79.6784 53.4147 79.1701 54.3651 78.5954C54.7187 78.3965 55.0281 78.0871 55.3155 77.7997C56.1112 77.0261 56.5753 76.0978 56.6195 75.2137V75.1916Z" fill="#C22226"/>
<path d="M62.1469 25.6775C63.3625 24.3072 64.6887 22.8484 65.9264 21.3454C67.0094 20.0193 67.4957 18.4721 67.562 16.7481C67.6504 14.4052 69.8607 13.0569 71.7173 14.2063C72.2036 14.4936 72.6235 15.002 72.8888 15.4882C74.3254 18.2068 74.5022 21.0139 73.4855 23.9093C73.375 24.2409 73.2424 24.5724 73.0656 25.0587C75.2095 25.0587 77.243 25.0587 79.2543 25.0587C79.6743 25.0587 80.0942 25.0587 80.4921 25.1692C82.0835 25.5891 83.056 26.8932 83.0781 28.6835C83.0781 30.7612 83.0781 32.8388 83.0781 34.9165C83.0781 36.9278 83.0781 38.9612 83.0781 40.9726C83.0781 43.3376 81.6414 44.8185 79.2764 44.8185C75.2316 44.8185 71.2089 44.8185 67.1642 44.8185C65.3738 44.8185 63.694 44.3985 62.4342 43.647C61.528 43.868 60.887 44.1554 60.246 44.1554C58.1684 44.2217 56.0907 44.1775 54.0131 44.1554C52.7311 44.1554 52.2891 43.7133 52.2891 42.4314C52.2891 37.3035 52.2891 32.1536 52.2891 27.0258C52.2891 25.7218 52.7753 25.2576 54.0794 25.2576C56.1791 25.2576 58.301 25.2355 60.4007 25.2576C60.9312 25.2576 61.4617 25.4786 62.169 25.6333L62.1469 25.6775ZM70.4132 16.5933C70.3469 16.947 70.2806 17.1459 70.2585 17.3227C70.0596 19.953 68.9545 22.1411 67.1863 24.0641C65.617 25.766 64.114 27.5121 62.5889 29.2803C62.3679 29.5455 62.169 29.9434 62.169 30.2749C62.1469 33.3693 62.1469 36.4416 62.169 39.5359C62.169 39.8675 62.39 40.2653 62.6331 40.4863C63.893 41.5694 65.3959 42.0556 67.0536 42.0556C71.0984 42.0556 75.1211 42.0556 79.1659 42.0556C80.2047 42.0556 80.3374 41.9009 80.3374 40.8621C80.3374 36.9057 80.3374 32.9714 80.3374 29.015C80.3374 27.9099 80.1605 27.7331 79.0333 27.7331C76.4252 27.7331 73.8171 27.7331 71.1868 27.7331C69.8828 27.7331 69.3081 26.8711 69.7944 25.6554C70.1701 24.7271 70.5901 23.7988 70.9216 22.8484C71.651 20.7708 71.4742 18.7373 70.369 16.6155L70.4132 16.5933ZM55.074 28.0646V41.3925H59.4282V28.0425C58.1905 28.0425 56.9969 28.0425 55.8255 28.0425C55.5824 28.0425 55.3613 28.0425 55.074 28.0867V28.0646Z" fill="#C22226"/>
</svg>
