<svg width="100" height="100" viewBox="0 0 100 100" fill="none" xmlns="http://www.w3.org/2000/svg">
<path d="M58.3477 94.1377C58.3477 94.1377 58.1328 94.1377 58.0523 94.1377C56.8973 94.0571 55.8497 93.4662 55.1783 92.5261L50.6926 86.3752C50.6926 86.3752 50.4778 86.1334 50.3435 86.0528L43.7628 81.2181C42.8227 80.5197 42.2587 79.4722 42.1781 78.3441C42.0975 77.1891 42.5004 76.061 43.333 75.2552C44.5417 74.0465 46.3145 73.6973 47.8992 74.3957L52.734 76.5176L62.7527 65.7199L63.6122 63.5174L62.7527 65.1559L45.2132 55.8624C44.0314 55.164 43.3062 54.0628 43.1719 52.8003C43.0107 51.5379 43.4405 50.3024 44.3537 49.3891C45.2401 48.5028 46.5025 48.1267 47.7381 48.3953L73.2549 53.7942C73.4161 53.821 73.5504 53.7942 73.6578 53.6867L82.817 43.9634C83.8377 42.8891 85.5567 42.2444 87.5175 42.2176C89.6394 42.1101 91.4122 42.8353 92.5134 43.9097C93.6147 45.011 94.2593 46.8643 94.2056 48.9057C94.1788 50.8664 93.5341 52.5855 92.4597 53.6061L82.7096 62.7922C82.7096 62.7922 82.5484 63.0339 82.5753 63.1682L88.4307 88.9806C88.7262 90.2161 88.3502 91.5054 87.4638 92.4186C86.5774 93.305 85.3419 93.7616 84.0794 93.6005C82.817 93.4393 81.7158 92.7409 81.0443 91.6666L71.2673 73.6167L69.4408 72.2737L70.7032 73.6436L59.9324 83.6623L62.0544 88.4971C62.7259 90.055 62.4035 91.8546 61.1949 93.0633C60.4428 93.8153 59.449 94.2182 58.4014 94.2182L58.3477 94.1377ZM70.945 69.7489C71.133 69.7489 71.321 69.7489 71.509 69.7758C72.7446 69.9369 73.819 70.6353 74.4636 71.6828L84.2406 89.7326L86.1208 91.0219L84.8047 89.7058L78.9224 63.9203C78.5732 62.4967 79.0298 60.9926 80.1311 59.9719L89.8543 50.7859C90.1229 50.5173 90.4184 49.792 90.4452 48.7445C90.4452 47.6433 90.1498 46.73 89.8274 46.4346C89.5051 46.1122 88.5919 45.7631 87.5175 45.8168C86.47 45.8168 85.7448 46.1391 85.4762 46.4077L76.3169 56.131C75.3231 57.1785 73.8458 57.6351 72.4223 57.3397L46.9054 51.9408L46.0459 54.1433L46.9054 52.5049L64.4449 61.7984C65.5999 62.4967 66.2982 63.5711 66.4862 64.8067C66.6474 66.0423 66.2714 67.2778 65.4387 68.191L54.5068 79.9557C53.9696 80.5466 53.1369 80.7077 52.4117 80.3854L46.3682 77.7531C46.2339 77.6994 46.0459 77.7263 45.9385 77.8337L52.546 83.0445C52.9757 83.3668 53.3518 83.7429 53.6741 84.1726L58.1597 90.3236C58.6163 90.243 58.6432 90.055 58.5894 89.8938L55.9572 83.8503C55.6349 83.1251 55.8229 82.2925 56.3869 81.7553L68.1247 70.8502C68.9036 70.1518 69.8975 69.7489 70.9181 69.7489H70.945Z" fill="#C32226"/>
<path d="M42.18 44.0171C41.5085 44.0171 40.837 43.6411 40.5147 42.9965C40.0581 42.0832 40.4341 40.9551 41.3473 40.4985L76.6143 22.8516C77.1784 22.5561 77.8767 22.583 78.4139 22.9321C78.9511 23.2813 79.3003 23.8722 79.3003 24.5169V40.3105C79.3003 41.3311 78.4677 42.1638 77.447 42.1638C76.4263 42.1638 75.5937 41.3311 75.5937 40.3105V27.5252L43.0127 43.8291C42.7441 43.9634 42.4755 44.0171 42.18 44.0171Z" fill="#C32226"/>
<path d="M36.9403 77.4308C36.6448 77.4308 36.3225 77.3502 36.027 77.1891L5.97086 60.4822C5.37995 60.1599 5.00391 59.5421 5.00391 58.8706V24.5169C5.00391 23.8722 5.32621 23.2813 5.89027 22.9321C6.45432 22.583 7.12583 22.5561 7.68989 22.8516L42.9569 40.4985C43.8701 40.9551 44.2461 42.0832 43.7895 42.9965C43.3329 43.9097 42.2048 44.2857 41.2916 43.8291L8.73742 27.5252V57.7694L37.8535 73.939C38.7399 74.4493 39.0622 75.5775 38.5787 76.4638C38.2295 77.0816 37.6118 77.4308 36.9671 77.4308H36.9403Z" fill="#C32226"/>
<path d="M77.444 26.367C77.1754 26.367 76.8799 26.3133 76.6113 26.179L42.1501 8.96183L7.71579 26.179C6.80255 26.6356 5.67444 26.2596 5.21782 25.3463C4.7612 24.4331 5.13726 23.305 6.05049 22.8484L41.3175 5.20145C41.8278 4.93285 42.4456 4.93285 42.9828 5.20145L78.2766 22.8484C79.1899 23.305 79.5659 24.4331 79.1093 25.3463C78.787 25.991 78.1423 26.367 77.444 26.367Z" fill="#C32226"/>
<path d="M23.7478 48.6112C22.7272 48.6112 21.8945 47.7786 21.8945 46.7579V32.9519C21.8945 32.2536 22.2974 31.6089 22.9152 31.2866L58.1822 13.6397C59.0954 13.1831 60.2235 13.5591 60.6801 14.4724C61.1368 15.3856 60.7607 16.5137 59.8475 16.9703L25.628 34.1069V46.7579C25.628 47.7786 24.7954 48.6112 23.7747 48.6112H23.7478Z" fill="#C32226"/>
</svg>
