<svg width="100" height="100" viewBox="0 0 100 100" fill="none" xmlns="http://www.w3.org/2000/svg">
<path d="M49.4261 21.0318C45.0065 21.0318 41.4102 17.4355 41.4102 13.0159C41.4102 8.59633 45.0065 5 49.4261 5C53.8457 5 57.442 8.59633 57.442 13.0159C57.442 17.4355 53.8457 21.0318 49.4261 21.0318ZM49.4261 7.81641C46.5664 7.81641 44.2266 10.1345 44.2266 13.0159C44.2266 15.8973 46.5447 18.2154 49.4261 18.2154C52.3075 18.2154 54.6256 15.8973 54.6256 13.0159C54.6256 10.1345 52.3075 7.81641 49.4261 7.81641Z" fill="#C32226"/>
<path d="M46.5203 45.4459C46.2387 45.4459 45.957 45.4242 45.6754 45.3592H45.6321L36.9446 43.4528C33.9548 42.8245 31.9617 39.8781 32.525 36.8667L34.6481 24.9295C35.0814 22.5464 36.5546 20.5316 38.6777 19.405L43.2056 16.9569C43.8989 16.5886 44.7438 16.8486 45.1121 17.5202C45.4804 18.2135 45.2205 19.0584 44.5489 19.4267L40.0209 21.8748C38.6561 22.6114 37.7245 23.9113 37.4429 25.4278L35.3197 37.365C35.0381 38.8815 36.0347 40.3764 37.5295 40.6797L46.1954 42.5645C46.7587 42.6512 47.3219 42.5212 47.7119 42.1962C47.9069 42.0446 48.1235 41.7629 48.1235 41.3946C48.1235 41.3513 48.1235 41.308 48.1235 41.2646C48.2102 40.4197 47.5602 39.5965 46.9753 39.4665C46.9753 39.4665 46.9536 39.4665 46.932 39.4665L40.9742 37.9066C40.2376 37.7116 39.7826 36.975 39.9559 36.2168L41.5158 29.4357C41.6891 28.6775 42.4474 28.2008 43.2056 28.3742C43.9639 28.5475 44.4405 29.3058 44.2672 30.064L43.0107 35.5018L47.6252 36.7151C49.64 37.1917 51.1132 39.3148 50.9399 41.4813C50.9399 42.5862 50.3983 43.6477 49.5101 44.3843C48.6868 45.0776 47.6036 45.4459 46.5203 45.4459Z" fill="#C32226"/>
<path d="M52.9782 45.4521C51.8733 45.4521 50.7901 45.0838 49.9885 44.3905C49.0786 43.6322 48.5586 42.549 48.5586 41.4224C48.5586 38.9094 49.7935 37.2195 51.895 36.7212C51.895 36.7212 51.895 36.7212 51.9166 36.7212L56.8562 35.703L55.5996 29.7885C55.4263 29.0303 55.9246 28.272 56.6828 28.0987C57.4411 27.9254 58.1994 28.4237 58.3727 29.1819L59.9325 36.4829C60.0192 36.8512 59.9325 37.2412 59.7376 37.5445C59.5209 37.8694 59.2176 38.0861 58.8276 38.1511L52.5016 39.451C52.1333 39.5376 51.375 39.7326 51.375 41.4008C51.375 41.7691 51.5916 42.0291 51.7866 42.2024C52.1766 42.5273 52.7399 42.679 53.3032 42.5707L61.969 40.6859C63.4855 40.3609 64.4821 38.8877 64.2005 37.3712L62.0773 25.4123C61.7957 23.8958 60.8425 22.6175 59.4992 21.8809L54.9713 19.4328C54.2781 19.0645 54.0181 18.198 54.408 17.5264C54.7763 16.8331 55.6429 16.5731 56.3145 16.9631L60.8424 19.4112C62.9656 20.5594 64.4171 22.5742 64.8721 24.9357L66.9952 36.8945C67.5585 39.9059 65.5653 42.8523 62.5539 43.4806L53.8881 45.3654H53.8448C53.5631 45.4087 53.2815 45.4521 52.9999 45.4521H52.9782Z" fill="#C32226"/>
<path d="M49.5315 68.7193C45.1119 68.7193 41.5156 65.123 41.5156 60.7034C41.5156 56.2838 45.1119 52.6875 49.5315 52.6875C53.9511 52.6875 57.5475 56.2838 57.5475 60.7034C57.5475 65.123 53.9511 68.7193 49.5315 68.7193ZM49.5315 55.5039C46.6718 55.5039 44.332 57.822 44.332 60.7034C44.332 63.5848 46.6501 65.9029 49.5315 65.9029C52.4129 65.9029 54.7311 63.5848 54.7311 60.7034C54.7311 57.822 52.4129 55.5039 49.5315 55.5039Z" fill="#C32226"/>
<path d="M38.5455 74.1177C38.3289 74.1177 38.1122 74.0744 37.9172 73.966C37.224 73.6194 36.9423 72.7745 37.289 72.0596L38.6755 69.3082C39.7154 67.2283 41.6219 65.7118 43.875 65.1485L45.4349 64.7586C46.1931 64.5636 46.9514 65.0402 47.1464 65.7985C47.3414 66.5567 46.8647 67.315 46.1065 67.51L44.5466 67.8999C43.0951 68.2682 41.8602 69.2432 41.1886 70.5864L39.8021 73.3378C39.5637 73.8361 39.0655 74.1177 38.5455 74.1177Z" fill="#C32226"/>
<path d="M60.9697 74.1185C60.4497 74.1185 59.9514 73.8369 59.7131 73.3386L58.3266 70.5872C57.655 69.244 56.4417 68.2691 54.9685 67.9008L53.4087 67.5108C52.6504 67.3158 52.1955 66.5576 52.3688 65.7993C52.5638 65.0411 53.322 64.5861 54.0803 64.7594L55.6402 65.1494C57.9149 65.7127 59.7998 67.2292 60.8397 69.309L62.2262 72.0604C62.5728 72.7537 62.2912 73.5986 61.5979 73.9669C61.403 74.0752 61.1863 74.1185 60.9697 74.1185Z" fill="#C32226"/>
<path d="M65.7147 94.1531C64.9348 94.1531 64.3066 93.5248 64.3066 92.7449V76.908C64.3066 75.3698 63.05 74.1133 61.5118 74.1133H38.0057C36.4675 74.1133 35.2109 75.3698 35.2109 76.908V92.7449C35.2109 93.5248 34.5827 94.1531 33.8027 94.1531C33.0228 94.1531 32.3945 93.5248 32.3945 92.7449V76.908C32.3945 73.81 34.9076 71.2969 38.0057 71.2969H61.5118C64.6099 71.2969 67.1229 73.81 67.1229 76.908V92.7449C67.1229 93.5248 66.4947 94.1531 65.7147 94.1531Z" fill="#C32226"/>
<path d="M65.7095 37.1067C64.9295 37.1067 64.3013 36.4785 64.3013 35.6985V15.5721C64.3013 14.0339 63.0447 12.7773 61.5065 12.7773H56.0254C55.2454 12.7773 54.6172 12.1491 54.6172 11.3691C54.6172 10.5892 55.2454 9.96094 56.0254 9.96094H61.5065C64.6046 9.96094 67.1177 12.474 67.1177 15.5721V35.6985C67.1177 36.4785 66.4894 37.1067 65.7095 37.1067Z" fill="#C32226"/>
<path d="M33.8027 37.1067C33.0228 37.1067 32.3945 36.4785 32.3945 35.6985V15.5721C32.3945 12.474 34.9076 9.96094 38.0057 9.96094H42.5119C43.2918 9.96094 43.9201 10.5892 43.9201 11.3691C43.9201 12.1491 43.2918 12.7773 42.5119 12.7773H38.0057C36.4675 12.7773 35.2109 14.0339 35.2109 15.5721V35.6985C35.2109 36.4785 34.5827 37.1067 33.8027 37.1067Z" fill="#C32226"/>
<path d="M93.81 68.7606H63.8262C63.0462 68.7606 62.418 68.1323 62.418 67.3524C62.418 66.5725 63.0462 65.9442 63.8262 65.9442H91.3836L75.4384 37.9102H65.7327C64.9527 37.9102 64.3245 37.2819 64.3245 36.5019C64.3245 35.722 64.9527 35.0938 65.7327 35.0938H76.2617C76.76 35.0938 77.2366 35.3754 77.4966 35.8087L95.0449 66.6591C95.3049 67.0924 95.2832 67.634 95.0449 68.0673C94.7849 68.5006 94.33 68.7606 93.8317 68.7606H93.81Z" fill="#C32226"/>
<path d="M35.7906 68.7606H6.00172C5.50344 68.7606 5.02682 68.5006 4.78851 68.0673C4.5502 67.634 4.52853 67.0924 4.78851 66.6591L22.3369 35.8087C22.5968 35.3754 23.0518 35.0938 23.5717 35.0938H33.3642C34.1441 35.0938 34.7724 35.722 34.7724 36.5019C34.7724 37.2819 34.1441 37.9102 33.3642 37.9102H24.395L8.44982 65.9442H35.8123C36.5922 65.9442 37.2205 66.5725 37.2205 67.3524C37.2205 68.1323 36.5922 68.7606 35.8123 68.7606H35.7906Z" fill="#C32226"/>
<path d="M13.1699 84.6163C12.39 84.6163 11.7617 83.9881 11.7617 83.2081V67.3496C11.7617 66.5697 12.39 65.9414 13.1699 65.9414C13.9498 65.9414 14.5781 66.5697 14.5781 67.3496V83.2081C14.5781 83.9881 13.9498 84.6163 13.1699 84.6163Z" fill="#C32226"/>
<path d="M86.3535 84.6163C85.5736 84.6163 84.9453 83.9881 84.9453 83.2081V67.3496C84.9453 66.5697 85.5736 65.9414 86.3535 65.9414C87.1334 65.9414 87.7617 66.5697 87.7617 67.3496V83.2081C87.7617 83.9881 87.1334 84.6163 86.3535 84.6163Z" fill="#C32226"/>
</svg>
