<svg width="100" height="100" viewBox="0 0 100 100" fill="none" xmlns="http://www.w3.org/2000/svg">
<g clip-path="url(#clip0_2523_14)">
<path d="M94.0289 29.6603C99.0384 40.5043 99.8699 52.8155 96.3641 64.2346C92.8582 75.6537 85.2616 85.3773 75.0302 91.542C64.7987 97.7068 52.6521 99.8789 40.9183 97.6421C29.1844 95.4054 18.6887 88.9171 11.4426 79.4207C4.19655 69.9244 0.709823 58.088 1.65068 46.1799C2.59153 34.2719 7.89378 23.1299 16.5413 14.8893C25.1887 6.64868 36.5731 1.88913 48.5127 1.52281C60.4522 1.15649 72.1069 5.20916 81.2433 12.9041" stroke="white" stroke-width="3"/>
<circle cx="89" cy="20" r="10" stroke="white" stroke-width="2"/>
<path d="M85.648 18.742C85.708 18.326 85.824 17.962 85.996 17.65C86.168 17.334 86.382 17.072 86.638 16.864C86.898 16.652 87.194 16.494 87.526 16.39C87.862 16.282 88.222 16.228 88.606 16.228C89.006 16.228 89.366 16.286 89.686 16.402C90.01 16.514 90.286 16.672 90.514 16.876C90.742 17.076 90.916 17.312 91.036 17.584C91.16 17.856 91.222 18.15 91.222 18.466C91.222 18.742 91.19 18.986 91.126 19.198C91.066 19.406 90.978 19.588 90.862 19.744C90.746 19.9 90.602 20.032 90.43 20.14C90.258 20.248 90.064 20.338 89.848 20.41C90.368 20.574 90.756 20.824 91.012 21.16C91.268 21.496 91.396 21.918 91.396 22.426C91.396 22.858 91.316 23.24 91.156 23.572C90.996 23.904 90.78 24.184 90.508 24.412C90.236 24.636 89.92 24.806 89.56 24.922C89.204 25.038 88.826 25.096 88.426 25.096C87.99 25.096 87.61 25.046 87.286 24.946C86.962 24.846 86.68 24.698 86.44 24.502C86.2 24.306 85.996 24.066 85.828 23.782C85.66 23.498 85.516 23.17 85.396 22.798L86.05 22.528C86.222 22.456 86.382 22.438 86.53 22.474C86.682 22.506 86.792 22.586 86.86 22.714C86.932 22.854 87.01 22.992 87.094 23.128C87.182 23.264 87.286 23.386 87.406 23.494C87.526 23.598 87.666 23.684 87.826 23.752C87.99 23.816 88.184 23.848 88.408 23.848C88.66 23.848 88.88 23.808 89.068 23.728C89.256 23.644 89.412 23.536 89.536 23.404C89.664 23.272 89.758 23.126 89.818 22.966C89.882 22.802 89.914 22.638 89.914 22.474C89.914 22.266 89.892 22.078 89.848 21.91C89.804 21.738 89.712 21.592 89.572 21.472C89.432 21.352 89.23 21.258 88.966 21.19C88.706 21.122 88.356 21.088 87.916 21.088V20.032C88.28 20.028 88.582 19.994 88.822 19.93C89.062 19.866 89.252 19.778 89.392 19.666C89.536 19.55 89.636 19.412 89.692 19.252C89.748 19.092 89.776 18.916 89.776 18.724C89.776 18.316 89.662 18.006 89.434 17.794C89.206 17.582 88.902 17.476 88.522 17.476C88.346 17.476 88.184 17.502 88.036 17.554C87.888 17.602 87.754 17.672 87.634 17.764C87.518 17.852 87.42 17.956 87.34 18.076C87.26 18.196 87.2 18.328 87.16 18.472C87.092 18.656 87.002 18.778 86.89 18.838C86.782 18.898 86.628 18.912 86.428 18.88L85.648 18.742Z" fill="white"/>
<path d="M25 67.4607C25.3455 66.597 26.0076 66.2611 26.9097 66.3283C27.2936 66.357 27.6775 66.3283 28.1285 66.3283C27.4855 64.9367 27.7446 63.5068 27.735 62.1057C27.7063 57.2498 27.7254 52.3939 27.7254 47.5476C27.7254 47.4036 27.7254 47.2597 27.7254 47.1157C27.7638 46.6263 28.0517 46.3384 28.474 46.3384C28.8962 46.3384 29.1745 46.6359 29.2129 47.1253C29.2225 47.2693 29.2129 47.4132 29.2129 47.5572C29.2129 53.152 29.2129 58.7469 29.2129 64.3321C29.2129 64.5433 29.2129 64.7544 29.2225 64.9559C29.2801 65.6277 29.8559 66.2227 30.5373 66.2899C30.7484 66.3091 30.9499 66.3091 31.1611 66.3091C43.5024 66.3091 55.8437 66.3091 68.1945 66.3091C68.4057 66.3091 68.6168 66.3091 68.8183 66.2899C69.4901 66.2131 70.0659 65.6277 70.1235 64.9463C70.1427 64.7832 70.1331 64.6296 70.1331 64.4665C70.1331 56.5397 70.1331 48.6224 70.1331 40.6956C70.1331 40.4557 70.1331 40.2062 70.0755 39.9758C69.9028 39.3425 69.3174 38.8818 68.6552 38.8818C67.0621 38.8722 65.4691 38.8818 63.8857 38.8818C63.7609 38.8818 63.6265 38.901 63.521 38.9586C62.7916 39.352 62.0623 39.7647 61.3425 40.2733C61.5057 40.2733 61.6688 40.2733 61.832 40.2733C63.6457 40.2733 65.4595 40.2733 67.2829 40.2733C68.3097 40.2733 68.7512 40.7052 68.7512 41.732C68.7512 48.9679 68.7512 56.1942 68.7512 63.4301C68.7512 64.4761 68.3097 64.9079 67.2445 64.9079C55.5462 64.9079 43.8478 64.9079 32.1399 64.9079C31.0363 64.9079 30.6044 64.4857 30.6044 63.4013C30.6044 56.1846 30.6044 48.9679 30.6044 41.7512C30.6044 40.686 31.0363 40.2637 32.1015 40.2637C33.6562 40.2637 35.2204 40.2637 36.7751 40.2637H37.3317C37.2837 39.7839 37.2453 39.3616 37.1974 38.901C37.063 38.8914 36.919 38.8722 36.7847 38.8722C34.827 38.8722 32.8597 38.8722 30.9019 38.8722C29.8079 38.8722 29.2129 39.4768 29.2033 40.5708C29.2033 41.4345 29.2033 42.3078 29.2033 43.1715C29.2033 43.2963 29.2033 43.4306 29.1937 43.5554C29.1266 43.968 28.877 44.2463 28.4548 44.2367C28.0325 44.2367 27.735 43.9584 27.735 43.5458C27.7159 42.4038 27.6583 41.2522 27.7638 40.1294C27.927 38.4404 29.2033 37.3847 30.9115 37.3751C32.8885 37.3655 34.8654 37.3655 36.8423 37.3751C37.2069 37.3751 37.3413 37.2696 37.4565 36.9049C38.2626 34.4194 40.0572 33.047 42.5523 32.5288C44.0494 32.2121 45.556 32.3561 47.0627 32.5672C49.2028 32.8647 51.3428 33.1814 53.4925 33.4885C53.5596 33.4885 53.6172 33.4981 53.6844 33.5173C54.2506 33.6228 54.5673 33.9779 54.4809 34.4098C54.385 34.8608 53.9915 35.0527 53.4253 34.976C50.6135 34.5921 47.8017 34.1986 44.9898 33.8724C43.8382 33.738 42.677 33.8724 41.5926 34.3618C40.2779 34.9568 39.3182 35.8877 38.8576 37.3751H39.3758C44.6923 37.3751 50.0185 37.3751 55.335 37.3751C55.6901 37.3751 55.882 37.2984 56.0068 36.9433C56.2851 36.1756 56.8417 35.427 56.8513 34.6689C56.8513 33.9299 56.3139 33.191 56.0068 32.4521C55.3734 30.9646 54.74 29.4771 54.1067 27.98C53.7996 27.2507 53.8859 26.742 54.3658 26.3198C54.8264 25.9167 55.335 25.8879 56.0164 26.2718C60.3157 28.6614 64.6246 31.0509 68.9239 33.4501C70.0467 34.0739 70.0467 35.2831 68.9431 35.9164C68.1562 36.3675 67.35 36.8089 66.4576 37.308C66.6687 37.3368 66.7838 37.3655 66.8894 37.3655C67.3884 37.3655 67.8875 37.3655 68.3865 37.3655C70.3442 37.3751 71.6398 38.6707 71.6493 40.638C71.6493 41.5881 71.6493 42.5381 71.6493 43.4786C71.6493 50.1003 71.6493 56.722 71.6493 63.3437C71.6493 64.313 71.7741 65.311 71.1983 66.2899C71.7645 66.2899 72.2156 66.2899 72.6762 66.2899C73.7798 66.2899 74.3748 66.8849 74.3748 67.9789C74.3748 68.6698 74.3748 69.3608 74.3748 70.0518C74.3748 72.0287 73.0313 73.4778 71.0448 73.5545C69.6628 73.6121 68.2809 73.5737 66.899 73.5641C66.3616 73.5641 66.0161 73.2282 66.0257 72.7964C66.0353 72.3645 66.3904 72.0766 66.9374 72.067C68.2233 72.067 69.5093 72.0287 70.7952 72.067C72.2347 72.115 72.9929 71.0306 72.9449 69.9078C72.9161 69.2168 72.9449 68.5259 72.9449 67.7677H72.4075C67.3117 67.7677 62.2158 67.7677 57.12 67.7582C56.7457 67.7582 56.5346 67.8733 56.3523 68.19C56.0932 68.6314 55.7765 69.0441 55.5078 69.476C54.9992 70.2821 54.2602 70.6563 53.3293 70.6563C50.9014 70.6563 48.4734 70.6563 46.0455 70.6563C45.1338 70.6563 44.4044 70.2821 43.9054 69.4855C43.867 69.428 43.8286 69.38 43.7998 69.3224C43.4448 68.8138 43.1953 68.1036 42.7058 67.8445C42.2164 67.5854 41.4871 67.7677 40.8537 67.7677C36.2761 67.7677 31.6889 67.7677 27.1113 67.7677H26.4203C26.4683 68.7754 26.4491 69.7734 26.593 70.7427C26.7082 71.4913 27.4759 71.9999 28.2533 72.0479C28.474 72.0575 28.7043 72.0574 28.925 72.0574C40.2395 72.0574 51.5539 72.0574 62.8684 72.0574C63.0603 72.0574 63.2619 72.0383 63.4442 72.0766C63.8089 72.1438 64.0584 72.3454 64.0776 72.7484C64.0968 73.1611 63.8953 73.4202 63.4922 73.5065C63.3386 73.5449 63.1755 73.5449 63.0124 73.5449C51.5731 73.5449 40.1243 73.5449 28.6851 73.5449C26.8042 73.5449 25.8349 72.806 25.0096 70.7715V67.3935L25 67.4607ZM32.1399 63.4013H67.2157V41.7896C64.3271 41.7896 61.4865 41.7896 58.6363 41.7896C58.4731 41.7896 58.3004 41.876 58.1469 41.9527C57.3695 42.375 56.6114 42.8164 55.8245 43.2291C55.0567 43.6226 54.1738 43.2579 53.9627 42.471C53.9051 42.2598 53.9147 42.0391 53.8955 41.8088H39.4046C39.4814 41.9911 39.5293 42.1447 39.5965 42.279C39.8652 42.826 40.1531 43.3635 40.4218 43.9105C40.6521 44.3807 40.5658 44.7838 40.1915 44.9949C39.798 45.2156 39.3758 45.0717 39.1263 44.5822C38.7136 43.7857 38.3202 42.9796 37.9555 42.1543C37.8307 41.8664 37.6964 41.7704 37.3893 41.78C35.9882 41.7896 34.5967 41.78 33.1955 41.78C32.8501 41.78 32.495 41.78 32.1207 41.78V63.3917L32.1399 63.4013ZM66.6399 33.9971C66.6399 33.9971 66.6399 33.9299 66.6495 33.8916C63.0028 31.8667 59.3656 29.8418 55.6805 27.7881C55.6805 27.9032 55.6709 27.9416 55.6805 27.9704C56.4962 29.8897 57.3215 31.7995 58.1277 33.7188C58.2428 33.9971 58.4252 33.9971 58.6555 33.9971C60.7955 33.9971 62.926 33.9971 65.066 33.9971C65.5939 33.9971 66.1121 33.9971 66.6399 33.9971ZM55.6613 41.5497C55.6613 41.5497 55.7093 41.5977 55.7381 41.6265C59.3848 39.6016 63.0316 37.5671 66.6783 35.5422C66.6783 35.5134 66.6591 35.4846 66.6495 35.4462H66.1889C64.0008 35.4462 61.8128 35.5134 59.6343 35.4174C58.5691 35.3694 58.0605 35.6669 57.6958 36.6842C57.1104 38.3348 56.3523 39.9278 55.6613 41.5497ZM38.6848 38.9106C38.7232 39.1889 38.7808 39.4288 38.7712 39.6591C38.7712 40.1774 39.0015 40.3021 39.5101 40.3021C42.3891 40.2733 45.2585 40.2925 48.1375 40.2925C50.1432 40.2925 52.1489 40.2925 54.1642 40.2925C54.337 40.2925 54.5865 40.2349 54.6537 40.1198C54.8552 39.7551 54.9991 39.3425 55.1719 38.9202H38.6848V38.9106ZM54.836 67.8637H44.5484C44.7883 68.2284 44.9515 68.5643 45.201 68.8234C45.3833 69.0153 45.6808 69.1881 45.9303 69.1977C48.435 69.2264 50.9398 69.2264 53.4445 69.1977C53.694 69.1977 53.9915 69.0153 54.1738 68.8234C54.4234 68.5643 54.5961 68.2284 54.836 67.8637Z" fill="white"/>
<path d="M41.5131 60.33C37.6264 60.33 34.4787 57.1919 34.4883 53.334C34.4979 49.4666 37.6456 46.3477 41.5322 46.3477C45.3709 46.3477 48.5186 49.5145 48.509 53.3532C48.509 57.2015 45.3613 60.33 41.5131 60.33ZM43.8163 54.5048C44.5456 55.2054 45.2557 55.8771 45.9563 56.5585C47.6549 54.6584 47.3094 51.146 45.1598 49.2171C42.943 47.221 39.4882 47.3937 37.4441 49.5817C35.3712 51.7986 35.6975 55.119 37.041 56.5489C37.7512 55.8771 38.4613 55.2054 39.1811 54.5336C38.1254 53.1421 38.2022 51.4339 39.4306 50.3015C40.5726 49.2458 42.3672 49.2266 43.5092 50.2631C44.7855 51.4147 44.8911 53.1133 43.8163 54.5144V54.5048ZM44.7567 57.7773C44.1041 56.2802 42.8374 55.5221 41.1772 55.6084C39.9104 55.6756 38.6053 56.6545 38.2502 57.8061C40.1599 59.2456 42.9334 59.236 44.7567 57.7773ZM41.5227 50.9732C40.6398 50.9636 39.9392 51.6162 39.92 52.4799C39.9008 53.3916 40.5534 54.0922 41.4459 54.1017C42.348 54.1209 43.0389 53.4492 43.0485 52.5471C43.0485 51.6642 42.3863 50.9828 41.5227 50.9732Z" fill="white"/>
<path d="M57.1953 50.6832C55.7846 50.6832 54.3739 50.6832 52.9632 50.6832C52.0995 50.6832 51.6965 50.2802 51.6869 49.4165C51.6773 48.7735 51.6677 48.1305 51.6869 47.4875C51.7157 46.7486 52.1475 46.3455 52.8864 46.3359C55.775 46.3359 58.6636 46.3359 61.5522 46.3359C62.32 46.3359 62.7806 46.787 62.7902 47.5547C62.7998 48.1977 62.7998 48.8407 62.7902 49.4836C62.7806 50.2226 62.32 50.6736 61.581 50.6736C60.1223 50.6736 58.6636 50.6736 57.2049 50.6736L57.1953 50.6832ZM53.1743 49.2053H61.2931V47.8234H53.1743V49.2053Z" fill="white"/>
<path d="M57.0601 56.9232C55.5823 56.9232 54.1044 56.9232 52.6361 56.9232C52.2426 56.9232 51.8875 56.8368 51.734 56.4242C51.5421 55.8964 51.9163 55.4357 52.5497 55.4261C53.7397 55.4165 54.9201 55.4261 56.1101 55.4261C57.9046 55.4261 59.6992 55.4261 61.5034 55.4261C61.6761 55.4261 61.8585 55.4261 62.0216 55.4741C62.3767 55.5605 62.5686 55.8292 62.5686 56.1747C62.5686 56.5202 62.3767 56.7889 62.012 56.8656C61.8393 56.904 61.6665 56.9136 61.4842 56.9136C60.0063 56.9136 58.5284 56.9136 57.0601 56.9136V56.9232Z" fill="white"/>
<path d="M57.1345 58.2031C58.6412 58.2031 60.1478 58.2031 61.6545 58.2031C62.2495 58.2031 62.5854 58.4814 62.5758 58.9421C62.5566 59.3835 62.2207 59.6522 61.6641 59.6522C58.6316 59.6522 55.599 59.6522 52.5665 59.6522C52.0003 59.6522 51.6932 59.3835 51.6836 58.9325C51.6836 58.4718 51.9811 58.2127 52.5569 58.2031C54.0828 58.2031 55.6086 58.2031 57.1249 58.2031H57.1345Z" fill="white"/>
<path d="M55.273 54.1483C54.3613 54.1483 53.4496 54.1483 52.5283 54.1483C52.0005 54.1483 51.6934 53.8892 51.6838 53.4382C51.6742 52.9679 51.9813 52.6992 52.5379 52.6992C54.3997 52.6992 56.2614 52.6992 58.1136 52.6992C58.6606 52.6992 59.0061 52.9775 58.9965 53.4286C58.9965 53.87 58.651 54.1483 58.104 54.1483C57.1539 54.1483 56.2134 54.1483 55.2634 54.1483H55.273Z" fill="white"/>
</g>
<defs>
<clipPath id="clip0_2523_14">
<rect width="100" height="100" fill="white"/>
</clipPath>
</defs>
</svg>
