<svg width="100" height="100" viewBox="0 0 100 100" fill="none" xmlns="http://www.w3.org/2000/svg">
<g clip-path="url(#clip0_2508_115)">
<path d="M94.0289 29.6603C99.0384 40.5043 99.8699 52.8155 96.3641 64.2346C92.8582 75.6537 85.2616 85.3773 75.0302 91.542C64.7987 97.7068 52.6521 99.8789 40.9183 97.6421C29.1844 95.4054 18.6887 88.9171 11.4426 79.4207C4.19655 69.9244 0.709823 58.088 1.65068 46.1799C2.59153 34.2719 7.89378 23.1299 16.5413 14.8893C25.1887 6.64868 36.5731 1.88913 48.5127 1.52281C60.4522 1.15649 72.1069 5.20916 81.2433 12.9041" stroke="white" stroke-width="3"/>
<circle cx="89" cy="20" r="10" stroke="white" stroke-width="2"/>
<path d="M91.21 22.89V24H86.41V22.89H88.168V17.832C88.168 17.632 88.174 17.426 88.186 17.214L86.938 18.258C86.866 18.314 86.794 18.35 86.722 18.366C86.654 18.378 86.588 18.378 86.524 18.366C86.464 18.354 86.41 18.334 86.362 18.306C86.314 18.274 86.278 18.24 86.254 18.204L85.786 17.562L88.432 15.312H89.65V22.89H91.21Z" fill="white"/>
<path d="M36.3468 74.0325C35.6702 73.7979 35.0026 73.5453 34.4883 73.004C33.8297 72.3183 33.4959 71.4973 33.4688 70.5591C33.4508 69.8553 33.4508 69.1516 33.4688 68.4479C33.4688 67.9247 33.7756 67.5818 34.1906 67.5728C34.6056 67.5728 34.9123 67.9156 34.9214 68.4389C34.9304 69.1065 34.9214 69.7832 34.9214 70.4508C34.9394 71.759 35.7875 72.616 37.1047 72.616C40.4067 72.616 43.6997 72.616 47.0017 72.616C49.0496 72.616 51.0976 72.616 53.2538 72.616C53.0824 72.4356 52.9741 72.3183 52.8569 72.201C51.0976 70.4418 49.3473 68.6825 47.5791 66.9323C47.0738 66.427 46.74 65.8947 46.9205 65.1459C46.9475 65.0557 46.8754 64.9023 46.8032 64.8211C46.4243 64.4061 46.0273 64.0182 45.6394 63.6212C39.1165 68.1412 31.042 66.2376 26.946 60.9868C22.6967 55.5557 23.0847 47.9502 27.8482 43.0062C32.5667 38.1164 40.1811 37.4939 45.7206 41.4815C50.9983 45.2798 53.5876 53.5618 48.7609 60.5177C49.1669 60.9056 49.5729 61.3116 49.9969 61.6996C50.0691 61.7627 50.2225 61.7808 50.3217 61.7627C50.9623 61.6545 51.4855 61.8529 51.9366 62.304C54.0207 64.3971 56.1138 66.4812 58.2068 68.5652C59.0639 69.4223 59.5872 70.8748 58.694 72.5709C58.8203 72.5799 58.9376 72.607 59.0459 72.607C61.996 72.607 64.9552 72.607 67.9053 72.607C69.2677 72.607 70.1247 71.7499 70.1247 70.3786C70.1247 59.2185 70.1247 48.0585 70.1247 36.9074C70.1247 36.727 70.1067 36.5376 70.0977 36.312C69.809 36.312 69.5473 36.312 69.2857 36.312C67.4903 36.312 65.695 36.312 63.8906 36.312C62.2937 36.312 61.2833 35.3106 61.2743 33.7137C61.2652 31.792 61.2562 29.8704 61.2743 27.9487C61.2743 27.5337 61.1389 27.4074 60.742 27.4074C59.2263 27.4255 57.7106 27.4074 56.195 27.4074C49.8526 27.4074 43.5012 27.4074 37.1588 27.4074C36.0581 27.4074 35.2552 27.9577 34.9935 28.905C34.9214 29.1667 34.9123 29.4644 34.9123 29.7351C34.9123 31.9364 34.9123 34.1377 34.9123 36.3481C34.9123 36.5285 34.9394 36.7721 34.8402 36.8894C34.6688 37.0969 34.3981 37.3495 34.1816 37.3405C33.956 37.3405 33.7124 37.0608 33.532 36.8623C33.4508 36.7721 33.4688 36.5646 33.4688 36.4112C33.4688 34.1468 33.4598 31.8823 33.4688 29.6178C33.4779 27.7863 34.5785 26.424 36.3107 26.0541C36.5363 26.009 36.7799 26 37.0054 26C44.9266 26 52.8569 26 60.7781 26C61.7705 26 62.6095 26.3338 63.3042 27.0285C65.704 29.4193 68.1038 31.8281 70.5036 34.2189C71.2795 34.9948 71.5863 35.9421 71.5863 37.0157C71.5863 42.8168 71.5863 48.6088 71.5863 54.4099C71.5863 59.5073 71.5863 64.5956 71.5863 69.6929C71.5863 72.2281 71.0089 73.0852 68.6993 74.0054H36.3378L36.3468 74.0325ZM25.4484 52.5424C25.4574 59.3449 30.9157 64.758 37.7452 64.749C44.4214 64.749 49.8706 59.2366 49.8706 52.5063C49.8706 45.7669 44.3943 40.2907 37.655 40.2907C30.8886 40.2907 25.4304 45.776 25.4394 52.5424H25.4484ZM57.855 70.8117C57.6565 70.4237 57.5302 69.9636 57.2325 69.6569C55.1665 67.5457 53.0644 65.4707 50.9803 63.3776C50.7457 63.1431 50.5833 63.1611 50.3668 63.3867C49.7894 63.9821 49.212 64.5775 48.6076 65.1369C48.2647 65.4527 48.3008 65.6511 48.6076 65.9669C50.43 67.7623 52.2343 69.5847 54.0477 71.3981C54.3364 71.6868 54.6071 71.9935 54.9229 72.2371C55.4912 72.6792 56.1228 72.7423 56.7633 72.4176C57.3858 72.1018 57.7016 71.5695 57.8279 70.8026L57.855 70.8117ZM62.6997 28.5712C62.6997 30.2583 62.6997 31.9454 62.6997 33.6235C62.6997 34.5437 63.0426 34.8865 63.9718 34.8865C65.5145 34.8865 67.0573 34.8865 68.6091 34.8865C68.7444 34.8865 68.8797 34.8685 68.988 34.8595C66.8949 32.7664 64.8199 30.6824 62.6997 28.5712ZM47.8768 61.6996C47.5249 62.0424 47.155 62.4033 46.8573 62.692C47.1821 63.0619 47.5339 63.4498 47.8497 63.8017C48.2377 63.4318 48.5985 63.0889 48.9143 62.7912C48.5534 62.4123 48.2016 62.0424 47.8678 61.6996H47.8768Z" fill="white"/>
<path d="M46.389 36.329C44.1425 36.329 41.887 36.329 39.6406 36.329C38.4948 36.329 37.8633 35.7155 37.8633 34.5697C37.8633 33.8028 37.8633 33.036 37.8633 32.2781C37.8633 31.2045 38.4768 30.582 39.5504 30.582C44.1154 30.582 48.6715 30.582 53.2366 30.582C54.2741 30.582 54.8876 31.2226 54.8966 32.2601C54.9056 33.054 54.9056 33.857 54.8966 34.6509C54.8876 35.7065 54.247 36.338 53.1914 36.338C50.927 36.338 48.6625 36.338 46.398 36.338L46.389 36.329ZM53.417 32.0436H39.3609V34.8494H53.417V32.0436Z" fill="white"/>
<path d="M60.2246 48.5195C62.2095 48.5195 64.1943 48.5195 66.1791 48.5195C66.6843 48.5195 67.0001 48.7902 67.0091 49.2052C67.0181 49.6382 66.6933 49.9179 66.161 49.9269C66.0528 49.9269 65.9445 49.9269 65.8363 49.9269C62.1644 49.9269 58.4924 49.9269 54.8296 49.9269C54.6221 49.9269 54.4236 49.9269 54.2161 49.9269C53.765 49.9089 53.4492 49.6112 53.4492 49.2142C53.4492 48.8082 53.765 48.5195 54.2341 48.5195C56.237 48.5195 58.2308 48.5195 60.2337 48.5195H60.2246Z" fill="white"/>
<path d="M60.2 54.1655C58.2152 54.1655 56.2304 54.1655 54.2456 54.1655C53.7765 54.1655 53.4878 53.9309 53.4517 53.543C53.4246 53.146 53.6231 52.8844 54.002 52.7761C54.1463 52.731 54.3087 52.7581 54.4711 52.7581C56.889 52.7581 59.3159 52.7581 61.7337 52.7581C63.2314 52.7581 64.729 52.7581 66.2357 52.7581C66.6958 52.7581 67.0025 53.0558 67.0115 53.4618C67.0115 53.8677 66.7138 54.1474 66.2447 54.1745C66.1184 54.1745 65.9921 54.1745 65.8658 54.1745C63.9802 54.1745 62.0856 54.1745 60.2 54.1745V54.1655Z" fill="white"/>
<path d="M60.2659 44.2735C62.1514 44.2735 64.046 44.2735 65.9316 44.2735C66.085 44.2735 66.2474 44.2735 66.4007 44.2916C66.7616 44.3367 67.0142 44.5803 66.9781 44.9051C66.9601 45.1577 66.7526 45.4103 66.5631 45.6088C66.4729 45.708 66.2383 45.699 66.0759 45.699C62.1695 45.699 58.263 45.699 54.3655 45.699C54.3204 45.699 54.2753 45.699 54.2212 45.699C53.7701 45.6719 53.4453 45.3742 53.4453 44.9772C53.4453 44.5803 53.7521 44.2735 54.2212 44.2735C55.394 44.2645 56.5669 44.2735 57.7307 44.2735C58.5697 44.2735 59.4178 44.2735 60.2568 44.2735H60.2659Z" fill="white"/>
<path d="M57.2113 56.9806C58.1767 56.9806 59.151 56.9716 60.1164 56.9806C60.766 56.9896 61.1629 57.567 60.8201 58.0452C60.6848 58.2346 60.36 58.397 60.1254 58.406C58.1767 58.4331 56.2189 58.4241 54.2702 58.415C53.765 58.415 53.4492 58.1173 53.4492 57.7113C53.4492 57.2873 53.7921 56.9896 54.3063 56.9806C55.2716 56.9806 56.246 56.9806 57.2113 56.9806Z" fill="white"/>
<path d="M40.119 56.5479C41.8061 56.9359 43.6826 56.8637 44.7562 58.6951C44.8735 58.5508 44.9908 58.4335 45.09 58.3072C49.4566 52.7678 46.2448 44.4406 39.298 43.2587C34.0834 42.3746 29.2927 45.7397 28.3725 50.9544C28.2823 51.4416 27.9575 51.7393 27.5696 51.6942C27.1365 51.64 26.8749 51.2701 26.9741 50.7559C27.759 46.5427 30.1679 43.6286 34.2097 42.2663C40.516 40.1281 47.0478 43.9624 48.3199 50.4943C49.4837 56.4667 45.5321 62.0783 39.7491 63.152C33.7856 64.2616 28.3364 60.6168 27.0463 54.6985C26.9922 54.4278 27.0012 54.085 27.1365 53.8594C27.2357 53.688 27.6147 53.5437 27.8041 53.6068C28.0387 53.679 28.2823 53.9406 28.3725 54.1842C28.7334 55.0954 28.977 56.0517 29.3649 56.9359C29.6265 57.5403 30.0686 58.0636 30.4836 58.7042C31.5482 56.8908 33.4067 56.9539 35.0667 56.5479C35.1479 56.0337 35.1299 55.5916 34.6698 55.2037C34.1104 54.7345 33.8127 54.0759 33.6142 53.3632C33.5601 53.1738 33.4248 52.9843 33.2714 52.849C32.9646 52.5693 32.7842 52.2535 32.7932 51.8295C32.7932 50.783 32.7932 49.7364 32.7932 48.6899C32.7932 46.7321 34.1014 45.3879 36.0682 45.3518C37.1147 45.3337 38.1612 45.3428 39.2078 45.3518C40.0468 45.3608 40.6783 45.7127 41.0031 46.5246C41.0482 46.6419 41.1926 46.7682 41.3099 46.8133C42.0226 47.093 42.4466 47.5982 42.4737 48.3651C42.5098 49.5199 42.5008 50.6747 42.4917 51.8295C42.4917 52.2806 42.2842 52.6324 41.9143 52.9031C41.8061 52.9843 41.7159 53.1286 41.6798 53.264C41.4632 54.0489 41.1294 54.7796 40.4979 55.2939C40.0468 55.6548 40.0558 56.0517 40.128 56.5209L40.119 56.5479ZM37.656 61.952C39.695 61.925 41.5715 61.3205 43.2586 60.1116C43.6105 59.859 43.6826 59.5793 43.421 59.3086C43.1052 58.9838 42.7353 58.6591 42.3293 58.5057C41.7519 58.2892 41.1204 58.235 40.5159 58.0907C40.2272 58.0185 40.0288 58.0907 39.8032 58.2711C38.477 59.3267 36.6907 59.3177 35.3464 58.2892C35.193 58.1719 34.9495 58.0817 34.769 58.1177C34.0653 58.2441 33.3526 58.3794 32.685 58.6139C32.3512 58.7312 32.0715 59.056 31.8098 59.3357C31.5663 59.6064 31.6565 59.8409 31.9542 60.0575C33.6413 61.2934 35.5269 61.925 37.647 61.9611L37.656 61.952ZM34.2187 51.1348C34.1375 51.5047 34.2097 51.6851 34.5074 51.8746C34.7149 52.0099 34.8683 52.3437 34.9134 52.6144C35.1389 54.0579 36.2486 55.0864 37.629 55.0864C38.9913 55.0864 40.1009 54.094 40.3084 52.6956C40.3716 52.2896 40.4889 51.9378 40.8949 51.7483C40.967 51.7122 41.0392 51.5859 41.0392 51.5047C41.0573 51.1168 41.0392 50.7288 41.0392 50.3138C40.1731 50.1695 39.3431 50.0702 38.5672 50.5394C37.8545 50.9724 37.0696 51.1438 36.2486 51.1348C35.581 51.1348 34.9134 51.1348 34.2187 51.1348ZM34.1465 49.6823C34.8773 49.6823 35.5178 49.6643 36.1494 49.6823C36.808 49.7003 37.3944 49.547 37.9808 49.2402C38.3868 49.0237 38.8469 48.8793 39.298 48.8162C39.8574 48.744 40.4348 48.7981 40.9941 48.7981C41.0934 48.3741 40.958 48.1847 40.543 48.1395C40.0288 48.0854 39.722 47.7516 39.6498 47.2554C39.5957 46.8855 39.4153 46.8043 39.0905 46.8133C38.0169 46.8224 36.9343 46.8133 35.8607 46.8224C35.0577 46.8314 34.4172 47.3366 34.2457 48.1215C34.1465 48.5997 34.1646 49.1049 34.1285 49.6733L34.1465 49.6823ZM38.6665 56.4577H36.4832C36.5102 56.7464 36.42 57.2246 36.5914 57.3419C37.1869 57.7569 37.8906 57.7388 38.5311 57.387C38.9461 57.1524 38.5311 56.7735 38.6665 56.4577Z" fill="white"/>
</g>
<defs>
<clipPath id="clip0_2508_115">
<rect width="100" height="100" fill="white"/>
</clipPath>
</defs>
</svg>
