<svg width="100" height="100" viewBox="0 0 100 100" fill="none" xmlns="http://www.w3.org/2000/svg">
<g clip-path="url(#clip0_2523_2)">
<path d="M94.0289 29.6603C99.0384 40.5043 99.8699 52.8155 96.3641 64.2346C92.8582 75.6537 85.2616 85.3773 75.0302 91.542C64.7987 97.7068 52.6521 99.8789 40.9183 97.6421C29.1844 95.4054 18.6887 88.9171 11.4426 79.4207C4.19655 69.9244 0.709823 58.088 1.65068 46.1799C2.59153 34.2719 7.89378 23.1299 16.5413 14.8893C25.1887 6.64868 36.5731 1.88913 48.5127 1.52281C60.4522 1.15649 72.1069 5.20916 81.2433 12.9041" stroke="white" stroke-width="3"/>
<circle cx="89" cy="20" r="10" stroke="white" stroke-width="2"/>
<path d="M50.5825 25.0192C50.9576 25.1154 51.3326 25.2116 51.7077 25.327C54.4967 26.1925 56.4393 28.7988 56.4682 31.7128C56.4778 32.761 56.4682 33.8093 56.4874 34.848C56.4874 35.0115 56.6221 35.2327 56.7663 35.3288C57.6607 35.9347 58.1416 36.7425 58.1416 37.8293C58.1416 38.3198 58.1416 38.8102 58.1416 39.3007C58.1223 40.8202 56.9202 42.032 55.4007 42.0704C55.1603 42.0704 54.9198 42.0704 54.7083 42.0704C54.5736 42.9456 54.4967 43.7919 54.2947 44.5998C53.8908 46.2251 53.0926 47.6195 51.7846 48.7063C51.6692 48.8024 51.5731 48.9948 51.5634 49.1487C51.5442 49.9373 51.5634 50.7163 51.5442 51.5049C51.5346 51.8222 51.7173 51.8799 51.9385 51.9569C54.4486 52.8128 56.9683 53.6495 59.4687 54.5535C60.1708 54.8132 60.7959 55.294 61.4691 55.6402C61.6326 55.7268 61.8634 55.7749 62.0365 55.7364C66.999 54.6208 71.9807 57.429 73.5867 62.2568C73.7214 62.6608 73.8271 63.0743 73.9137 63.4878C74.0195 63.9976 73.7983 64.3726 73.3559 64.4784C72.9231 64.5842 72.5769 64.3341 72.4615 63.8148C71.7787 60.7469 70.0091 58.5735 67.0374 57.4964C62.0654 55.6979 56.7663 58.9101 55.9585 64.1514C55.1506 69.4312 59.5265 74.1244 64.8447 73.7013C68.605 73.4031 71.5671 70.8353 72.3846 67.1616C72.4038 67.0847 72.4327 67.0077 72.4519 66.9212C72.5769 66.4115 72.9328 66.1422 73.3463 66.2383C73.7694 66.3345 74.0099 66.7288 73.9137 67.2289C73.5482 69.0081 72.8077 70.6045 71.5767 71.9509C69.586 74.1244 67.1144 75.24 64.1619 75.24C53.131 75.24 42.0906 75.24 31.0597 75.24C30.1845 75.24 30.0018 75.0477 30.0018 74.1821C30.0018 71.0565 30.0018 67.9406 30.0018 64.815C30.0018 64.2668 30.2615 63.9591 30.7135 63.9495C31.1943 63.9302 31.4732 64.2476 31.4732 64.815C31.4732 67.5944 31.4732 70.3737 31.4732 73.1531C31.4732 73.3454 31.4732 73.5378 31.4732 73.7493H35.0989C35.0989 73.5762 35.0989 73.4031 35.0989 73.2396C35.0989 69.8352 35.0989 66.4403 35.0989 63.0358C35.0989 62.9012 35.0989 62.7762 35.0989 62.6415C35.1181 62.1895 35.4066 61.8914 35.8298 61.8914C36.2626 61.8914 36.5511 62.1703 36.5703 62.6319C36.5799 62.9781 36.5703 63.3147 36.5703 63.6609C36.5703 66.8346 36.5703 70.0083 36.5703 73.1723V73.7397H42.7734C42.8599 72.9415 42.9561 72.124 43.0427 71.297C43.2927 68.96 43.5427 66.623 43.7928 64.2861C43.9274 63.0358 44.0621 61.7856 44.1871 60.5354C44.1967 60.4296 44.1871 60.3046 44.1294 60.2084C43.8313 59.6506 43.5139 59.1024 43.1773 58.5158C42.456 58.9582 41.7636 59.3813 41.0711 59.8045C40.7345 60.0064 40.4076 60.1699 40.0229 59.9487C39.6478 59.7275 39.6574 59.3621 39.6574 58.9966C39.6574 57.5444 39.6574 56.0826 39.6574 54.6304C39.6574 54.4573 39.6574 54.2746 39.6574 54.0246C38.4745 54.4285 37.3493 54.8132 36.2337 55.1979C35.4355 55.4671 34.6276 55.7364 33.8294 56.0153C32.3291 56.5346 31.4828 57.7175 31.4732 59.3236C31.4732 60.0064 31.4732 60.6989 31.4732 61.3817C31.4732 61.9106 31.1847 62.2088 30.7135 62.1991C30.2711 62.1895 29.9922 61.8914 30.0018 61.3817C30.021 60.3526 29.9441 59.314 30.1076 58.3042C30.3961 56.4769 31.5213 55.2556 33.262 54.6401C35.8298 53.7361 38.4072 52.8609 40.9846 51.9953C41.3596 51.8703 41.5328 51.7068 41.4654 51.3029C41.4462 51.1587 41.4462 51.0048 41.4654 50.8605C41.6097 49.6584 41.3116 48.7351 40.3787 47.8119C38.9265 46.3885 38.4745 44.4363 38.3687 42.4263C38.3687 42.3301 38.3495 42.2339 38.3399 42.0512C38.0033 42.0512 37.6667 42.0897 37.3301 42.0512C36.0125 41.8877 35.0219 40.9068 34.8873 39.57C34.82 38.8583 34.8296 38.137 34.8873 37.4157C34.9642 36.4059 35.522 35.6847 36.4164 35.2326C36.6761 35.098 36.753 34.9441 36.753 34.6749C36.753 33.5977 36.7242 32.5206 36.7723 31.4339C36.8877 28.3275 39.2823 25.6155 42.3406 25.0962C42.4464 25.0769 42.5522 25.0289 42.658 25C45.3027 25 47.957 25 50.6017 25L50.5825 25.0192ZM38.1571 33.944C38.1571 33.944 38.2533 33.9728 38.3014 33.9824C38.3783 33.9055 38.4649 33.8382 38.5418 33.7612C40.6191 31.857 43.0715 31.7705 45.2931 33.5016C45.7355 33.8478 45.8509 34.2325 45.62 34.5979C45.3892 34.9634 44.9853 35.0211 44.4948 34.7806C43.9563 34.5114 43.4273 34.2228 42.8695 34.0017C41.8501 33.5977 40.9173 33.8382 40.0806 34.5114C39.9652 34.6075 39.8786 34.8095 39.8786 34.9634C39.8786 37.7235 39.8498 40.4836 39.8882 43.2534C39.9171 44.9075 40.6095 46.302 41.9078 47.331C43.6197 48.687 45.5912 49.0429 47.7262 48.7736C50.8518 48.3793 53.0637 46.0327 53.1118 42.9264C53.1599 40.2143 53.131 37.5023 53.1118 34.7903C53.1118 34.6364 52.9868 34.4248 52.8618 34.3286C51.9674 33.7324 51.0249 33.6074 50.0439 34.1267C49.5823 34.3767 49.1207 34.6075 48.6494 34.848C48.1686 35.0884 47.7743 34.9922 47.5435 34.6075C47.3223 34.2325 47.4185 33.8862 47.8801 33.5689C48.2263 33.3285 48.5917 33.1073 48.9668 32.9053C50.8325 31.9244 52.5829 32.1455 54.2178 33.4342C54.4582 33.617 54.689 33.8189 54.9872 34.0594C54.9872 33.29 54.9872 32.6072 54.9872 31.934C54.9679 28.9142 52.7079 26.5676 49.6977 26.5099C47.6204 26.4714 45.5431 26.4714 43.4754 26.5099C40.975 26.558 38.8592 28.2314 38.3687 30.6453C38.1475 31.7224 38.2148 32.8476 38.1475 33.9536L38.1571 33.944ZM50.1882 73.7397H58.9302C52.4001 69.5659 52.9772 59.891 60.0073 56.3231C57.7954 55.5537 55.5834 54.7939 53.3234 54.0053C53.3234 55.7364 53.3234 57.3713 53.3234 59.0062C53.3234 59.3813 53.3234 59.7372 52.9483 59.9487C52.5636 60.1699 52.2366 59.9968 51.9 59.7948C51.2172 59.3621 50.5248 58.9485 49.8035 58.5158C49.5438 58.9774 49.3323 59.4102 49.0726 59.7948C48.8129 60.1795 48.7841 60.5738 48.8322 61.0066C48.9283 61.7471 49.0149 62.4973 49.0918 63.2474C49.4573 66.7384 49.8227 70.2295 50.1882 73.7493V73.7397ZM45.6297 60.9297C45.1777 65.1997 44.7257 69.4505 44.2736 73.7301H48.6879C48.2359 69.4409 47.7839 65.1901 47.3319 60.9297H45.6297ZM42.9272 49.7834C42.9272 50.5047 42.9272 51.1394 42.9272 51.7742C42.9272 51.8896 42.9946 52.0338 43.0811 52.1011C44.2063 52.9571 45.3412 53.813 46.476 54.6689C47.6012 53.8226 48.6975 52.9955 49.7843 52.1685C49.8708 52.1011 49.9862 52.005 49.9862 51.9184C50.0055 51.226 49.9862 50.5335 49.9862 49.8026C47.6012 50.6105 45.2834 50.6105 42.908 49.793L42.9272 49.7834ZM51.8327 57.9868C51.8327 56.6212 51.8039 55.371 51.852 54.1207C51.8712 53.611 51.7077 53.3514 51.2365 53.2937C51.0537 53.2744 50.8133 53.2937 50.6691 53.3995C50.1401 53.7553 49.6496 54.1496 49.1399 54.5343C48.7168 54.8516 48.2936 55.169 47.8224 55.5248C49.1784 56.3519 50.4575 57.1405 51.8423 57.9868H51.8327ZM45.1488 55.5345C44.264 54.8613 43.4081 54.2842 42.6387 53.6206C42.1194 53.1783 41.677 53.2167 41.1673 53.5341V57.958C42.5041 57.1405 43.7928 56.3615 45.1488 55.5345ZM44.466 57.7079C44.9981 58.8556 45.8605 59.4294 47.053 59.4294C47.1492 59.4294 47.255 59.4486 47.3415 59.4294C47.4473 59.4006 47.5819 59.3621 47.6204 59.2851C47.9282 58.7754 48.2071 58.2561 48.5052 57.7272C47.8705 57.3425 47.2934 56.977 46.7068 56.6308C46.5914 56.5635 46.3894 56.5539 46.2836 56.6116C45.6778 56.9578 45.0815 57.3329 44.466 57.7079ZM54.6121 40.5413C56.0739 40.7048 56.6413 40.2047 56.6413 38.791C56.6413 38.5506 56.6413 38.3005 56.6413 38.0601C56.6413 36.781 55.8815 36.204 54.6121 36.5117V40.5413ZM38.3206 36.454C38.1475 36.454 38.0321 36.4348 37.9263 36.4348C36.8107 36.4348 36.3395 36.8868 36.3395 37.9928C36.3395 38.339 36.3683 38.6852 36.3395 39.0218C36.2241 40.0893 37.0993 40.8202 38.3302 40.5028V36.454H38.3206Z" fill="white"/>
<path d="M63.182 64.9791C64.1822 63.6423 65.1439 62.3632 66.096 61.0841C66.8269 60.1128 67.8752 59.7954 68.8946 60.2186C70.2218 60.7764 70.7603 62.3921 69.914 63.5654C68.3753 65.7004 66.7981 67.7969 65.192 69.8742C64.3842 70.9225 62.9031 70.9994 61.9318 70.0858C60.8354 69.0567 59.7776 67.9892 58.7389 66.9025C57.8734 65.9889 57.9311 64.5944 58.8255 63.7288C59.7199 62.8633 61.0759 62.8537 61.9991 63.7385C62.403 64.1231 62.7685 64.5367 63.182 64.9791ZM60.3834 64.4694C60.1334 64.6809 59.8641 64.8348 59.7102 65.0656C59.489 65.4022 59.6621 65.7196 59.9218 65.9889C60.8643 66.941 61.8164 67.8835 62.7589 68.8259C63.2782 69.3453 63.7494 69.326 64.1918 68.7394C65.6729 66.7871 67.1347 64.8348 68.5869 62.8633C68.7215 62.6806 68.8273 62.344 68.7504 62.1516C68.6638 61.9208 68.3945 61.6227 68.1733 61.6035C67.904 61.5746 67.5194 61.7381 67.3559 61.9497C66.2499 63.3634 65.1824 64.806 64.1053 66.2389C63.5282 66.9987 63.1724 67.0275 62.4896 66.3351C62.028 65.8735 61.576 65.4022 61.0951 64.9598C60.9124 64.7867 60.672 64.6713 60.3738 64.479L60.3834 64.4694Z" fill="white"/>
<path d="M46.4857 46.0326C45.0913 46.0326 43.918 44.9074 43.918 43.561C43.918 43.0705 44.1776 42.7435 44.6008 42.705C45.0047 42.6762 45.3221 42.9743 45.3894 43.4648C45.4759 44.0803 45.8222 44.4746 46.3415 44.5419C46.8031 44.6092 47.2647 44.3592 47.4571 43.9264C47.5244 43.7629 47.5436 43.5802 47.5821 43.4071C47.6783 42.9359 48.0437 42.6473 48.438 42.7147C48.8516 42.782 49.1208 43.1571 49.0824 43.6187C48.9766 45.0035 47.861 46.0422 46.4857 46.0422V46.0326Z" fill="white"/>
<path d="M42.5608 38.9737C42.5608 38.791 42.5319 38.6083 42.5608 38.4352C42.6377 38.0216 42.8685 37.7524 43.3205 37.762C43.7437 37.762 43.9937 38.0024 44.0322 38.4159C44.0707 38.7525 44.0707 39.0988 44.0418 39.4354C44.013 39.8874 43.6956 40.1951 43.3109 40.2047C42.907 40.2047 42.58 39.8777 42.5511 39.4065C42.5415 39.2622 42.5511 39.118 42.5511 38.9641L42.5608 38.9737Z" fill="white"/>
<path d="M50.3825 38.9449C50.3825 39.1372 50.4017 39.3392 50.3825 39.5315C50.344 39.9258 49.9978 40.2432 49.6227 40.2047C49.2284 40.1566 48.9495 39.9451 48.9207 39.5219C48.9014 39.1661 48.9014 38.8102 48.9207 38.4448C48.9399 38.0312 49.2477 37.7523 49.6516 37.762C50.0555 37.762 50.3536 38.0409 50.3825 38.4544C50.3921 38.6179 50.3825 38.7814 50.3825 38.9449Z" fill="white"/>
<path d="M90.886 23.62C91.046 23.62 91.172 23.666 91.264 23.758C91.36 23.846 91.408 23.964 91.408 24.112V25H85.456V24.508C85.456 24.408 85.476 24.304 85.516 24.196C85.56 24.084 85.628 23.984 85.72 23.896L88.354 21.256C88.574 21.032 88.77 20.818 88.942 20.614C89.118 20.41 89.264 20.208 89.38 20.008C89.496 19.808 89.584 19.606 89.644 19.402C89.708 19.194 89.74 18.976 89.74 18.748C89.74 18.54 89.71 18.358 89.65 18.202C89.59 18.042 89.504 17.908 89.392 17.8C89.284 17.692 89.152 17.612 88.996 17.56C88.844 17.504 88.672 17.476 88.48 17.476C88.304 17.476 88.14 17.502 87.988 17.554C87.84 17.602 87.708 17.672 87.592 17.764C87.476 17.852 87.378 17.956 87.298 18.076C87.218 18.196 87.158 18.328 87.118 18.472C87.05 18.656 86.962 18.778 86.854 18.838C86.746 18.898 86.59 18.912 86.386 18.88L85.606 18.742C85.666 18.326 85.782 17.962 85.954 17.65C86.126 17.334 86.34 17.072 86.596 16.864C86.856 16.652 87.152 16.494 87.484 16.39C87.82 16.282 88.18 16.228 88.564 16.228C88.964 16.228 89.33 16.288 89.662 16.408C89.994 16.524 90.278 16.69 90.514 16.906C90.75 17.122 90.934 17.382 91.066 17.686C91.198 17.99 91.264 18.328 91.264 18.7C91.264 19.02 91.216 19.316 91.12 19.588C91.028 19.86 90.902 20.12 90.742 20.368C90.586 20.616 90.402 20.856 90.19 21.088C89.978 21.32 89.756 21.556 89.524 21.796L87.568 23.794C87.756 23.738 87.942 23.696 88.126 23.668C88.314 23.636 88.492 23.62 88.66 23.62H90.886Z" fill="white"/>
</g>
<defs>
<clipPath id="clip0_2523_2">
<rect width="100" height="100" fill="white"/>
</clipPath>
</defs>
</svg>
