<svg width="707" height="243" viewBox="0 0 707 243" fill="none" xmlns="http://www.w3.org/2000/svg">
<path d="M317.642 39.9202C317.17 39.8839 316.699 39.8114 316.228 39.8114C315.938 39.8114 315.648 39.7751 315.358 39.7388C313.944 39.6663 312.53 39.5938 311.079 39.5938C269.167 39.5938 235.086 73.6863 235.086 115.613C235.086 185.031 311.079 230.512 311.079 230.512V191.958C257.637 162.073 248.936 71.8729 317.606 39.8839L317.642 39.9202Z" fill="#003DA6"/>
<path d="M362.312 54.7969C362.059 54.7969 361.768 54.7969 361.515 54.7969C338.746 54.7969 318.297 64.8796 304.375 80.8015H316.629C316.629 80.8015 316.629 80.8015 316.702 80.8015H316.774C335.954 80.8015 351.58 96.397 351.58 115.619C351.58 134.842 335.99 150.437 316.774 150.437H316.702C316.702 150.437 316.702 150.437 316.665 150.437H288.168C292.482 166.504 301.873 180.468 314.599 190.514C315.143 190.913 315.723 191.276 316.267 191.639C316.448 191.639 316.629 191.639 316.847 191.639C358.759 191.639 392.84 157.546 392.84 115.619C392.84 88.9257 377.939 65.6412 362.385 54.8331L362.312 54.7969Z" fill="#CE0E2D"/>
<path d="M363.681 44.2752C356.031 38.98 350.157 36.8039 341.275 34.4102H341.13H340.985C324.198 38.1821 307.411 49.7881 294.939 66.2178C281.959 83.3366 275.179 103.611 275.687 123.522C275.687 124.066 275.687 124.574 275.759 125.082L276.919 125.009C276.919 124.647 276.919 124.248 276.883 123.885C276.774 114.346 282.358 89.9012 300.994 70.2799C317.092 53.3061 338.048 44.9281 363.355 45.3633H365.24L363.681 44.3115V44.2752Z" fill="#00A7E1"/>
<path d="M240.489 98.7295C253.805 98.7295 264.6 87.9312 264.6 74.6108C264.6 61.2905 253.805 50.4922 240.489 50.4922C227.174 50.4922 216.379 61.2905 216.379 74.6108C216.379 87.9312 227.174 98.7295 240.489 98.7295Z" fill="white"/>
<path d="M239.326 92.4889C249.738 92.4889 258.179 84.0452 258.179 73.6292C258.179 63.2133 249.738 54.7695 239.326 54.7695C228.914 54.7695 220.473 63.2133 220.473 73.6292C220.473 84.0452 228.914 92.4889 239.326 92.4889Z" fill="#003DA6"/>
<path d="M400.848 153.308V74.1703C400.848 68.3673 405.561 63.6523 411.362 63.6523H417.272V153.308H400.848Z" fill="#616160"/>
<path d="M484.375 129.01H441.774C442.427 133.109 443.913 136.155 446.234 138.186C448.554 140.217 451.672 141.233 455.66 141.233C458.67 141.233 461.244 140.653 463.455 139.492C465.631 138.332 467.444 136.591 468.93 134.233L482.236 140.87C479.154 145.839 475.42 149.539 471.033 151.932C466.646 154.326 461.425 155.559 455.37 155.559C446.197 155.559 438.946 152.839 433.58 147.362C428.214 141.886 425.531 134.523 425.531 125.275C425.531 116.026 428.323 109.026 433.943 103.296C439.562 97.5656 446.741 94.6641 455.479 94.6641C464.217 94.6641 471.613 97.3479 476.87 102.716C482.127 108.083 484.738 115.446 484.738 124.731C484.738 125.239 484.738 125.783 484.665 126.363C484.629 126.979 484.557 127.85 484.448 129.01H484.375ZM468.06 119.073C467.589 115.482 466.283 112.762 464.144 110.949C462.005 109.135 459.068 108.192 455.37 108.192C451.672 108.192 448.699 109.099 446.487 110.949C444.276 112.798 442.862 115.482 442.245 119.073H468.024H468.06Z" fill="#616160"/>
<path d="M548.74 153.31H532.787L533.005 145.15C530.757 148.741 528.074 151.352 524.92 153.057C521.765 154.725 517.959 155.559 513.427 155.559C505.921 155.559 499.83 152.766 495.226 147.181C490.621 141.596 488.301 134.197 488.301 125.021C488.301 115.845 490.549 108.011 495.081 102.679C499.613 97.3479 505.921 94.6641 513.97 94.6641C518.176 94.6641 521.874 95.607 525.029 97.493C528.219 99.379 530.866 102.208 533.041 105.944V96.5863H548.668V153.347L548.74 153.31ZM533.694 124.84C533.694 119.762 532.425 115.736 529.851 112.762C527.276 109.788 523.832 108.301 519.481 108.301C515.131 108.301 511.505 109.788 508.931 112.726C506.356 115.664 505.088 119.726 505.088 124.84C505.088 129.953 506.357 133.943 508.858 136.808C511.396 139.673 514.877 141.088 519.336 141.088C523.796 141.088 527.421 139.673 529.923 136.808C532.425 133.943 533.694 129.953 533.694 124.84Z" fill="#616160"/>
<path d="M561.276 153.312V109.463H553.336V96.5511H561.276V84.9089C561.276 80.9193 564.503 77.6914 568.491 77.6914H577.737V96.5511H585.677V109.463H577.737V153.312H561.24H561.276Z" fill="#616160"/>
<path d="M646.297 129.01H603.696C604.349 133.109 605.835 136.155 608.156 138.186C610.476 140.217 613.594 141.233 617.582 141.233C620.591 141.233 623.166 140.653 625.377 139.492C627.553 138.332 629.366 136.591 630.852 134.233L644.158 140.87C641.076 145.839 637.342 149.539 632.955 151.932C628.568 154.326 623.347 155.559 617.292 155.559C608.119 155.559 600.868 152.839 595.502 147.362C590.136 141.886 587.453 134.523 587.453 125.275C587.453 116.026 590.245 109.026 595.865 103.296C601.484 97.5656 608.663 94.6641 617.401 94.6641C626.139 94.6641 633.535 97.3479 638.792 102.716C644.049 108.083 646.66 115.446 646.66 124.731C646.66 125.239 646.66 125.783 646.587 126.363C646.551 126.979 646.479 127.85 646.37 129.01H646.297ZM629.982 119.073C629.511 115.482 628.205 112.762 626.066 110.949C623.927 109.135 620.99 108.192 617.292 108.192C613.594 108.192 610.621 109.099 608.409 110.949C606.198 112.798 604.784 115.482 604.167 119.073H629.946H629.982Z" fill="#616160"/>
<path d="M655.734 145.577C655.734 142.857 656.713 140.499 658.635 138.613C660.556 136.691 662.913 135.748 665.705 135.748C668.497 135.748 670.781 136.691 672.666 138.577C674.588 140.463 675.53 142.784 675.53 145.577C675.53 148.37 674.588 150.691 672.666 152.649C670.745 154.571 668.424 155.551 665.705 155.551C662.986 155.551 660.629 154.571 658.671 152.613C656.713 150.654 655.734 148.297 655.734 145.613V145.577ZM657.402 126.826V77.8633C657.402 71.6976 662.406 66.6562 668.605 66.6562H673.826V126.826H657.402Z" fill="#616160"/>
<path d="M36.2941 76.5317C36.2941 73.7752 37.3092 71.454 39.3034 69.4955C41.2249 67.6458 43.8354 66.6303 46.4821 66.7029C49.1288 66.7754 51.3767 67.7184 53.2258 69.5681C55.1111 71.4903 56.0538 73.8115 56.0538 76.5317C56.0538 79.2518 55.1111 81.6093 53.1896 83.4952C51.268 85.4175 48.9476 86.3605 46.2283 86.3605C43.5091 86.3605 41.1162 85.4175 39.1583 83.4952C37.2367 81.573 36.2578 79.2518 36.2578 76.5317H36.2941ZM46.8447 95.21H54.4223V155.525H37.9981V104.06C37.9981 99.1633 41.9501 95.21 46.8447 95.21Z" fill="#616160"/>
<path d="M70.6289 153.312V81.0652C70.6289 74.1741 76.2124 68.625 83.0649 68.625H120.481V83.8941H88.7209V101.303H120.481V116.681H88.7209V137.898H120.481V153.276H70.6289V153.312Z" fill="#616160"/>
<path d="M148.071 153.31H131.574V96.55H148.071V105.472C150.754 101.736 153.654 98.98 156.7 97.2754C159.745 95.5708 163.226 94.6641 167.142 94.6641C171.855 94.6641 175.662 95.6433 178.635 97.5656C181.572 99.4878 183.675 102.389 184.907 106.306C187.518 102.462 190.491 99.5603 193.826 97.6018C197.162 95.6433 200.824 94.6641 204.776 94.6641C208.728 94.6641 212.172 95.4257 215 96.8765C217.792 98.3635 219.967 100.576 221.49 103.55C222.288 105.182 222.868 106.995 223.23 109.063C223.593 111.094 223.738 114.213 223.738 118.384V153.31H207.241V125.239C207.241 118.347 206.552 113.741 205.138 111.456C203.724 109.172 201.259 108.047 197.778 108.047C193.536 108.047 190.455 109.643 188.569 112.798C186.648 115.954 185.705 121.14 185.705 128.285V153.274H169.208V125.202C169.208 118.529 168.556 114.032 167.251 111.674C165.945 109.317 163.697 108.156 160.471 108.156C156.12 108.156 152.965 109.752 150.971 112.943C149.014 116.135 148.035 121.249 148.035 128.285V153.274L148.071 153.31Z" fill="#616160"/>
<path d="M390.843 130.056C403.198 130.056 413.213 120.037 413.213 107.679C413.213 95.3197 403.198 85.3008 390.843 85.3008C378.488 85.3008 368.473 95.3197 368.473 107.679C368.473 120.037 378.488 130.056 390.843 130.056Z" fill="white"/>
<path d="M391.576 123.534C400.707 123.534 408.109 116.13 408.109 106.996C408.109 97.8616 400.707 90.457 391.576 90.457C382.445 90.457 375.043 97.8616 375.043 106.996C375.043 116.13 382.445 123.534 391.576 123.534Z" fill="#CE0E2D"/>
<path d="M341.352 45.9871C349.041 45.9871 355.275 39.7517 355.275 32.06C355.275 24.3682 349.041 18.1328 341.352 18.1328C333.663 18.1328 327.43 24.3682 327.43 32.06C327.43 39.7517 333.663 45.9871 341.352 45.9871Z" fill="white"/>
<path d="M341.789 41.9639C347.476 41.9639 352.086 37.3523 352.086 31.6636C352.086 25.9749 347.476 21.3633 341.789 21.3633C336.102 21.3633 331.492 25.9749 331.492 31.6636C331.492 37.3523 336.102 41.9639 341.789 41.9639Z" fill="#00A7E1"/>
</svg>
