<svg width="314" height="343" viewBox="0 0 314 343" fill="none" xmlns="http://www.w3.org/2000/svg">
<g opacity="0.41">
<path d="M161.899 38.0291C161.169 37.9691 160.439 37.8791 159.709 37.8391C159.259 37.8091 158.819 37.7591 158.379 37.7391C156.169 37.6191 153.939 37.5391 151.699 37.5391C120.599 37.5391 92.2689 49.5591 71.0689 69.1891C76.0089 75.5691 78.9889 83.5591 78.9889 92.2491C78.9889 113.079 62.0989 129.969 41.2689 129.969C39.4689 129.969 37.7089 129.799 35.9689 129.549C33.9689 138.169 32.8789 147.139 32.8789 156.359C32.8789 264.889 151.709 335.989 151.709 335.989V275.749C68.1289 229.039 54.5489 88.0491 161.919 38.0291H161.899Z" fill="white"/>
<path d="M39.48 120.179C55.7614 120.179 68.96 106.98 68.96 90.6987C68.96 74.4174 55.7614 61.2188 39.48 61.2188C23.1986 61.2188 10 74.4174 10 90.6987C10 106.98 23.1986 120.179 39.48 120.179Z" fill="white"/>
<path d="M277.499 168.74C291.787 168.74 303.369 157.158 303.369 142.87C303.369 128.582 291.787 117 277.499 117C263.211 117 251.629 128.582 251.629 142.87C251.629 157.158 263.211 168.74 277.499 168.74Z" fill="white"/>
<path d="M233.922 44.8795C228.342 41.0095 223.352 38.2095 218.212 35.9395C214.562 42.8395 207.322 47.5395 198.972 47.5395C190.622 47.5395 183.272 42.7595 179.652 35.7695C160.002 44.5195 141.282 59.6695 126.462 79.1995C106.172 105.94 95.5315 137.65 96.3615 168.76C96.3615 169.6 96.3915 170.41 96.4515 171.17L98.2515 171.07C98.2215 170.48 98.2015 169.89 98.1815 169.3C98.0215 154.41 106.732 116.18 135.862 85.4795C161.012 58.9695 193.812 45.8395 233.392 46.5195L236.352 46.5695L233.922 44.8795Z" fill="white"/>
<path d="M199.661 41.22C208.558 41.22 215.771 34.0073 215.771 25.11C215.771 16.2127 208.558 9 199.661 9C190.763 9 183.551 16.2127 183.551 25.11C183.551 34.0073 190.763 41.22 199.661 41.22Z" fill="white"/>
<path d="M276.389 178.89C257.079 178.89 241.429 163.24 241.429 143.93C241.429 126.97 253.509 112.84 269.539 109.65C260.499 88.5895 246.339 71.4395 231.789 61.2995C231.369 61.2995 230.959 61.2695 230.549 61.2695C194.939 61.2695 162.979 77.0395 141.179 101.93H160.339C160.339 101.93 160.399 101.93 160.429 101.93C160.469 101.93 160.519 101.93 160.559 101.93C185.499 101.93 206.519 118.82 212.919 141.75C217.729 142.33 222.549 142.91 227.359 143.5C227.509 143.52 227.659 143.57 227.849 143.62C227.939 145.31 228.029 146.99 228.129 148.66C228.189 149.77 228.229 150.87 228.319 151.98C228.349 152.36 228.219 152.51 227.869 152.59C224.739 153.31 221.609 154.05 218.479 154.78C217.299 155.06 216.109 155.33 214.929 155.61C214.929 155.86 214.969 156.1 214.969 156.35C214.969 186.35 190.569 210.75 160.569 210.75C160.519 210.75 160.479 210.75 160.429 210.75C160.399 210.75 160.379 210.75 160.349 210.75H115.789C122.509 235.85 137.239 257.71 157.089 273.38C157.959 273.98 158.819 274.57 159.679 275.15C159.969 275.15 160.259 275.17 160.559 275.17C218.389 275.17 266.669 233.64 277.219 178.85C276.939 178.85 276.669 178.89 276.389 178.89ZM238.599 156.16C236.129 155.05 233.669 153.93 231.199 152.84C230.849 152.68 230.689 152.51 230.669 152.11C230.529 149.29 230.359 146.46 230.229 143.64C230.229 143.42 230.369 143.09 230.549 142.99C232.999 141.52 235.469 140.07 237.939 138.62C237.989 138.59 238.039 138.58 238.169 138.53C238.499 144.49 238.819 150.39 239.149 156.38C238.939 156.3 238.769 156.24 238.599 156.17V156.16Z" fill="white"/>
</g>
</svg>
