<svg xmlns="http://www.w3.org/2000/svg" viewBox="0 0 3000 2000" width="3000" height="2000"><g transform="translate(692.5 290.0) rotate(0.0 933.75 805.0) scale(5.700566851547166 5.720661180517063)"><svg width="327.599" height="281.436" viewBox="0 0 327.599 281.436"><linearGradient id="a" gradientUnits="userSpaceOnUse" x1="194.339" x2="74.996" y1="278.465" y2="159.53"><stop offset=".16" stop-color="#2d5caa"/><stop offset=".709" stop-color="#153b64"/></linearGradient><path d="M221.24 281.436H106.36c0-6.26 5.08-11.34 11.34-11.34h10.7c5.9 0 10.68-4.78 10.68-10.68v-77.4h49.44v77.4c0 5.9 4.78 10.68 10.68 10.68h10.69a11.332 11.332 0 0 1 11.35 11.34z" fill="#2d5caa"/><path d="M188.52 182.016v23.58c0 13.01-15.3 16.01-21.77 27.75-6.15 11.15 2 20.25-7.93 30.48-7.95 8.2-20.13 10.51-22.95 17.61h-29.51c0-6.26 5.08-11.34 11.34-11.34h10.7c5.9 0 10.68-4.78 10.68-10.68v-77.4z" fill="url(#a)"/><rect fill="#2d5caa" height="205.02" rx="8" width="327.599"/></svg></g><g transform="translate(740.0 322.5) rotate(0.0 887.5 556.25) scale(2.5 2.5)"><svg width="710" height="445" viewBox="0 0 710 445"><clipPath id="b"><rect width="710" height="445" fill="#FFF" rx="20" ry="20" stroke-linejoin="round" stroke="#E00000" stroke-width="0"/></clipPath><rect width="710" height="445" fill="#FFF" rx="20" ry="20" clip-path="url(#b)"/></svg></g><g transform="translate(197.5 1352.5) rotate(0.0 198.75 271.25) scale(7.383260893792489 7.468645456172474)"><svg width="53.838" height="72.637" viewBox="0 0 53.838 72.637"><path d="m2.638 10.816 48.586.321-7.646 58.601a3.33 3.33 0 0 1-3.324 2.899l-28.267-.187a3.329 3.329 0 0 1-3.29-2.988z" fill="#83d0ff"/><g fill="#153b64"><path d="m49.763 11.127-45.664-.302.062-9.315a.997.997 0 0 1 .88-.99C16.394-.759 31.987.32 48.998 3.76c.47.095.811.513.808.992l-.042 6.375z"/><path d="M53.838 12.843 0 12.488.537 9.94a2 2 0 0 1 1.97-1.587l48.879.323a2 2 0 0 1 1.949 1.613z"/></g></svg></g><g transform="translate(2072.5 562.5) rotate(0.0 286.25 286.25) scale(2.4975351836179143 2.4975351836179143)"><svg width="229.226" height="229.226" viewBox="0 0 229.226 229.226"><path d="M7.928 0h213.37c4.378 0 7.928 3.856 7.928 8.613v212c0 4.757-3.549 8.613-7.928 8.613H7.928C3.55 229.226 0 225.37 0 220.613v-212C0 3.856 3.549 0 7.928 0z" fill="#3aafd9"/><path d="M7.928 0h213.37c4.376 0 7.928 3.858 7.928 8.613v27.23H0V8.613C0 3.858 3.552 0 7.928 0z" fill="#2d5caa"/></svg></g><g transform="translate(2072.5 610.0) rotate(0.0 282.5 262.5) scale(2.4942169483145276 2.499083669321249)"><svg width="226.524" height="210.077" viewBox="0 0 226.524 210.077"><linearGradient id="d" gradientTransform="matrix(-.92365897 -.38321549 -.38321549 .92365897 -2548.217 -387.883)" gradientUnits="userSpaceOnUse" x1="-2614.288" x2="-2658.621" y1="-588.231" y2="-541.208"><stop offset=".348" stop-color="#fc5d78"/><stop offset=".826" stop-color="#f5837f"/></linearGradient><radialGradient id="c" cx="135.584" cy="126.917" fx="135.584" fy="126.917" gradientTransform="matrix(.96458505 -.26377204 .16907788 .61829901 -16.67 84.157)" gradientUnits="userSpaceOnUse" r="58.777"><stop offset=".023" stop-color="#2d5caa"/><stop offset=".604" stop-color="#7ec9fa"/><stop offset=".636" stop-color="#83d0ff"/></radialGradient><radialGradient xmlns:xlink="http://www.w3.org/1999/xlink" id="e" cx="-1493.154" fx="-1493.154" gradientTransform="matrix(-.96458505 -.26377204 -.16907788 .61829901 -1331.553 -345.447)" xlink:href="#c"/><linearGradient id="f" gradientUnits="userSpaceOnUse" x1="70.188" x2="105.947" y1="55.582" y2="72.116"><stop offset="0" stop-color="#fc5d78"/><stop offset=".94" stop-color="#f5837f"/></linearGradient><path d="M226.02 208.377c-1.32 1.07-2.95 1.7-4.72 1.7H7.93c-4.38 0-7.93-3.86-7.93-8.62v-2.99c.82-10.68 2.41-24.22 3.32-30.31 2.98-20.16 19.83-51.32 103.91-52.35 1.7-.03 3.48.01 5.31.08 1.83-.07 3.61-.11 5.31-.08 84.08 1.03 100.64 32.82 103.91 52.35.37 2.19 6.54 28.79 4.26 40.22z" fill="#83d0ff"/><path d="M72.378 117.971c-4.987 24.035 30.624 30.63 48.744 30.63s29.705-22.805 23.687-39.937c-1.886-5.368-12.862-6.404-30.857-4.275-13.681 1.619-27.851-2.839-33.55 1.1-1.752 1.211-7.753 11.172-8.025 12.482z" fill="#2d5caa"/><path d="m73.673 134.722 27.609 5.349 10.417 38.892 9.599-39.344c8.622-2.411 8.412-6.761 12.364-13.481l-20.478-4.603z" fill="#fff"/><path d="M88.344 127.628c.054.217.116.439.17.656-8.038 16.346 28.972 13.438 57.934 5.549-11.981-13.499-19.002-25.383-13.948-50.569 0 0-4.678-2.372-11.252-4.607-9.556-3.245-23.121-6.191-32.081-1.04-3.8 7.055-4.427 35.464-.823 50.01z" fill="#f5837f"/><path d="M87.376 132.842c8.689-2.961 17.597-13.667 23.893-23.417 5.375-8.323 4.301-21.83 12.85-28.169l-2.87-2.598c-9.556-3.245-27.755-6.191-36.715-1.04-3.8 7.055 2.268 38.26 2.843 55.224z" fill="url(#d)"/><path d="M101.031 86.996a38.06 38.06 0 0 1-11.429-1.767C69.63 78.952 58.49 57.596 64.768 37.625l.477.15-.477-.15c3.041-9.674 9.667-17.585 18.659-22.275 8.99-4.689 19.271-5.6 28.945-2.558 9.674 3.04 17.585 9.666 22.276 18.658 4.69 8.991 5.599 19.271 2.558 28.945s-9.667 17.586-18.659 22.276c-5.501 2.87-11.484 4.324-17.516 4.324zm-.088-74.97c-5.873 0-11.699 1.416-17.055 4.21-8.754 4.566-15.206 12.27-18.167 21.689-6.112 19.444 4.735 40.237 24.18 46.351 9.418 2.959 19.428 2.076 28.183-2.491s15.207-12.271 18.167-21.69c2.961-9.419 2.076-19.428-2.491-28.183-4.567-8.754-12.27-15.206-21.689-18.167a37.09 37.09 0 0 0-11.128-1.719z"/><path d="m151.299 115.833 4.297 2.673 13.853 3.831 7.418 9.476-23.863 41.645-39.655.688 8.721-38.39c15.157-5.1 14.963-5.811 29.229-19.923z" fill="url(#c)"/><path d="M142.9 106.149c7.615 6.534-5.352 24.263-20.829 29.607l14.249 24.425c15.861-11.972 16.307-22.15 22.21-40.748z" fill="#83d0ff"/><path d="m71.537 115.833-4.297 2.673-13.853 3.831-7.418 9.476 23.863 41.645 39.655.688-8.721-38.39c-15.157-5.1-14.963-5.811-29.229-19.923z" fill="url(#e)"/><path d="M79.937 106.149c-7.615 6.534 5.352 24.263 20.829 29.607l-14.249 24.425c-15.861-11.972-16.307-22.15-22.21-40.748z" fill="#83d0ff"/><path d="m58.909 34.184.32-17.801C59.403 6.704 67.401.255 76.628.08c13.21-.25 26.575.015 39.708 1.766 10.296 1.373 20.275 4.152 29.125 9.589l6.328 3.888a14.442 14.442 0 0 1 6.708 14.537l-2.999 19.174-89.435-6.977a7.759 7.759 0 0 1-7.154-7.875z" fill="#153b64"/><path d="M88.514 10.354c-12.961 4.57-30.793 20.56-26.887 36.692 2.318 5.928-9.987 43.126 7.407 58.739 12.569 11.282 51.316-5.348 54.896-21.907 1.483-6.858 2.326-16.54 1.328-24.505-3.456-27.562-20.618-54.705-36.744-49.019z" fill="#f5837f"/><path d="M68.787 22.213C65.212 19.42 76 12.119 83.374 8.865c10.964-4.838 33.243-10.813 49.914-1.314 16.381 9.333 25.227 19.035 22.456 39.854-.96 7.214-3.816 15.749-8.525 22.348-11.513 16.136-15.675 19.424-15.675 19.424-6.614-4.996-6.977-15.9-5.245-23.524-6.129 3.167-5.074-11.702-7.837-14.894-3.65-4.218-10.532.308-12.234-2.595-2.168-3.699-1.509-14.301-4.974-19.022-3.258-4.44-27.038-1.403-32.469-6.929z" fill="#153b64"/><path d="M138.975 69.935c1.777-4.843.402-8.622-3.355-9.993-3.521-1.284-7.979.962-9.32 4.165-2.637 6.301-4.45 12.627-6.623 22.083 8.407-4.81 16.049-7.401 19.298-16.255z" fill="#f5837f"/><path d="M88.573 55.654c7.473.44 16.953 5.19 22.413 7.307-3.336-4.819-11.036-10.756-15.58-12.376-2.373-.846-7.961-1.478-12.342-.868-1.203.167-3.399 2.346-3.082 4.296.705 4.337-3.606 12.194-6.118 17.436-1.028 2.154 5.473 5.83 8.985 5.828 2.479-8.82 3.314-15.007 1.922-19.871-.061-.212 1.24-1.903 3.801-1.753z" fill="url(#f)"/><g fill="#fff"><ellipse cx="128.998" cy="66.119" rx="4.127" ry="4.046"/><path d="m120.894 77.949-1.756-3.594c.019-.009 1.889-.929 5.021-2.826 4.329-2.623 4.867-5.29 4.888-5.402l3.956.586c-.063.461-.787 4.61-6.771 8.237-3.306 2.003-5.256 2.96-5.338 2.999z"/></g></svg></g><g transform="translate(1430.0 135.0) rotate(0.0 286.25 286.25) scale(2.4975351836179143 2.4975351836179143)"><svg width="229.226" height="229.226" viewBox="0 0 229.226 229.226"><path d="M7.928 0h213.37c4.378 0 7.928 3.856 7.928 8.613v212c0 4.757-3.549 8.613-7.928 8.613H7.928C3.55 229.226 0 225.37 0 220.613v-212C0 3.856 3.549 0 7.928 0z" fill="#3aafd9"/><path d="M7.928 0h213.37c4.376 0 7.928 3.858 7.928 8.613v27.23H0V8.613C0 3.858 3.552 0 7.928 0z" fill="#2d5caa"/></svg></g><g transform="translate(1432.5 780.0) rotate(0.0 286.25 286.25) scale(2.4975351836179143 2.4975351836179143)"><svg width="229.226" height="229.226" viewBox="0 0 229.226 229.226"><path d="M7.928 0h213.37c4.378 0 7.928 3.856 7.928 8.613v212c0 4.757-3.549 8.613-7.928 8.613H7.928C3.55 229.226 0 225.37 0 220.613v-212C0 3.856 3.549 0 7.928 0z" fill="#3aafd9"/><path d="M7.928 0h213.37c4.376 0 7.928 3.858 7.928 8.613v27.23H0V8.613C0 3.858 3.552 0 7.928 0z" fill="#2d5caa"/></svg></g><g transform="translate(1437.5 185.0) rotate(0.0 282.5 265.0) scale(2.4749222480178723 2.4714385637677783)"><svg width="228.29" height="214.45" viewBox="0 0 228.29 214.45"><linearGradient id="g" gradientUnits="userSpaceOnUse" x1="119.84" x2="150.482" y1="125.921" y2="173.921"><stop offset=".025" stop-color="#2d5caa"/><stop offset=".291" stop-color="#2d5caa"/><stop offset=".843" stop-color="#7ec9fa"/><stop offset=".874" stop-color="#83d0ff"/></linearGradient><linearGradient id="h" gradientUnits="userSpaceOnUse" x1="107.935" x2="138.766" y1="106.735" y2="136.277"><stop offset=".114" stop-color="#fc5d78"/><stop offset=".638" stop-color="#f5837f"/></linearGradient><linearGradient id="i" gradientUnits="userSpaceOnUse" x1="124.505" x2="111.162" y1="64.693" y2="87.962"><stop offset="0" stop-color="#fc5d78"/><stop offset=".94" stop-color="#f5837f"/></linearGradient><path d="M66.482 157.733s-3.28 1.669-9.358 4.269c-6.228 2.665-12.556-3.555-9.986-9.823 1.601-3.905 3.342-7.939 5.025-11.556 13.65-.408 14.319 17.109 14.319 17.109z" fill="#2d5caa"/><path d="m52.163 140.623 3.673 11.221c20.546 1.128 47.775-14.92 61.272-29.848-15.574 1-45.507 8.593-64.946 18.627" fill="#75c1fe"/><path d="m128.1 124.863-.375 3.398-6.054 2.872-2.253-8.963 2.515-.244c2.478.122 4.205.554 4.956 1.333l1.211 1.605z" fill="#2d5caa"/><path d="M127.722 143.431c-8.644 5.012-24.75 10.137-37.722 7.856-12.962-2.271-15.346-13.844-15.346-13.844 8.109-3.811 8.175-28.073 8.175-48.318.554.76 1.117 1.483 1.699 2.149 14.473 16.791 36.727 5.641 36.727 5.641-2.225 11.573 1.117 30.795 4.195 40.81.807 2.656 1.605 4.665 2.271 5.707z" fill="#f5837f"/><path d="M136.053 137.988v73.381H111.32l-1.942 3H76.296l-1.457-3H51.485v-62.315a604.387 604.387 0 0 1 5.885-2.985c.385-.197.77-.385 1.154-.573.375-.188.751-.366 1.126-.544 7.387-3.679 13.075-6.364 14.999-7.509 5.96 7.471 25.248 8.194 38.172 3.144 3.191-1.248 5.988-2.835 8.109-4.777 1.258-1.136 2.271-2.393 2.985-3.773.704 2.759 4.177 4.374 9.367 5.444.019 0 .037.009.056.009a.03.03 0 0 0 .019.009c.009 0 .019 0 .038.009.835.169 1.727.328 2.656.479z" fill="#fff"/><path d="M228.29 209.89c-1.33 2.71-3.96 4.56-6.99 4.56H109.36c.08-3.1.19-6.14.28-9.14.4-12.05.88-23.57 1.42-34.42.53-10.84 1.13-21 1.76-30.3.14-1.94.27-3.85.41-5.72 0 0 3.45.42 7.7.94 4.21.53 9.17 1.17 12.35 1.67.02 0 .04.01.06.01.01.01.02.01.02.01.01 0 .02 0 .04.01 3.2.46 12.66 1.64 12.66 1.64 18.34 1.66 43.4 2.58 56.63 13.63 17.06 14.25 19.59 34.27 25.6 57.11z" fill="#83d0ff"/><path d="M144.781 141.48c-2.383 6.076-7.77 14.549-12.067 19.779-7.021-4.737-19.481-17.646-19.481-26.39 15.359 2.825 31.548 6.612 31.548 6.612z" fill="url(#g)"/><path d="M125.451 137.725a136 136 0 0 1-3.332 1.474c-13.929-7.509-10.127-16.707-14.98-20.517-4.853-3.82-11.516-1.99-15.656-5.19-4.139-3.21-1.07-6.41-7.208-14.839l.253-7.377c14.473 16.791 36.727 5.641 36.727 5.641-2.225 11.573 1.117 30.795 4.195 40.81z" fill="url(#h)"/><ellipse cx="109.051" cy="53.037" fill="#f5837f" rx="41.098" ry="38.808" transform="matrix(.18659262 -.98243737 .98243737 .18659262 36.598 150.277)"/><path d="M71.956 69.021c.881 15.027 4.236 22.365 10.102 32.911 3.255 5.851 8.763 10.073 15.2 11.336l.242.047c6.485 1.229 13.212-.674 18.413-4.959 9.041-7.448 14.188-12.729 20.551-26.284l2.446-5.959-37.442-7.592-28.721-5.824-.791 6.323z" fill="#f5837f"/><path d="M133.472 66.267c-8.369-1.384-17.442-3.718-20.554 1.432-3.121 5.165-4.853 13.106-5.629 19.22 2.03-6.63 7.017-14.861 11.177-17.412 4.738-2.906 15.006-3.241 15.006-3.241z" fill="url(#i)"/><path d="M146.064 139.149c-2.919 5.932-9.095 12.68-13.516 17.373-5.369-8.597-15.308-18.011-19.316-21.653 11.836-6.082 15.421-9.799 13.656-11.61l19.175 15.89z" fill="#75c1fe"/><path d="M76.28 214.45H7.93c-4.38 0-7.93-3.86-7.93-8.62v-5.8c.66-7.41 1.68-13.21 3.3-16.64 5.13-10.83 28.72-24.34 47.53-34.01.01 0 .02-.01.02-.01.09-.04.18-.08.26-.13.12-.06.25-.13.38-.19 2.03-1.05 3.99-2.03 5.88-2.98.39-.2.77-.38 1.16-.57.37-.19.74-.38 1.1-.56h.01l.01.01c6.32 4.92 11.51 12.75 13.43 25.02.8 5.2 1.93 21.75 3.2 44.48z" fill="#83d0ff"/><path d="M70.606 164.653c-7.194-10.673-17.01-16.684-21.658-14.296 1.533-5.243 3.215-9.733 3.215-9.733 17.184 2.536 18.443 13.135 18.443 24.029z" fill="#2d5caa"/><path d="M73.238 171.035c-3.914-11.038-13.486-27.222-21.06-30.451 8.652-4.002 16.572-5.139 22.47-3.135-4.9 10.4-1.409 33.586-1.409 33.586z" fill="#75c1fe"/><path d="M152.945 60.991c1.462-5.248-.024-8.318-2.7-8.57-2.577-.243-4.278 2.391-5.275 5.33-2.185 6.442-4.349 13.061-9.047 25.3 6.852-5.309 14.484-12.95 17.022-22.061z" fill="#f5837f"/><path d="M90.817 34.38c.563 14.147 10.944 14.304 16.118 19.275 2.161 2.077 2.117 6.84 4.718 8.035 3.367 1.547 7.302-1.869 10.837 0 3.713 1.962 6.674 8.123 12.297 8.922 6.703.953 10.79-5.662 8.435-12.197 2.742-5.306 6.526-6.622 9.024-5.378 2.699-4.236 3.782-11.919 1.761-17.109-2.098-5.387-5.043-4.626-7.219-7.932-2.394-3.636-2.888-7.02-6.13-11.351-6.379-8.522-35.28-17.284-50.432-.818-10.062 5.826-17.163 15.757-19.28 25.144.188.386 2.736.032 2.722.689-.074 3.539 1.118 6.232 2.809 6.269 3.598.078 4.028-7.039 14.342-13.548z" fill="#153b64"/><path d="M65.07 43.771c.618-5.412 3.149-7.698 5.723-6.926 2.48.744 3.066 3.824 2.884 6.922-.397 6.79-.881 13.738-1.128 26.846-4.354-7.496-8.552-17.446-7.479-26.842z" fill="#f5837f"/><g fill="#9fdeed"><rect height="25.46" rx="1.746" transform="matrix(.96749324 .25289686 -.25289686 .96749324 14.699 -16.631)" width="8.377" x="67.854" y="36.133"/><rect height="17.149" rx="1.746" transform="matrix(.96749324 .25289686 -.25289686 .96749324 14.185 -15.357)" width="6.931" x="63.364" y="38.926"/><rect height="25.46" rx="1.746" transform="matrix(-.96749324 -.25289686 .25289686 -.96749324 270.088 171.129)" width="8.377" x="141.854" y="55.476"/><rect height="17.149" rx="1.746" transform="matrix(-.96749324 -.25289686 .25289686 -.96749324 280.001 175.129)" width="6.931" x="147.791" y="60.995"/><path d="m148.745 75.503-2.902-.758 5.958-22.793c2.618-10.017 1.143-20.462-4.153-29.414-5.299-8.956-13.787-15.345-23.902-17.988l-.979-.256c-20.875-5.451-42.256 6.93-47.663 27.609l-5.958 22.793-2.902-.758 5.958-22.793c5.824-22.281 28.847-35.632 51.324-29.754l.979.256c10.885 2.845 20.021 9.722 25.726 19.363 5.707 9.646 7.295 20.903 4.473 31.699l-5.958 22.793z"/></g></svg></g><g transform="translate(790.0 570.0) rotate(0.0 286.25 286.25) scale(2.4975351836179143 2.4975351836179143)"><svg width="229.226" height="229.226" viewBox="0 0 229.226 229.226"><path d="M7.928 0h213.37c4.378 0 7.928 3.856 7.928 8.613v212c0 4.757-3.549 8.613-7.928 8.613H7.928C3.55 229.226 0 225.37 0 220.613v-212C0 3.856 3.549 0 7.928 0z" fill="#3aafd9"/><path d="M7.928 0h213.37c4.376 0 7.928 3.858 7.928 8.613v27.23H0V8.613C0 3.858 3.552 0 7.928 0z" fill="#2d5caa"/></svg></g><g transform="translate(1457.5 825.0) rotate(0.0 266.25 263.75) scale(2.5096616080686207 2.5059858619641227)"><svg width="212.18" height="210.496" viewBox="0 0 212.18 210.496"><linearGradient id="j" gradientTransform="matrix(.99918948 -.04025387 .04025387 .99918948 386.879 -77.928)" gradientUnits="userSpaceOnUse" x1="-261.366" x2="-323.99" y1="180.077" y2="221.05"><stop offset=".198" stop-color="#fc5d78"/><stop offset=".638" stop-color="#f5837f"/></linearGradient><linearGradient id="k" gradientTransform="matrix(-.97680327 -.21413867 -.21413867 .97680327 -535.912 -94.258)" gradientUnits="userSpaceOnUse" x1="-646.221" x2="-659.711" y1="17.685" y2="50.39"><stop offset="0" stop-color="#fc5d78"/><stop offset=".94" stop-color="#f5837f"/></linearGradient><path d="M48.157 185.307c42.83-19.347 58.884-120.466 16.27-162.273-6.411 14.197-19.945 81.674-22.376 125.429-1.159 20.857.504 27.085 6.105 36.844z" fill="#0b2c53"/><path d="M43.726 154.093C41.383 135.835 82.401 42.304 84.191 27.116l6.86-18.897C72.179 4.89 55.934 20.312 50.826 61.538c-.881 7.112-10.307 87.02-7.1 92.555z" fill="#153b64"/><path d="M154.22 210.496h56.9c.36 0 .71-.03 1.06-.08-.69-5.89-3.14-26.52-4.63-34.04-3.11-15.53-16.42-27.03-31.92-30.28l-6.7-1.41-20.09-4.23-5.23-1.1-4.96-1.05-11.51-2.43-.1-.02-4.75-1-16.2-3.41-4.42.93-17.89 3.77-.34.07-9.43 1.99-.67.14-6.37 1.34-22.33 4.71-1.54.32-.83.18-5.71 1.2c-15.51 3.25-28.82 14.75-31.92 30.28-1.52 7.55-3.97 28.34-4.64 34.12h58.49l1.85-5 3.52 1.51 35.29-.39 4.68-.05 2.46-.03 2.61-.03 5.4-.06 30.68-.34 8.88-.1-.09 4.49z" fill="#ff0056"/><path d="M116.623 33.933c17.86 21.395 33.409 78.127 24.736 125.063-8.673 46.935-64.724 22.434-69.18 11.416 6.618-17.181 44.444-136.479 44.444-136.479z" fill="#0b2c53"/><circle cx="104.331" cy="56.274" fill="#f5837f" r="38.07"/><circle cx="106.416" cy="71.066" fill="#f5837f" r="38.07"/><path d="m105.54 210.496 2.62-3h3.33c.96-1.09 1.89.54 2.81-1.05 3.14-5.42 6.05-13.4 8.64-22v-.01c2.58-8.51 4.83-17.61 6.66-25.38 2.1-8.93 3.64-16.1 4.46-18.59-.27-.1-.53-.2-.78-.3-.2-.07-.38-.14-.56-.21-.09-.03-.18-.06-.27-.1-.8-.32-1.45-.58-2.01-.84-.2-.1-.38-.19-.56-.29-.14-.06-.27-.14-.39-.22s-.24-.15-.36-.23c-.11-.06-.22-.14-.33-.23-.43-.32-.78-.65-1.05-1.02-.3-.36-.53-.76-.71-1.17-.17-.36-.29-.74-.38-1.13-.09-.41-.18-.85-.26-1.32-.03-.12-.05-.25-.07-.37-.19-1.15-.36-2.45-.5-3.87a2.13 2.13 0 0 1-.02-.27c-.42-4.24-.6-9.45-.54-14.56 0-.26.01-.52.01-.78v-.15c.06-3.34.23-6.62.49-9.55.23-2.56.53-4.84.92-6.67l.03-.16h-.02l-29.79-1.38-7.46-.35-6.58-.3c.2 1.78.33 3.95.42 6.31.09 2.68.12 5.61.09 8.52-.01 1.07-.02 2.14-.05 3.18-.13 6.28-.49 11.92-.9 13.97-.83 4.13-3.05 7.43-6.36 9.67-.8.54-1.54.98-2.15 1.35h-.01c-.21.13-.4.24-.57.35-.09.06-.18.11-.26.16-1.02 1.77.33 8.18 3.01 16.58v.01c.22.7.45 1.42.7 2.15v.01c2.4 7.23 5.65 15.65 9.18 23.75 4.35 10 9.11 19.51 13.18 25.61 1.01 1.52 1.97-.17 2.88.88l3.44 3z" fill="#f5837f"/><path d="M133.283 140.156c-.162 3.385-8.012 17.991-8.485 16.002-2.119-8.913.273-15.13-18.707-21.906-8.268-2.952-20.174-10.275-22.709-24.427 9.741-8.727 29.117-2.364 42.617 4.896-.521 7.909-.749 17.395 1.396 21.742.77 1.561 2.859 2.656 5.888 3.694z" fill="url(#j)"/><path d="M135.34 92.112c-4.208 13.807-6.036 17.294-14.18 25.866-4.518 4.756-10.903 7.515-17.55 7.321a20.866 20.866 0 0 1-.25-.008c-6.687-.236-12.917-3.44-17.11-8.537-7.288-8.86-11.703-17.204-14.986-31.182zm13.533-28.981c.614-4.662-1.027-7.106-3.345-6.998-2.232.105-3.367 2.562-3.864 5.194-1.088 5.77-2.136 11.69-4.67 22.719 5.214-5.367 10.812-12.822 11.878-20.916z" fill="#f5837f"/><path d="M83.271 60.806c10.413.908 14.861 3.504 17.201 8.074 2.311 4.513 2.195 13.677-.674 20.691.429-13.164-8.716-24.743-16.528-28.765z" fill="url(#k)"/><path d="M61.732 67.777c-.693-4.998 1.051-7.633 3.539-7.533 2.396.096 3.632 2.724 4.183 5.546 1.208 6.184 2.376 12.529 5.174 24.346-5.633-5.722-11.694-13.681-12.896-22.359z" fill="#f5837f"/><path d="m105.54 210.496-.05-.12-1.66-3.81-9.8-22.46-14.84-34.01-.39-.91-4.79-10.98-.09-.21h-.01l-6.94 1.69-3.09.76c-4.86 8.14-6.38 22.99-6.46 39.12-.06 10.26.47 21.04 1.07 30.93zm49.62-20.02c-.19 6.79-.55 13.6-.94 20.02h-14.56l-5.76-3h-24.74l-.26-.99 8.97-20.57 11.73-26.88 9.05-20.75.13-.31 4.84 1.18 5.21 1.27s0 .01.01.01c5.94 9.96 6.88 29.94 6.32 50.02z" fill="#fff"/><path d="M69.97 67.764C67.627 49.506 88.524 41.237 90.314 26.05l.737-17.83C73.509 6.666 58.092 31.4 61.555 45.202c1.744 6.951 5.207 17.028 8.414 22.562z" fill="#153b64"/><path d="M105.54 210.496h34.45c1.78-1.21 3.44-2.69 4.99-4.39 3.92-4.24 7.23-9.8 10.18-15.63 6-11.86 10.5-24.82 15.52-29.93-.59-5.48-1.17-10.76-1.75-15.86-4.07-36.01-7.92-63.26-12.32-92.87-1.69-11.43-6.18-21.99-12.6-30.27-.01-.01-.01-.02-.02-.02-3.61-4.66-7.84-8.6-12.53-11.58-14.65-9.28-31.91-9.6-44.2-2.14h-.07c-.34.21-.68.42-1.02.64-7.4 4.87-12.8 12.68-14.38 23.16a40.08 40.08 0 0 0-.48 5.71c-.02 1.18 0 2.39.07 3.63.89-2.19 1.7-4.3 2.56-6.18v-.01c.75-1.65 1.54-3.12 2.45-4.34.66-.9 1.4-1.65 2.23-2.22 1.48-1.02 3.28-1.45 5.57-1.08 1.83.64 3.66 1.31 5.48 2.03 3.3 1.31 6.56 2.77 9.71 4.5h.01c5.05 2.77 9.8 6.22 13.91 10.75 6.96 7.67 12.05 18.44 13.57 34.29.14 2.54.2 5.27.17 8.14v.01c0 1.44-.03 2.91-.08 4.42-.06 1.88-.15 3.81-.26 5.77 0 .05-.01.11-.01.16-.12 2.09-.27 4.22-.45 6.38v.01c-.26 3.24-.58 6.52-.94 9.81-.01.06-.02.11-.02.16v.01l-.09.74c-.8 7.03-1.8 14.05-2.9 20.56-.48 2.82-.97 5.54-1.48 8.13-.32 1.64-.64 3.23-.97 4.76-2.48 11.57-5.64 23.89-9.13 38.94a930.41 930.41 0 0 0-4.42 19.85c-.27 1.26-.53 2.54-.8 3.84-.01.04-.02.08-.02.12z" fill="#153b64"/><g fill="#9fdeed"><rect height="27.199" rx="1.866" width="8.949" x="61.423" y="59.592"/><rect height="18.32" rx="1.866" width="7.404" x="56.439" y="64.032"/><rect height="27.199" rx="1.866" transform="matrix(-1 0 -0 -1 295.213 146.383)" width="8.949" x="143.132" y="59.592"/><rect height="18.32" rx="1.866" transform="matrix(-1 0 -0 -1 306.727 146.383)" width="7.404" x="149.661" y="64.032"/><path d="M152.269 70.001h-3V44.717C149.269 21.714 130.47 3 107.364 3h-1.081C83.176 3 64.377 21.714 64.377 44.717v25.284h-3V44.717C61.378 20.06 81.522 0 106.283 0h1.081c24.761 0 44.905 20.06 44.905 44.717z"/></g></svg></g><g transform="translate(797.5 600.0) rotate(0.0 281.25 270.0) scale(2.490933003865928 2.4916943521594686)"><svg width="225.819" height="216.72" viewBox="0 0 225.819 216.72"><linearGradient id="l" gradientUnits="userSpaceOnUse" x1="116.62" x2="162.569" y1="95.135" y2="169.217"><stop offset=".157" stop-color="#fc5d78"/><stop offset=".514" stop-color="#f5837f"/></linearGradient><linearGradient id="m" gradientTransform="matrix(.98398786 -.17823551 .17823551 .98398786 -240.86 -69.048)" gradientUnits="userSpaceOnUse" x1="345.502" x2="331.288" y1="181.196" y2="205.985"><stop offset="0" stop-color="#fc5d78"/><stop offset=".94" stop-color="#f5837f"/></linearGradient><linearGradient id="n" gradientUnits="userSpaceOnUse" x1="146.564" x2="33.264" y1="16.539" y2="209.799"><stop offset=".177" stop-color="#2d5caa"/><stop offset=".785" stop-color="#153b64"/></linearGradient><linearGradient id="o" gradientUnits="userSpaceOnUse" x1="208.29" x2="114.634" y1="81.517" y2="140.39"><stop offset=".177" stop-color="#2d5caa"/><stop offset=".723" stop-color="#153b64"/></linearGradient><path d="M102.255 29.289c12.28-5.545 36.598-5.693 48.686 18.902 12.089 24.594 5.756 97.852-11.139 102.708s-46.2 21.64-65.457-10.387S89.974 34.835 102.254 29.289z" fill="#0b2c53"/><path d="M143.762 136.968c-4.989 12.128-26.486 17.036-40.304 14.607-13.808-2.42-16.91-15.185-16.91-15.185 6.769-3.179 8.842-19.3 9.172-36.697.1-4.809.1-9.679.1-14.338h39.174c0 17.657.05 38.184 4.809 47.273.38.74 1.984 4.028 3.959 4.34z" fill="#f5837f"/><path d="M6.22 216.72h213.37c2.53 0 4.778-1.292 6.23-3.297-2.991-27.003-13.19-49.925-21.828-55.939-15.602-10.865-46.715-17.967-60.231-20.513-8.823 15.211-44.712 9.657-57.211-.583 0 0-41.856 3.329-65.264 18.975C11.259 162.062 2.404 192.948 0 213.438c1.452 1.997 3.696 3.283 6.22 3.283z" fill="#83d0ff"/><ellipse cx="115.245" cy="45.311" fill="#f5837f" rx="43.781" ry="39.821" transform="matrix(.00144862 -.99999895 .99999895 .00144862 69.767 160.49)"/><path d="M134.993 85.355c0 17.657.05 38.184 4.809 47.273-3.969-4.729-17.026-.532-21.065-10.69-4.529-11.388-18.139-7.588-23.018-22.245.1-4.809.1-9.679.1-14.338z" fill="url(#l)"/><path d="M80.891 69.334c3.754 15.561 8.556 22.584 16.516 32.474 4.416 5.487 10.809 8.825 17.581 8.883l.255.001c6.815.013 13.278-3.301 17.74-8.809 7.756-9.574 11.973-16.114 15.849-31.557l1.347-6.719-39.438-.594-30.252-.455z" fill="#f5837f"/><path d="M159.927 50.016c.5-5.782-1.659-8.704-4.51-8.442-2.746.252-4.01 3.344-4.476 6.617-1.022 7.174-1.988 14.53-4.503 28.267 6.132-6.905 12.621-16.404 13.489-26.441z" fill="#f5837f"/><path d="M141.104 47.613c-9.036.139-18.989-.586-21.273 5.404-2.29 6.006-2.598 14.659-2.251 21.216.869-7.335 4.534-16.91 8.41-20.373 4.415-3.946 15.114-6.246 15.114-6.246z" fill="url(#m)"/><path d="M70.538 49.249c-.416-5.788 1.785-8.679 4.632-8.376 2.742.292 3.961 3.402 4.38 6.681.918 7.188 1.776 14.557 4.092 28.329-6.031-6.993-12.381-16.586-13.104-26.634z" fill="#f5837f"/><path d="M172.288 143.516c-14.008 14.578-22.107 20.901-31.185 23.171 0 0 7.229-8.613.39-25.37-6.849-16.757-5.399-33.435-3.479-41.594 1.54-6.549 7.299-19.397 9.069-23.996-15.613-20.077-30.635-52.702-32.665-57.771C78.193 39.573 89.492 149.94 97.78 168.018c-9.098-2.51-15.348-.564-19.867-4.754-6.279-5.829-9.209-11.748-11.758-13.498-6.759-4.639-17.337-2.15-16.548-15.158 1.05-17.468 9.998-36.015 11.748-43.104 4.289-17.397 4.619-54.362 22.557-75.659C99.589-2.762 115.976.168 115.976.168c19.438-.915 41.354 14.418 46.633 63.15 5.244 48.366 23.68 65.606 9.678 80.198z" fill="#153b64"/><path d="M97.779 167.148c-9.098-2.51-15.348.305-19.867-3.884-20.497-20.847-.39-42.134 2.58-54.092 3.149-12.708 0-27.526 2.339-40.024C84.711 59.09 90.58 55.55 93.19 46.382c2.269-7.959 4.474-22.57 21.227-28.426-36.225 21.617-24.926 131.115-16.638 149.192z" fill="url(#n)"/><path d="M172.288 143.516c-14.008 14.578-22.107 20.032-31.185 22.302 0 0 7.229-7.744.39-24.501-6.849-16.757-5.399-33.435-3.479-41.594 1.54-6.549 7.299-19.397 9.069-23.996 13.491 16.62 29.886 41.489 29.886 49.932 1.18 7.149.3 12.668-4.679 17.857z" fill="url(#o)"/><rect fill="#fff" height="18.72" rx="2" width="44.64" x="47.677" y="184.255"/></svg></g><g transform="translate(300.0 217.5) rotate(0.0 503.75 80.0) scale(3.754187362827769 3.725175199646108)"><svg width="268.367" height="42.951" viewBox="0 0 268.367 42.951"><linearGradient id="p" gradientUnits="userSpaceOnUse" x1="-241.382" x2="383.897" y1="-65.241" y2="79.133"><stop offset=".002" stop-color="#fff"/><stop offset=".89" stop-color="#9fdeed"/></linearGradient><path d="M268.367 37.391V5.56a5.56 5.56 0 0 0-5.56-5.56H5.56A5.56 5.56 0 0 0 0 5.56v31.831a5.56 5.56 0 0 0 5.56 5.56h257.247a5.56 5.56 0 0 0 5.56-5.56z" fill="url(#p)"/><path d="M47.837 29.065H24.011a7.59 7.59 0 1 1 0-15.18h23.827a7.59 7.59 0 1 1-.001 15.18z" fill="#83d0ff"/></svg></g><g transform="translate(1942.5 255.0) rotate(0.0 148.75 83.75) scale(2.461077745239159 2.4815550090373044)"><svg width="120.882" height="67.498" viewBox="0 0 120.882 67.498"><path d="M27.265 67.498h85.153c4.674 0 8.463-3.805 8.463-8.5V8.5c0-4.694-3.789-8.5-8.463-8.5H27.265c-4.674 0-8.463 3.805-8.463 8.5v9.002L0 33.748l18.802 16.246v9.002c0 4.694 3.789 8.5 8.463 8.5z" fill="#9fdeed"/><g fill="#fff"><circle cx="51.431" cy="33.148" r="4.86"/><circle cx="69.576" cy="33.148" r="4.86"/><circle cx="87.72" cy="33.148" r="4.86"/></g></svg></g><g transform="translate(1110.0 1232.5) rotate(0.0 198.75 48.75) scale(2.580381312196927 2.518598884066956)"><svg width="154.047" height="38.712" viewBox="0 0 154.047 38.712"><path d="M8.463 38.708h126.793c4.674 0 8.463-3.805 8.463-8.5v-1.177l10.328-9.677-10.328-9.677V8.5c0-4.694-3.789-8.5-8.463-8.5H8.463C3.789 0 0 3.805 0 8.5v21.713c0 4.694 3.789 8.5 8.463 8.5v-.004z" fill="#9fdeed"/><g fill="#fff"><circle cx="54.259" cy="19.532" r="4.86"/><circle cx="72.403" cy="19.532" r="4.86"/><circle cx="90.548" cy="19.532" r="4.86"/></g></svg></g><g transform="translate(2600.0 630.0) rotate(0.0 60.0 -60.0) scale(2.5 -2.5)"><svg width="48" height="48" viewBox="0 0 48 48"><clipPath id="q"><circle cx="24" cy="24" fill="#FF0056" r="24"/></clipPath><circle cx="24" cy="24" fill="#FF0056" clip-path="url(#q)" r="24"/></svg></g><g transform="translate(987.5 1775.0) rotate(0.0 -267.5 62.5) scale(-1.133743600176313 1.1356100042698938)"><svg width="471.888" height="110.073" viewBox="0 0 471.888 110.073"><linearGradient id="r" gradientUnits="userSpaceOnUse" x1="51.017" x2="522.252" y1="12.897" y2="200.891"><stop offset=".067" stop-color="#2D5CAA"/><stop offset=".914" stop-color="#153B64"/></linearGradient><path d="M471.888 86.623v23.45c-87.946-15.811-277.448-8.469-471.888 0C0 85.64 11.034 62.716 29.621 48.779c30-22.493 73.674-41.231 157.033-47.492 129.537-9.729 224.233 38.376 265.357 54.606 11.948 4.71 19.877 17 19.877 30.73z" fill="url(#r)"/><path d="M471.888 110.073H0s109.818 0 211.299-43.047c143.071-60.689 256.117 2.487 260.589 43.047z" fill="#153B64"/></svg></g><g transform="translate(1627.5 1782.5) rotate(0.0 441.25 61.25) scale(2.0587796160988403 2.0280785404456805)"><svg width="428.652" height="60.402" viewBox="0 0 428.652 60.402"><path d="M406.152 20.302H22.5c-8.284 0-15 6.716-15 15v17.6h413.652v-17.6c0-8.285-6.715-15-15-15z" fill="#3AAFD9"/><path d="M421.153 60.402H7.5a7.5 7.5 0 0 1-7.5-7.5v-17.6c0-12.407 10.094-22.5 22.5-22.5h383.653c12.406 0 22.5 10.093 22.5 22.5v17.6a7.5 7.5 0 0 1-7.5 7.5zM15 45.402h398.653v-10.1c0-4.135-3.365-7.5-7.5-7.5H22.5c-4.135 0-7.5 3.365-7.5 7.5z" fill="#3AAFD9"/><path d="M50.324 7.5H32.37l-4.896 12.802H55.22z" fill="#3AAFD9"/><path d="M55.22 27.802H27.474a7.5 7.5 0 0 1-7.005-10.179l4.896-12.802A7.5 7.5 0 0 1 32.37 0h17.953a7.5 7.5 0 0 1 7.005 4.821l4.896 12.802a7.497 7.497 0 0 1-7.004 10.179zM100.648 7.5H82.694l-4.896 12.802h27.746z" fill="#3AAFD9"/><path d="M105.544 27.802H77.798a7.5 7.5 0 0 1-7.005-10.179l4.896-12.802A7.5 7.5 0 0 1 82.695 0h17.953a7.5 7.5 0 0 1 7.005 4.821l4.896 12.802a7.497 7.497 0 0 1-7.005 10.179zM150.972 7.5h-17.953l-4.897 12.802h27.747z" fill="#3AAFD9"/><path d="M155.869 27.802h-27.746a7.5 7.5 0 0 1-7.005-10.179l4.896-12.802A7.498 7.498 0 0 1 133.019 0h17.953a7.5 7.5 0 0 1 7.005 4.821l4.896 12.802a7.497 7.497 0 0 1-7.004 10.179zM201.296 7.5h-17.953l-4.897 12.802h27.747z" fill="#3AAFD9"/><path d="M206.193 27.802h-27.746a7.5 7.5 0 0 1-7.005-10.179l4.896-12.802A7.498 7.498 0 0 1 183.343 0h17.954a7.5 7.5 0 0 1 7.005 4.821l4.896 12.802a7.497 7.497 0 0 1-7.005 10.179zM301.945 7.5h-17.954l-4.896 12.802h27.746z" fill="#3AAFD9"/><path d="M306.841 27.802h-27.746a7.5 7.5 0 0 1-7.005-10.179l4.896-12.802A7.5 7.5 0 0 1 283.991 0h17.953a7.5 7.5 0 0 1 7.005 4.821l4.896 12.802a7.497 7.497 0 0 1-7.004 10.179zM352.269 7.5h-17.954l-4.896 12.802h27.746z" fill="#3AAFD9"/><path d="M357.165 27.802h-27.746a7.5 7.5 0 0 1-7.005-10.179l4.896-12.802A7.5 7.5 0 0 1 334.315 0h17.953a7.5 7.5 0 0 1 7.005 4.821l4.896 12.802a7.497 7.497 0 0 1-7.004 10.179zM402.593 7.5h-17.954l-4.896 12.802h27.746z" fill="#3AAFD9"/><path d="M407.489 27.802h-27.746a7.5 7.5 0 0 1-7.005-10.179l4.896-12.802A7.5 7.5 0 0 1 384.639 0h17.954a7.5 7.5 0 0 1 7.005 4.821l4.896 12.802a7.497 7.497 0 0 1-7.005 10.179z" fill="#3AAFD9"/></svg></g><g transform="translate(1210.0 1782.5) rotate(0.0 443.75 61.25) translate(0.0 0.0) scale(2.0704440898444427 2.0280785404456805)"><svg width="228.212" height="60.402" viewBox="0 0 228.212 60.402"><path d="M406.152 20.302H22.5c-8.284 0-15 6.716-15 15v17.6h413.652v-17.6c0-8.285-6.715-15-15-15z" fill="#3AAFD9"/><path d="M421.153 60.402H7.5a7.5 7.5 0 0 1-7.5-7.5v-17.6c0-12.407 10.094-22.5 22.5-22.5h383.653c12.406 0 22.5 10.093 22.5 22.5v17.6a7.5 7.5 0 0 1-7.5 7.5zM15 45.402h398.653v-10.1c0-4.135-3.365-7.5-7.5-7.5H22.5c-4.135 0-7.5 3.365-7.5 7.5z" fill="#3AAFD9"/><path d="M50.324 7.5H32.37l-4.896 12.802H55.22z" fill="#3AAFD9"/><path d="M55.22 27.802H27.474a7.5 7.5 0 0 1-7.005-10.179l4.896-12.802A7.5 7.5 0 0 1 32.37 0h17.953a7.5 7.5 0 0 1 7.005 4.821l4.896 12.802a7.497 7.497 0 0 1-7.004 10.179zM100.648 7.5H82.694l-4.896 12.802h27.746z" fill="#3AAFD9"/><path d="M105.544 27.802H77.798a7.5 7.5 0 0 1-7.005-10.179l4.896-12.802A7.5 7.5 0 0 1 82.695 0h17.953a7.5 7.5 0 0 1 7.005 4.821l4.896 12.802a7.497 7.497 0 0 1-7.005 10.179zM150.972 7.5h-17.953l-4.897 12.802h27.747z" fill="#3AAFD9"/><path d="M155.869 27.802h-27.746a7.5 7.5 0 0 1-7.005-10.179l4.896-12.802A7.498 7.498 0 0 1 133.019 0h17.953a7.5 7.5 0 0 1 7.005 4.821l4.896 12.802a7.497 7.497 0 0 1-7.004 10.179zM201.296 7.5h-17.953l-4.897 12.802h27.747z" fill="#3AAFD9"/><path d="M206.193 27.802h-27.746a7.5 7.5 0 0 1-7.005-10.179l4.896-12.802A7.498 7.498 0 0 1 183.343 0h17.954a7.5 7.5 0 0 1 7.005 4.821l4.896 12.802a7.497 7.497 0 0 1-7.005 10.179zM301.945 7.5h-17.954l-4.896 12.802h27.746z" fill="#3AAFD9"/><path d="M306.841 27.802h-27.746a7.5 7.5 0 0 1-7.005-10.179l4.896-12.802A7.5 7.5 0 0 1 283.991 0h17.953a7.5 7.5 0 0 1 7.005 4.821l4.896 12.802a7.497 7.497 0 0 1-7.004 10.179zM352.269 7.5h-17.954l-4.896 12.802h27.746z" fill="#3AAFD9"/><path d="M357.165 27.802h-27.746a7.5 7.5 0 0 1-7.005-10.179l4.896-12.802A7.5 7.5 0 0 1 334.315 0h17.953a7.5 7.5 0 0 1 7.005 4.821l4.896 12.802a7.497 7.497 0 0 1-7.004 10.179zM402.593 7.5h-17.954l-4.896 12.802h27.746z" fill="#3AAFD9"/><path d="M407.489 27.802h-27.746a7.5 7.5 0 0 1-7.005-10.179l4.896-12.802A7.5 7.5 0 0 1 384.639 0h17.954a7.5 7.5 0 0 1 7.005 4.821l4.896 12.802a7.497 7.497 0 0 1-7.005 10.179z" fill="#3AAFD9"/></svg></g></svg>