<svg width="1452" height="665" viewBox="0 0 1452 665" fill="none" xmlns="http://www.w3.org/2000/svg">
<path d="M750.263 354.231C751.814 355.34 756.691 355.007 758.021 352.569C759.351 350.02 762.677 338.936 764.672 335.833C766.667 332.73 766.334 329.183 766.334 329.183C768.773 327.077 771.322 317.989 772.985 311.561C774.647 305.021 772.763 303.248 773.206 302.472C774.315 300.145 777.418 296.82 780.522 283.52C783.625 270.22 775.534 267.671 773.317 267.338C767.664 266.341 764.672 274.764 760.46 285.736C756.248 296.709 759.019 298.593 757.91 299.701C756.026 301.586 752.923 317.989 753.033 321.979C753.033 325.969 755.029 325.858 752.812 326.412C751.482 326.745 751.593 332.841 749.154 341.486C746.605 350.131 748.822 353.234 750.373 354.342" fill="white"/>
<path d="M700.079 296.717C700.079 296.717 699.746 301.261 699.746 305.14C699.746 309.019 702.628 321.1 703.072 322.319C703.626 323.538 704.512 329.523 705.067 332.072C706.175 336.617 709.833 344.707 710.941 345.705C712.05 346.702 715.596 349.584 718.035 347.7C720.584 345.927 723.355 341.604 722.69 339.498C722.025 337.282 719.143 328.747 718.146 325.422C717.148 321.987 714.377 320.878 714.377 320.878C717.148 319.105 717.37 317.221 717.037 314.007C716.816 310.792 716.151 299.266 715.042 294.722C714.045 290.177 711.385 290.399 711.385 290.399C715.929 289.623 714.266 286.187 713.491 280.092C712.715 273.996 708.835 268.454 706.064 268.011C702.296 267.346 699.303 268.897 697.419 273.331C695.645 277.321 697.086 289.512 698.638 292.062C700.19 294.611 700.079 296.827 700.079 296.827" fill="white"/>
<path d="M677.224 363.627C681.435 365.733 683.209 363.184 684.761 359.416C686.312 355.647 682.876 348.554 680.66 345.007C678.443 341.35 673.566 339.133 673.566 339.133C672.901 337.803 674.453 336.695 669.354 325.168C666.029 317.632 661.152 316.191 661.152 316.191C663.147 315.304 659.711 302.447 654.945 296.019C650.068 289.591 643.639 292.14 641.533 292.916C641.533 292.916 639.316 292.916 639.316 300.785C639.316 308.765 648.184 319.516 648.184 319.516C648.184 319.516 649.181 323.395 650.511 326.831C650.844 327.717 653.726 333.037 657.605 338.579C661.484 344.232 663.147 344.564 663.147 344.564C663.147 344.564 662.814 346.116 663.812 347.446C665.807 350.217 672.901 361.411 677.113 363.517" fill="white"/>
<path d="M652.381 379.287C649.166 375.408 647.836 374.743 647.836 374.743C647.836 374.743 642.848 366.985 640.188 363.882C637.528 360.778 636.087 359.781 636.087 359.781C636.087 359.781 635.09 354.35 633.316 351.468C631.21 348.032 627.331 338.501 622.676 336.727C617.909 335.065 615.914 340.939 615.582 346.924C615.138 353.02 619.018 361.111 621.567 364.214C624.227 367.317 625.89 369.756 625.89 369.756C625.89 369.756 626.444 372.527 628.883 375.408C637.306 385.716 640.632 385.605 640.632 385.605C640.632 385.605 640.964 388.376 653.378 397.021C657.59 399.902 661.137 397.797 660.915 395.802C660.694 393.807 659.142 387.378 656.925 384.718C654.708 382.058 652.491 379.177 652.491 379.177" fill="white"/>
<path d="M804.139 361.967C798.264 364.073 794.607 370.391 793.831 378.925C793.277 384.467 794.717 387.57 793.609 388.235C792.501 388.9 791.947 389.565 791.392 390.784C788.954 396.215 787.291 400.87 786.183 404.86C785.961 405.636 785.961 406.855 785.629 407.853C785.296 408.739 784.52 409.404 784.409 409.958C784.077 411.621 783.966 413.062 783.855 414.392C781.417 409.515 777.427 402.2 767.673 402.754C762.241 403.087 750.825 405.082 746.391 409.183C744.175 411.288 745.172 425.143 741.625 432.125C737.081 441.213 728.657 448.418 723.78 444.982C720.122 442.322 715.356 439.44 712.142 433.788C706.822 424.367 704.716 411.399 711.699 409.072C722.893 405.192 743.953 404.417 761.798 396.215C779.643 388.013 775.542 363.076 759.138 365.182C756.034 365.625 735.197 356.648 730.098 362.3C723.78 369.172 718.46 370.502 713.915 370.945C708.373 371.499 707.819 367.177 698.287 371.943C694.075 374.048 681.994 395.107 677.338 397.212C672.683 399.318 669.579 412.84 678.668 428.135C687.757 443.43 688.201 452.629 691.969 460.831C695.738 469.033 707.376 482.665 720.455 482.887C733.534 482.997 745.505 480.116 747.389 475.793C749.273 471.471 750.382 466.705 756.478 469.032C762.574 471.36 781.306 461.717 788.621 451.632C791.503 447.752 794.939 432.568 788.51 421.928C789.508 421.596 790.616 420.82 791.614 419.601C791.725 419.49 791.836 419.379 791.946 419.268C797.932 413.505 797.71 406.19 801.59 400.648C808.24 391.338 812.341 386.794 815.888 382.693C818.548 379.59 820.211 374.381 820.986 371.832C823.536 361.968 813.449 358.864 803.917 362.3" fill="white"/>
<path d="M106.293 302.377H97.3154V182.123H55.418V173.699H148.191V182.123H106.293V302.377Z" fill="white"/>
<path d="M223.104 302.355L220.887 287.17H220.222C215.456 293.377 210.468 297.7 205.37 300.249C200.271 302.798 194.286 304.128 187.414 304.128C177.992 304.128 170.677 301.69 165.467 296.924C160.258 292.158 157.598 285.508 157.598 276.974C157.598 267.664 161.477 260.349 169.236 255.25C176.995 250.041 188.3 247.381 203.042 247.049L221.22 246.495V240.177C221.22 231.089 219.335 224.217 215.678 219.562C212.02 214.907 206.035 212.58 197.832 212.58C188.965 212.58 179.766 215.018 170.233 220.005L167.019 212.469C177.549 207.592 187.857 205.043 198.165 205.043C208.473 205.043 216.564 207.814 221.663 213.245C226.872 218.675 229.422 227.21 229.422 238.736V302.355H222.993H223.104ZM187.857 296.148C198.054 296.148 206.145 293.266 212.02 287.392C217.894 281.518 220.887 273.427 220.887 263.009V253.588L204.15 254.253C190.739 254.918 181.096 257.024 175.443 260.57C169.679 264.117 166.908 269.659 166.908 277.195C166.908 283.18 168.792 287.835 172.45 291.16C176.108 294.485 181.317 296.148 187.968 296.148" fill="white"/>
<path d="M269.358 165.387H260.602V302.377H269.358V165.387Z" fill="white"/>
<path d="M339.958 304.002C326.103 304.002 315.241 299.679 307.482 291.145C299.723 282.611 295.844 270.53 295.844 255.124C295.844 239.719 299.612 227.638 307.149 218.439C314.687 209.239 324.773 204.695 337.519 204.695C348.825 204.695 357.692 208.574 364.232 216.444C370.771 224.313 373.986 234.953 373.986 248.474V255.568H305.043C305.154 268.757 308.258 278.732 314.243 285.714C320.228 292.586 328.874 296.133 340.069 296.133C345.5 296.133 350.377 295.8 354.478 295.024C358.579 294.249 363.899 292.586 370.217 290.148V298.017C364.786 300.344 359.798 302.007 355.254 302.783C350.709 303.669 345.611 304.113 340.069 304.113M337.519 212.564C328.32 212.564 320.894 215.557 315.352 221.653C309.81 227.749 306.484 236.504 305.598 247.92H364.786C364.786 236.837 362.348 228.192 357.581 221.874C352.815 215.668 346.054 212.454 337.63 212.454" fill="white"/>
<path d="M466.985 302.361V240.295C466.985 230.652 464.99 223.67 460.889 219.347C456.788 215.025 450.581 212.808 442.046 212.808C430.629 212.808 422.206 215.69 416.885 221.453C411.565 227.216 408.905 236.637 408.905 249.605V302.361H400.148V206.712H407.575L409.237 219.791H409.792C415.999 209.816 427.082 204.828 442.933 204.828C464.657 204.828 475.519 216.466 475.519 239.741V302.361H466.874H466.985Z" fill="white"/>
<path d="M531.798 296.374C537.34 296.374 542.106 295.93 546.207 294.933V302.026C541.996 303.467 537.119 304.132 531.577 304.132C523.153 304.132 516.946 301.915 512.845 297.371C508.854 292.827 506.859 285.734 506.859 276.091V214.357H492.672V209.259L506.859 205.269L511.293 183.656H515.837V206.82H543.88V214.357H515.837V274.872C515.837 282.187 517.167 287.618 519.717 291.165C522.266 294.711 526.367 296.485 531.909 296.485" fill="white"/>
<path d="M646.064 254.371C646.064 269.998 642.296 282.19 634.759 290.946C627.222 299.701 616.692 304.135 603.391 304.135C594.967 304.135 587.652 302.14 581.223 298.039C574.794 293.938 569.917 288.175 566.481 280.638C563.045 273.101 561.383 264.346 561.383 254.371C561.383 238.743 565.151 226.551 572.688 217.906C580.226 209.151 590.644 204.828 603.834 204.828C617.024 204.828 627.332 209.261 634.759 218.017C642.185 226.884 645.953 238.965 645.953 254.371M570.472 254.371C570.472 267.56 573.353 277.756 579.117 285.182C584.881 292.497 593.083 296.266 603.613 296.266C614.142 296.266 622.345 292.608 628.108 285.182C633.872 277.867 636.754 267.56 636.754 254.371C636.754 241.181 633.872 230.985 627.997 223.67C622.123 216.355 613.921 212.808 603.391 212.808C592.861 212.808 584.659 216.466 579.006 223.67C573.243 230.874 570.472 241.181 570.472 254.481" fill="white"/>
<path d="M814.798 302.377H805.709V239.091H730.56V302.377H721.582V173.699H730.56V230.778H805.709V173.699H814.798V302.377Z" fill="white"/>
<path d="M856.585 206.602V268.557C856.585 278.2 858.581 285.182 862.682 289.505C866.783 293.827 872.99 296.044 881.524 296.044C892.941 296.044 901.254 293.162 906.685 287.399C912.005 281.636 914.776 272.326 914.776 259.358V206.602H923.422V302.251H915.995L914.444 289.062H913.89C907.682 299.037 896.599 304.024 880.748 304.024C859.024 304.024 848.051 292.387 848.051 269.112V206.602H856.696H856.585Z" fill="white"/>
<path d="M1074.81 302.339V239.608C1074.81 230.298 1073.03 223.426 1069.38 219.214C1065.72 214.892 1060.18 212.786 1052.64 212.786C1042.89 212.786 1035.57 215.446 1030.91 220.877C1026.26 226.308 1023.82 234.731 1023.82 246.258V302.339H1014.95V236.948C1014.95 220.766 1007.53 212.786 992.786 212.786C982.699 212.786 975.495 215.668 970.839 221.542C966.295 227.416 963.967 236.726 963.967 249.583V302.339H955.211V206.69H962.416L964.3 219.769H964.854C967.514 215.003 971.283 211.345 976.16 208.685C981.037 206.025 986.357 204.806 992.231 204.806C1007.31 204.806 1016.95 210.459 1021.27 221.764H1021.6C1024.71 216.333 1028.92 212.121 1034.13 209.129C1039.34 206.247 1045.32 204.695 1052.08 204.695C1062.5 204.695 1070.37 207.466 1075.58 213.008C1080.79 218.549 1083.45 227.416 1083.45 239.608V302.229H1074.81V302.339Z" fill="white"/>
<path d="M1172.56 302.355L1170.34 287.17H1169.68C1164.91 293.377 1159.93 297.7 1154.83 300.249C1149.73 302.798 1143.74 304.128 1136.87 304.128C1127.45 304.128 1120.13 301.69 1114.92 296.924C1109.71 292.158 1107.05 285.508 1107.05 276.974C1107.05 267.664 1110.93 260.349 1118.69 255.25C1126.45 250.041 1137.76 247.381 1152.5 247.049L1170.68 246.495V240.177C1170.68 231.089 1168.79 224.217 1165.13 219.562C1161.48 214.907 1155.49 212.58 1147.29 212.58C1138.42 212.58 1129.22 215.018 1119.69 220.005L1116.48 212.469C1127.01 207.592 1137.31 205.043 1147.62 205.043C1157.93 205.043 1166.02 207.814 1171.12 213.245C1176.33 218.675 1178.88 227.21 1178.88 238.736V302.355H1172.45H1172.56ZM1137.31 296.148C1147.51 296.148 1155.6 293.266 1161.48 287.392C1167.35 281.518 1170.34 273.427 1170.34 263.009V253.588L1153.61 254.253C1140.2 254.918 1130.55 257.024 1124.9 260.57C1119.14 264.117 1116.37 269.659 1116.37 277.195C1116.37 283.18 1118.25 287.835 1121.91 291.16C1125.56 294.485 1130.77 296.148 1137.42 296.148" fill="white"/>
<path d="M1276.63 302.361V240.295C1276.63 230.652 1274.64 223.67 1270.54 219.347C1266.44 215.025 1260.23 212.808 1251.69 212.808C1240.28 212.808 1231.85 215.69 1226.53 221.453C1221.21 227.216 1218.55 236.637 1218.55 249.605V302.361H1209.8V206.712H1217.22L1218.89 219.791H1219.44C1225.65 209.816 1236.73 204.828 1252.58 204.828C1274.31 204.828 1285.17 216.466 1285.17 239.741V302.361H1276.52H1276.63Z" fill="white"/>
<path d="M1395.49 254.371C1395.49 269.998 1391.72 282.19 1384.18 290.946C1376.65 299.701 1366.12 304.135 1352.82 304.135C1344.39 304.135 1337.08 302.14 1330.65 298.039C1324.22 293.938 1319.34 288.175 1315.91 280.638C1312.47 273.101 1310.81 264.346 1310.81 254.371C1310.81 238.743 1314.58 226.551 1322.11 217.906C1329.65 209.151 1340.07 204.828 1353.26 204.828C1366.45 204.828 1376.76 209.261 1384.18 218.017C1391.61 226.884 1395.38 238.965 1395.38 254.371M1319.9 254.371C1319.9 267.56 1322.78 277.756 1328.54 285.182C1334.31 292.497 1342.51 296.266 1353.04 296.266C1363.57 296.266 1371.77 292.608 1377.53 285.182C1383.3 277.867 1386.18 267.56 1386.18 254.371C1386.18 241.181 1383.3 230.985 1377.42 223.67C1371.55 216.355 1363.35 212.808 1352.82 212.808C1342.29 212.808 1334.08 216.466 1328.43 223.67C1322.67 230.874 1319.9 241.181 1319.9 254.481" fill="white"/>
<path d="M1107.85 396.793H856.797V408.763H1107.85V396.793Z" fill="#C62230"/>
<path d="M594.091 396.793H343.039V408.763H594.091V396.793Z" fill="#1D4798"/>
<path d="M1121.23 55.418H329.617V132.115H1121.23V55.418Z" fill="white"/>
<path d="M382.18 78.4492H398.695C410.333 78.4492 418.203 85.2101 418.203 95.9609C418.203 106.712 410.222 113.473 398.695 113.473H382.18V78.5601V78.4492ZM398.362 105.493C404.348 105.493 408.338 101.946 408.338 95.9609C408.338 89.9759 404.348 86.4292 398.362 86.4292H392.155V105.603H398.362V105.493Z" fill="#1A3D6A"/>
<path d="M455.775 78.4492H445.91V113.362H455.775V78.4492Z" fill="#1A3D6A"/>
<path d="M500.565 104.185H495.134V113.495H485.27V78.582H501.23C510.763 78.582 516.748 83.5695 516.748 91.5495C516.748 96.6479 514.199 100.527 509.876 102.633L517.413 113.605H506.772L500.455 104.295L500.565 104.185ZM500.565 86.3404H495.023V96.537H500.565C504.666 96.537 506.662 94.6529 506.662 91.4387C506.662 88.2245 504.666 86.3404 500.565 86.3404Z" fill="#1A3D6A"/>
<path d="M572.714 105.825V113.473H544.672V78.4492H572.16V86.0967H554.537V91.9709H570.054V99.3967H554.537V105.825H572.714Z" fill="#1A3D6A"/>
<path d="M598.879 95.9775C598.879 85.3375 606.97 77.8008 618.054 77.8008C624.483 77.8008 629.692 80.1283 633.128 84.3399L626.811 89.9924C624.594 87.3324 621.934 85.8916 618.608 85.8916C612.845 85.8916 608.854 89.8816 608.854 95.8666C608.854 101.852 612.845 105.842 618.608 105.842C621.934 105.842 624.705 104.401 626.811 101.741L633.128 107.393C629.692 111.605 624.594 113.932 618.054 113.932C606.97 113.932 598.879 106.396 598.879 95.7558" fill="#1A3D6A"/>
<path d="M657.504 95.9775C657.504 85.3375 665.595 77.8008 676.679 77.8008C683.108 77.8008 688.317 80.1283 691.753 84.3399L685.436 89.9924C683.219 87.3324 680.559 85.8916 677.233 85.8916C671.47 85.8916 667.479 89.8816 667.479 95.8666C667.479 101.852 671.47 105.842 677.233 105.842C680.559 105.842 683.33 104.401 685.436 101.741L691.753 107.393C688.317 111.605 683.219 113.932 676.679 113.932C665.595 113.932 657.504 106.396 657.504 95.7558" fill="#1A3D6A"/>
<path d="M728.416 78.4492H718.551V113.362H728.416V78.4492Z" fill="#1A3D6A"/>
<path d="M756.133 95.9886C756.133 85.4594 764.335 77.8119 775.53 77.8119C786.725 77.8119 794.927 85.4594 794.927 95.9886C794.927 106.518 786.725 114.165 775.53 114.165C764.335 114.165 756.133 106.518 756.133 95.9886ZM784.951 95.9886C784.951 89.8928 780.85 86.0136 775.53 86.0136C770.209 86.0136 766.108 90.0036 766.108 95.9886C766.108 101.974 770.209 105.964 775.53 105.964C780.85 105.964 784.951 101.974 784.951 95.9886ZM777.303 68.0586H786.835L777.414 75.5953H770.653L777.303 68.0586Z" fill="#1A3D6A"/>
<path d="M855.889 78.4492V113.473H847.797L832.391 94.7417V113.473H822.637V78.4492H830.839L846.246 97.0692V78.4492H855.889Z" fill="#1A3D6A"/>
<path d="M922.391 78.4492H938.906C950.544 78.4492 958.414 85.2101 958.414 95.9609C958.414 106.712 950.433 113.473 938.906 113.473H922.391V78.5601V78.4492ZM938.573 105.493C944.559 105.493 948.549 101.946 948.549 95.9609C948.549 89.9759 944.559 86.4292 938.573 86.4292H932.366V105.603H938.573V105.493Z" fill="#1A3D6A"/>
<path d="M1014.17 105.825V113.473H986.125V78.4492H1013.5V86.0967H995.879V91.9709H1011.4V99.3967H995.879V105.825H1014.17Z" fill="#1A3D6A"/>
<path d="M1042.24 78.4492H1052.1V105.603H1068.73V113.473H1042.24V78.4492Z" fill="#1A3D6A"/>
<path d="M420.093 512.482C420.093 512.482 419.317 512.704 418.763 512.704C413.775 513.48 367.887 542.186 367.887 541.853C367.887 541.853 368.442 540.523 368.996 538.861C370.658 534.427 372.875 527.556 373.984 523.676C375.646 517.026 375.868 512.15 374.759 509.379C374.538 508.603 374.538 507.716 374.538 507.495C374.538 507.273 374.316 506.386 373.984 505.611C372.875 503.948 371.545 503.394 369.55 503.394C367.887 503.948 364.008 507.495 364.008 509.157C364.008 513.591 336.52 531.435 326.877 531.435C323.552 531.435 322.997 530.326 322.997 526.447C322.997 518.467 330.202 509.157 330.424 508.825C331.199 508.271 332.086 506.386 332.086 505.5C332.086 503.616 329.648 501.953 327.985 501.953C323.33 501.953 318.342 510.709 316.679 514.588L315.904 516.472C315.904 516.472 313.465 523.898 314.241 529.994C314.463 532.765 315.904 535.536 317.788 537.42C320.005 539.304 322.997 540.412 326.544 540.412C339.734 540.412 354.919 529.994 364.008 521.127L365.892 519.243L365.338 520.906C363.454 527.556 359.574 537.641 356.582 543.737L354.365 547.838L348.269 550.831C335.855 557.148 300.164 578.096 298.169 594.056C297.615 595.94 297.948 599.043 298.391 600.706C299.499 603.144 301.938 604.806 305.041 605.915C307.812 605.915 310.251 605.693 313.022 605.361C332.53 599.597 351.816 572.886 361.459 555.264C361.68 554.71 420.315 519.797 421.977 517.802C424.416 515.031 423.086 512.261 420.093 512.261M345.498 562.911C339.956 571.667 318.785 596.716 307.812 596.716C307.258 596.716 307.036 596.716 307.036 596.494C306.815 595.94 308.145 593.169 309.475 591.285C314.13 583.859 325.657 574.549 339.734 566.015C344.389 563.244 345.83 562.468 345.498 563.022" fill="white"/>
<path d="M836.836 491.105C836.836 491.105 838.166 491.881 839.053 491.881C840.716 491.881 842.046 490.773 842.932 488.556C843.154 487.78 844.262 485.564 845.149 483.569C846.258 481.684 848.696 475.034 848.696 474.48C848.918 473.372 847.92 471.488 846.812 470.601C846.258 470.047 845.482 470.047 844.595 470.047C843.708 470.047 843.265 470.047 842.711 470.269C840.826 471.044 837.501 478.47 835.839 482.904C834.509 487.004 834.73 489.554 836.947 490.884" fill="white"/>
<path d="M985.133 491.105C985.133 491.105 986.463 491.881 987.35 491.881C989.012 491.881 990.343 490.773 991.229 488.556C991.451 487.78 992.559 485.564 993.446 483.569C994.554 481.684 996.993 475.034 996.993 474.48C997.215 473.372 996.217 471.488 995.109 470.601C994.554 470.047 993.779 470.047 992.892 470.047C992.005 470.047 991.562 470.047 991.008 470.269C989.123 471.044 985.798 478.47 984.136 482.904C982.805 487.004 983.027 489.554 985.244 490.884" fill="white"/>
<path d="M1150.18 513.384C1149.07 513.384 1147.74 513.938 1145.75 514.714C1141.65 516.598 1129.01 524.024 1115.15 532.891C1113.27 522.14 1113.49 516.709 1117.04 512.497C1118.7 510.613 1120.59 509.172 1122.25 508.618C1125.02 507.842 1126.35 505.847 1125.8 503.631C1125.24 501.968 1123.91 501.192 1121.69 501.192C1115.04 501.192 1109.39 507.51 1106.95 513.827C1103.52 514.049 1099.64 514.382 1095.54 514.382C1085.12 514.382 1074.37 513.052 1070.49 508.618C1069.93 507.842 1068.6 507.288 1067.72 506.734C1067.16 506.512 1066.61 506.18 1066.61 505.958C1066.61 505.182 1065.5 503.52 1064.72 502.966C1064.17 502.744 1063.61 502.744 1063.06 502.744C1061.73 502.744 1060.29 503.298 1059.51 504.407C1059.29 505.182 1058.96 505.182 1056.52 505.515C1050.76 506.291 1044.33 509.283 1039.67 513.717C1039.23 513.827 1038.79 514.049 1038.34 514.382C1023.71 525.132 1006.98 533.888 988.576 533.888C983.921 533.888 983.588 533.888 982.48 533.334C981.371 532.78 980.817 532.226 980.596 531.45C980.041 530.342 979.82 529.787 979.82 526.795C979.82 521.253 981.15 516.598 984.253 510.835C985.583 508.064 985.916 507.288 985.583 506.402C985.362 504.185 983.699 503.077 981.704 503.077C977.603 503.077 974.278 511.057 972.948 514.049C972.726 514.049 972.393 514.271 972.172 514.271C968.847 515.601 946.346 529.898 924.622 534.11C919.412 535.218 914.757 535.772 911.099 535.772C905.003 535.772 901.234 534.442 899.239 532.447C898.131 531.117 897.909 530.231 897.909 528.347C897.909 520.699 905.557 511.832 913.316 511.832C915.2 511.832 917.749 512.608 918.304 513.717C918.858 514.492 917.749 515.933 915.865 516.709C914.203 517.485 913.648 518.593 913.427 520.034C913.427 522.472 915.311 523.913 917.86 523.913C922.294 523.913 926.395 519.258 927.171 515.157C927.393 512.941 926.949 510.502 925.508 508.507C923.07 504.961 918.304 502.744 913.427 502.744C905.779 502.744 898.463 507.399 893.586 513.606C893.365 513.606 893.032 513.495 892.811 513.495C892.035 513.495 891.148 513.717 890.372 514.271C875.741 525.022 859.005 533.777 840.605 533.777C835.95 533.777 835.617 533.777 834.509 533.223C833.401 532.669 832.846 532.115 832.625 531.339C832.07 530.231 831.849 529.677 831.849 526.684C831.849 521.142 833.179 516.487 836.282 510.724C837.612 507.953 837.945 507.177 837.612 506.291C837.391 504.074 835.728 502.966 833.733 502.966C829.632 502.966 826.307 510.946 824.977 513.938C824.977 514.16 824.755 514.382 824.755 514.603C816.885 516.598 802.144 526.019 782.636 526.019C776.872 526.019 774.101 524.689 772.439 521.032C771.33 518.815 771.109 517.152 771.663 513.827C771.884 509.948 771.884 509.172 770 507.732C768.892 506.956 767.783 506.402 767.007 506.402C765.899 506.402 764.791 506.956 763.682 508.064C762.906 508.84 761.244 510.281 759.581 511.389C751.822 517.152 741.404 527.571 729.876 541.092C727.659 543.863 726.329 545.193 726.329 545.193C725.553 543.863 725.221 531.117 725.775 523.137C725.997 521.253 725.997 518.372 725.997 516.044C726.219 515.601 726.329 515.157 726.329 514.603C726.329 514.16 726.329 513.717 725.997 513.273C725.997 509.837 725.997 509.283 725.443 507.953C724.888 506.291 723.226 505.515 721.896 505.515C720.787 505.515 720.011 505.737 719.125 506.623C717.795 507.732 717.462 509.062 717.24 512.608C706.157 514.825 685.984 519.037 671.796 519.037C669.579 519.037 667.695 519.037 665.7 518.815C664.924 518.593 664.592 517.707 663.816 513.052C663.04 508.397 662.153 506.18 661.045 504.296C659.382 501.857 656.611 500.417 653.84 500.417C652.51 500.417 648.852 501.525 647.19 502.301C643.754 504.407 638.212 510.392 634.111 516.487C634 516.155 633.778 515.822 633.557 515.49C634.776 512.387 636.549 507.953 637.879 504.739C640.872 498.089 640.872 497.867 640.318 496.205C639.764 494.542 638.101 493.988 636.771 493.988C635.995 493.988 635.108 494.21 634.332 494.764C633.778 495.318 632.67 496.648 631.894 498.311C631.118 499.641 630.01 501.303 629.677 501.857C628.569 503.298 625.687 510.613 623.027 517.928C609.948 526.573 591.105 534.886 576.585 534.886C571.375 534.886 565.833 534.11 564.503 528.014L564.282 526.906H567.053C569.491 526.906 570.378 526.906 572.816 525.797C578.58 524.135 590.994 516.487 590.994 509.283C590.994 502.633 583.79 500.749 578.358 500.749C564.282 500.749 554.195 513.717 554.195 526.906C554.195 540.095 564.947 545.082 576.807 545.082C588.666 545.082 606.622 537.435 618.926 530.563C618.482 532.004 618.15 533.002 618.039 533.556C617.263 536.548 615.822 543.752 615.268 547.077C614.714 551.178 614.714 555.057 615.49 556.166C616.266 557.274 617.706 558.05 619.037 558.05C620.367 558.05 621.808 557.274 622.583 556.166C623.692 554.282 625.354 549.848 625.354 548.518C625.354 543.863 643.532 513.606 650.626 510.059C651.402 509.837 652.51 509.283 653.064 508.951C653.064 508.951 653.323 508.951 653.84 508.951C653.84 508.951 654.616 511.389 654.949 514.714C655.17 516.377 655.503 518.593 655.724 519.369C657.387 526.573 662.375 528.125 668.914 528.125C672.794 527.682 702.942 522.694 716.797 520.034C716.021 526.019 715.689 533.667 715.689 537.213C716.243 545.193 718.681 556.166 720.676 559.269C721.785 560.599 723.115 561.153 724.556 561.153C725.332 561.153 725.886 561.153 726.44 560.932C728.324 560.156 730.541 556.831 729.987 554.614V553.506L737.192 545.526C747.056 534.221 755.591 525.687 761.909 520.477C762.131 520.256 762.463 520.256 762.685 522.14C765.123 531.228 770.887 533.999 780.308 533.999C794.717 533.999 813.893 526.13 822.649 522.362C821.984 527.127 822.095 532.226 823.757 535.662C826.528 541.203 831.96 543.642 840.494 543.642C855.236 543.642 873.968 533.888 888.044 525.132C886.936 530.896 888.377 535.883 892.146 539.762C894.362 541.979 899.793 543.642 907.552 543.642C921.74 543.642 944.129 538.322 970.731 522.583C970.066 527.238 970.288 532.226 971.95 535.662C974.721 541.203 980.152 543.642 988.687 543.642C1002.32 543.642 1019.39 535.329 1033.02 527.127C1033.02 527.349 1033.02 527.46 1033.02 527.682C1033.02 535.329 1039.34 540.095 1046.55 540.095C1055.63 540.095 1067.16 534.332 1072.15 526.352C1073.26 524.467 1074.59 521.364 1074.59 520.256V519.48C1074.59 519.48 1078.47 520.256 1085.34 520.588C1092.21 520.588 1098.97 520.256 1105.84 519.702C1105.51 522.916 1105.84 528.014 1106.62 531.893C1107.17 534.664 1107.4 536.548 1107.73 538.543C1094.76 547.299 1082.68 556.942 1078.02 563.592C1071.15 573.234 1074.48 585.647 1086.78 585.647C1093.98 585.426 1103.52 579.552 1110.17 570.463C1118.7 558.604 1117.93 547.632 1117.37 544.085C1117.37 543.863 1117.15 542.755 1117.15 541.314V541.092C1129.01 532.004 1140.76 524.024 1150.96 519.037C1153.73 517.707 1154.28 513.495 1150.4 513.495M566.609 517.042C567.718 515.379 570.489 512.941 572.927 511.5C575.92 510.17 577.915 509.837 579.245 509.837C580.354 509.837 580.908 510.059 580.908 510.059C580.908 510.059 577.028 517.485 569.935 519.702C569.38 519.923 568.826 519.923 568.604 519.923C566.72 519.923 566.388 518.039 566.388 518.039L566.609 516.931V517.042ZM1066.16 518.926C1064.83 525.243 1052.97 531.893 1046.1 531.893C1045.33 531.893 1044.44 531.672 1043.89 531.672C1042.55 531.117 1041.11 529.233 1041.11 527.571C1041.11 519.369 1053.2 513.495 1060.4 513.495L1061.73 514.825C1062.28 515.601 1063.61 516.709 1064.72 517.042C1065.83 517.559 1066.27 518.187 1066.05 518.926M1108.73 549.516C1108.73 555.612 1104.85 562.483 1104.85 562.483L1104.29 563.259C1102.08 567.914 1094.43 574.786 1089.66 576.448C1088.89 577.002 1087.78 577.224 1086.89 577.224L1085.78 577.446C1080.57 577.446 1084.45 566.141 1095.09 557.385C1099.53 554.06 1103.85 550.513 1108.62 546.967V549.405L1108.73 549.516Z" fill="white"/>
<path d="M501.005 516.134C483.049 505.383 479.17 502.723 473.849 497.736C467.31 491.64 465.093 487.428 465.093 481.222C465.093 477.01 465.869 473.907 468.197 469.695C483.16 438.329 537.471 409.623 573.494 409.623C583.027 409.623 599.874 412.283 599.874 424.918C599.874 445.644 551.659 481.222 532.151 489.645C528.272 491.197 527.607 491.529 527.163 493.524C526.388 495.408 526.831 497.403 528.272 498.512C529.048 499.62 530.156 500.063 531.708 500.063C534.035 500.063 537.471 498.955 542.792 496.184C569.172 482.773 596.438 460.163 607.079 442.208C611.623 434.118 613.175 426.138 611.623 419.266C610.515 415.054 608.52 411.618 604.751 408.183C597.436 400.092 584.8 397.875 574.492 397.875C541.573 397.875 498.345 418.158 474.515 441.876C460.327 455.287 453.455 467.478 453.122 479.448C452.79 488.98 455.783 496.295 463.098 503.942C468.862 510.038 474.958 514.25 491.806 524.668C506.326 533.424 530.045 548.054 536.252 564.901C537.361 567.561 537.361 568.337 537.361 571.44C536.585 582.523 523.949 589.838 515.193 594.826C505.217 599.37 494.909 603.249 484.158 603.249C476.842 603.249 471.189 601.365 467.31 597.929C464.65 595.602 463.431 592.942 463.874 589.838C464.206 587.178 465.426 584.851 468.418 582.191C471.522 579.088 474.958 576.871 481.83 573.435C487.594 570.332 488.702 569.556 489.145 567.672C489.478 566.12 488.813 564.236 487.594 563.127C486.818 562.795 486.042 562.352 485.266 562.352C483.382 562.352 481.387 563.127 476.842 565.455C461.879 572.327 455.007 579.642 453.898 588.397C452.79 595.712 456.558 603.693 463.874 608.68C467.753 611.34 471.522 612.559 478.837 614H486.485C505.993 612.892 532.04 603.249 543.568 587.178C551.991 575.319 550.883 562.684 540.132 548.497C532.484 536.638 513.308 523.56 501.116 516.356" fill="white"/>
</svg>
